<svg xmlns="http://www.w3.org/2000/svg" width="17" height="15" viewBox="0 0 17 15"><defs><clipPath id="a"><path fill="#fff" d="M795 730v-8h17v8z"/></clipPath><clipPath id="b"><path fill="#fff" d="M795 723v-7h17v7z"/></clipPath><clipPath id="c"><path fill="#fff" d="M795 730v-8h17v8z"/></clipPath><clipPath id="d"><path fill="#fff" d="M795 723v-7h17v7z"/></clipPath></defs><path fill="none" stroke="#103d5c" stroke-miterlimit="50" stroke-width="2" d="M795 730v-8h17v8z" clip-path="url(&quot;#a&quot;)" transform="translate(-795 -715)"/><path fill="none" stroke="#103d5c" stroke-miterlimit="50" stroke-width="2" d="M795 723v-7h17v7z" clip-path="url(&quot;#b&quot;)" transform="translate(-795 -715)"/><path fill="none" stroke="#103d5c" stroke-miterlimit="50" d="M4.42 4.09V0M12.42 4.09V0"/><path fill="none" stroke="#103d5c" stroke-miterlimit="50" stroke-width="2" d="M795 730v-8h17v8z" clip-path="url(&quot;#c&quot;)" transform="translate(-795 -715)"/><path fill="none" stroke="#103d5c" stroke-miterlimit="50" stroke-width="2" d="M795 723v-7h17v7z" clip-path="url(&quot;#d&quot;)" transform="translate(-795 -715)"/><path fill="none" stroke="#103d5c" stroke-miterlimit="50" d="M4.42 4.09V0M12.42 4.09V0"/></svg>