<svg xmlns="http://www.w3.org/2000/svg" width="12" height="16.27" viewBox="0 0 12 16.27"><path fill="none" stroke="#103d5c" stroke-miterlimit="50" d="M6 15.64s5.5-6.46 5.5-9.5a5.5 5.5 0 1 0-11 0c0 3.04 5.5 9.5 5.5 9.5z"/><path fill="none" stroke="#103d5c" stroke-miterlimit="50" d="M3.5 6.14a2.5 2.5 0 1 1 5 0 2.5 2.5 0 0 1-5 0z"/><path fill="none" stroke="#103d5c" stroke-miterlimit="50" d="M6 15.64s5.5-6.46 5.5-9.5a5.5 5.5 0 1 0-11 0c0 3.04 5.5 9.5 5.5 9.5z"/><path fill="none" stroke="#103d5c" stroke-miterlimit="50" d="M3.5 6.14a2.5 2.5 0 1 1 5 0 2.5 2.5 0 0 1-5 0z"/></svg>