<svg xmlns="http://www.w3.org/2000/svg" width="20.54" height="15.4" viewBox="0 0 20.54 15.4"><path fill="#103d5c" d="M10.47 9.2a5.02 5.02 0 0 0 1.95-4c0-2.75-2.2-5-4.88-5a4.95 4.95 0 0 0-4.87 5c0 1.58.73 3.08 1.95 4a7.63 7.63 0 0 0-4.4 6h1.64a5.8 5.8 0 0 1 5.68-5 5.82 5.82 0 0 1 5.69 5h1.63a7.65 7.65 0 0 0-4.4-6zm-2.93-.67A3.3 3.3 0 0 1 4.29 5.2a3.3 3.3 0 0 1 3.25-3.33 3.3 3.3 0 0 1 3.25 3.33 3.3 3.3 0 0 1-3.25 3.33z"/><path fill="none" stroke="#fff" stroke-miterlimit="50" stroke-width=".4" d="M10.47 9.2a5.02 5.02 0 0 0 1.95-4c0-2.75-2.2-5-4.88-5a4.95 4.95 0 0 0-4.87 5c0 1.58.73 3.08 1.95 4a7.63 7.63 0 0 0-4.4 6h1.64a5.8 5.8 0 0 1 5.68-5 5.82 5.82 0 0 1 5.69 5h1.63a7.65 7.65 0 0 0-4.4-6zm-2.93-.67A3.3 3.3 0 0 1 4.29 5.2a3.3 3.3 0 0 1 3.25-3.33 3.3 3.3 0 0 1 3.25 3.33 3.3 3.3 0 0 1-3.25 3.33z"/><path fill="#103d5c" d="M16.62 9.23a4.98 4.98 0 0 0-4.39-8c.24.25.4.59.57.92.16.25.24.5.32.75a3.35 3.35 0 0 1 2.93 3.33 3.5 3.5 0 0 1-1.3 2.67.79.79 0 0 0-.33.67c0 .41.25.75.65.83a3.36 3.36 0 0 1 2.6 3.25h1.63a5.05 5.05 0 0 0-2.68-4.42z"/><path fill="none" stroke="#fff" stroke-miterlimit="50" stroke-width=".4" d="M16.62 9.23a4.98 4.98 0 0 0-4.39-8c.24.25.4.59.57.92.16.25.24.5.32.75a3.35 3.35 0 0 1 2.93 3.33 3.5 3.5 0 0 1-1.3 2.67.79.79 0 0 0-.33.67c0 .41.25.75.65.83a3.36 3.36 0 0 1 2.6 3.25h1.63a5.05 5.05 0 0 0-2.68-4.42z"/><path fill="#103d5c" d="M10.47 9.2a5.02 5.02 0 0 0 1.95-4c0-2.75-2.2-5-4.88-5a4.95 4.95 0 0 0-4.87 5c0 1.58.73 3.08 1.95 4a7.63 7.63 0 0 0-4.4 6h1.64a5.8 5.8 0 0 1 5.68-5 5.82 5.82 0 0 1 5.69 5h1.63a7.65 7.65 0 0 0-4.4-6zm-2.93-.67A3.3 3.3 0 0 1 4.29 5.2a3.3 3.3 0 0 1 3.25-3.33 3.3 3.3 0 0 1 3.25 3.33 3.3 3.3 0 0 1-3.25 3.33z"/><path fill="none" stroke="#fff" stroke-miterlimit="50" stroke-width=".4" d="M10.47 9.2a5.02 5.02 0 0 0 1.95-4c0-2.75-2.2-5-4.88-5a4.95 4.95 0 0 0-4.87 5c0 1.58.73 3.08 1.95 4a7.63 7.63 0 0 0-4.4 6h1.64a5.8 5.8 0 0 1 5.68-5 5.82 5.82 0 0 1 5.69 5h1.63a7.65 7.65 0 0 0-4.4-6zm-2.93-.67A3.3 3.3 0 0 1 4.29 5.2a3.3 3.3 0 0 1 3.25-3.33 3.3 3.3 0 0 1 3.25 3.33 3.3 3.3 0 0 1-3.25 3.33z"/><path fill="#103d5c" d="M16.62 9.23a4.98 4.98 0 0 0-4.39-8c.24.25.4.59.57.92.16.25.24.5.32.75a3.35 3.35 0 0 1 2.93 3.33 3.5 3.5 0 0 1-1.3 2.67.79.79 0 0 0-.33.67c0 .41.25.75.65.83a3.36 3.36 0 0 1 2.6 3.25h1.63a5.05 5.05 0 0 0-2.68-4.42z"/><path fill="none" stroke="#fff" stroke-miterlimit="50" stroke-width=".4" d="M16.62 9.23a4.98 4.98 0 0 0-4.39-8c.24.25.4.59.57.92.16.25.24.5.32.75a3.35 3.35 0 0 1 2.93 3.33 3.5 3.5 0 0 1-1.3 2.67.79.79 0 0 0-.33.67c0 .41.25.75.65.83a3.36 3.36 0 0 1 2.6 3.25h1.63a5.05 5.05 0 0 0-2.68-4.42z"/></svg>