<?xml version="1.0" standalone="no"?>
<!DOCTYPE svg PUBLIC "-//W3C//DTD SVG 1.1//EN" "http://www.w3.org/Graphics/SVG/1.1/DTD/svg11.dtd" >
<svg xmlns="http://www.w3.org/2000/svg" xmlns:xlink="http://www.w3.org/1999/xlink" version="1.1">
<metadata>
Created by FontForge 20161116 at Mon Sep 15 18:46:17 2014
 By Jimmy Wärting
Copyright (c) Milos Mitrovic, 2013. All rights reserved.
</metadata>
<defs>
<font id="Bambino-Bold" horiz-adv-x="600" >
  <font-face 
    font-family="Bambino Bold"
    font-weight="700"
    font-stretch="normal"
    units-per-em="1000"
    panose-1="0 0 8 0 0 0 0 0 0 0"
    ascent="800"
    descent="-200"
    x-height="500"
    cap-height="800"
    bbox="-215 -354 1351 1395"
    underline-thickness="50"
    underline-position="-100"
    unicode-range="U+0020-25CA"
  />
<missing-glyph horiz-adv-x="500" 
d="M0 0v700h500v-700h-500zM250 395l170 255h-340zM280 350l170 -255v510zM80 50h340l-170 255zM50 605v-510l170 255z" />
    <glyph glyph-name="uni00660062.liga" unicode="fb" horiz-adv-x="1010" 
d="M566 800v-303c38 22 83 33 132 33c155 0 283 -123 283 -278s-128 -282 -283 -282c-49 0 -91 8 -132 30h-139v648c-11 9 -28 20 -50 31c-17 8 -41 13 -60 13c-54 0 -97 -44 -97 -97v-95h110v-139h-110v-361h-138v361h-63v139h63v95c0 130 105 235 235 235
c41 0 80 -10 115 -30h134zM698 108c78 0 144 67 144 144c0 78 -66 144 -144 144c-88 0 -138 -72 -138 -144c0 -66 50 -144 138 -144z" />
    <glyph glyph-name="uni00660066.liga" unicode="ff" horiz-adv-x="770" 
d="M452 500v95c0 130 105 235 235 235c42 0 83 -11 118 -32c8 -5 15 -9 23 -15l-83 -111c-2 1 -3 3 -5 4c-16 10 -34 16 -53 16c-54 0 -97 -44 -97 -97v-95h110v-139h-110v-361h-138v361h-232v-361h-138v361h-63v139h63v95c0 130 105 235 235 235c42 0 83 -11 118 -32
c8 -5 15 -9 23 -15l-83 -111c-2 1 -3 3 -5 4c-16 10 -34 16 -53 16c-54 0 -97 -44 -97 -97v-95h232z" />
    <glyph glyph-name="uni006600660062.liga" unicode="ffb" horiz-adv-x="1380" 
d="M936 800v-303c38 22 83 33 132 33c155 0 283 -123 283 -278s-128 -282 -283 -282c-49 0 -91 8 -132 30h-139v648c-11 9 -28 20 -50 31c-17 8 -41 13 -60 13c-54 0 -97 -44 -97 -97v-95h110v-139h-110v-361h-138v361h-232v-361h-138v361h-63v139h63v95
c0 130 105 235 235 235c42 0 83 -11 118 -32c8 -5 15 -9 23 -15l-83 -111c-2 1 -3 3 -5 4c-16 10 -34 16 -53 16c-54 0 -97 -44 -97 -97v-95h232v95c0 130 105 235 235 235c41 0 80 -10 115 -30h134zM1068 108c78 0 144 67 144 144c0 78 -66 144 -144 144
c-88 0 -138 -72 -138 -144c0 -66 50 -144 138 -144z" />
    <glyph glyph-name="uni006600660068.liga" unicode="ffh" horiz-adv-x="1360" 
d="M937 800v-296c35 17 75 26 118 26c142 0 257 -115 257 -256v-274h-139v274c0 65 -53 117 -118 117c-75 0 -118 -47 -118 -129v-262h-139v647c-11 9 -28 21 -51 32c-17 8 -41 13 -60 13c-54 0 -97 -44 -97 -97v-95h110v-139h-110v-361h-138v361h-232v-361h-138v361h-63
v139h63v95c0 130 105 235 235 235c42 0 83 -11 118 -32c8 -5 15 -9 23 -15l-83 -111c-2 1 -3 3 -5 4c-16 10 -34 16 -53 16c-54 0 -97 -44 -97 -97v-95h232v95c0 130 105 235 235 235c41 0 80 -10 115 -30h135z" />
    <glyph glyph-name="uni006600660069.liga" unicode="ffi" horiz-adv-x="1000" 
d="M942 500v-500h-139v361h-213v-361h-138v361h-232v-361h-138v361h-63v139h63v95c0 130 105 235 235 235c42 0 83 -11 118 -32c8 -5 15 -9 23 -15l-83 -111c-2 1 -3 3 -5 4c-16 10 -34 16 -53 16c-54 0 -97 -44 -97 -97v-95h232v95c0 130 105 235 235 235
c42 0 83 -11 118 -32c8 -5 15 -9 23 -15l-83 -111c-2 1 -3 3 -5 4c-16 10 -34 16 -53 16c-54 0 -97 -44 -97 -97v-95h352z" />
    <glyph glyph-name="uni00660066006A.liga" unicode="ffj" horiz-adv-x="1000" 
d="M943 501v-546c0 -158 -128 -285 -285 -285c-37 0 -73 6 -110 23l50 129c18 -9 39 -14 60 -14c81 0 146 66 146 147v406h-214v-361h-138v361h-232v-361h-138v361h-63v139h63v95c0 130 105 235 235 235c42 0 83 -11 118 -32c8 -5 15 -9 23 -15l-83 -111c-2 1 -3 3 -5 4
c-16 10 -34 16 -53 16c-54 0 -97 -44 -97 -97v-95h232v95c0 130 105 235 235 235c42 0 83 -11 118 -32c8 -5 15 -9 23 -15l-83 -111c-2 1 -3 3 -5 4c-16 10 -34 16 -53 16c-54 0 -97 -44 -97 -97v-95h214v1h139z" />
    <glyph glyph-name="uni00660066006B.liga" unicode="ffk" horiz-adv-x="1310" 
d="M1021 253l280 -253h-208l-157 142v-142h-138v647c-11 9 -28 21 -51 32c-17 8 -41 13 -60 13c-54 0 -97 -44 -97 -97v-95h110v-139h-110v-361h-138v361h-232v-361h-138v361h-63v139h63v95c0 130 105 235 235 235c42 0 83 -11 118 -32c8 -5 15 -9 23 -15l-83 -111
c-2 1 -3 3 -5 4c-16 10 -34 16 -53 16c-54 0 -97 -44 -97 -97v-95h232v95c0 130 105 235 235 235c41 0 80 -10 115 -30h134v-437l157 137h208z" />
    <glyph glyph-name="uni00660068.liga" unicode="fh" horiz-adv-x="995" 
d="M572 800v-296c35 17 75 26 118 26c142 0 257 -115 257 -256v-274h-139v274c0 65 -53 117 -118 117c-75 0 -118 -47 -118 -129v-262h-139v647c-11 9 -28 21 -51 32c-17 8 -41 13 -60 13c-54 0 -97 -44 -97 -97v-95h110v-139h-110v-361h-138v361h-63v139h63v95
c0 130 105 235 235 235c41 0 80 -10 115 -30h135z" />
    <glyph glyph-name="uni00660069.liga" unicode="fi" horiz-adv-x="630" 
d="M572 500v-500h-139v361h-213v-361h-138v361h-63v139h63v95c0 130 105 235 235 235c42 0 83 -11 118 -32c8 -5 15 -9 23 -15l-83 -111c-2 1 -3 3 -5 4c-16 10 -34 16 -53 16c-54 0 -97 -44 -97 -97v-95h352z" />
    <glyph glyph-name="uni0066006A.liga" unicode="fj" horiz-adv-x="630" 
d="M573 501v-546c0 -158 -128 -285 -285 -285c-37 0 -73 6 -110 23l50 129c18 -9 39 -14 60 -14c81 0 146 66 146 147v406h-214v-361h-138v361h-63v139h63v95c0 130 105 235 235 235c42 0 83 -11 118 -32c8 -5 15 -9 23 -15l-83 -111c-2 1 -3 3 -5 4c-16 10 -34 16 -53 16
c-54 0 -97 -44 -97 -97v-95h214v1h139z" />
    <glyph glyph-name="uni0066006B.liga" unicode="fk" horiz-adv-x="940" 
d="M651 253l280 -253h-208l-157 142v-142h-138v647c-11 9 -28 21 -51 32c-17 8 -41 13 -60 13c-54 0 -97 -44 -97 -97v-95h110v-139h-110v-361h-138v361h-63v139h63v95c0 130 105 235 235 235c41 0 80 -10 115 -30h134v-437l157 137h208z" />
    <glyph glyph-name=".notdef" horiz-adv-x="500" 
d="M0 0v700h500v-700h-500zM250 395l170 255h-340zM280 350l170 -255v510zM80 50h340l-170 255zM50 605v-510l170 255z" />
    <glyph glyph-name="A" unicode="A" horiz-adv-x="830" 
d="M821 0h-153l-66 135h-372l-67 -135h-154l408 830zM298 274h236l-117 241z" />
    <glyph glyph-name="Aacute" unicode="&#xc1;" horiz-adv-x="830" 
d="M540 979l-254 -79l-36 116l254 79zM821 0h-153l-66 135h-372l-67 -135h-154l408 830zM298 274h236l-117 241z" />
    <glyph glyph-name="Abreve" unicode="&#x102;" horiz-adv-x="830" 
d="M468 1074h121c0 -96 -77 -174 -173 -174s-174 78 -174 174h121c0 -29 24 -53 53 -53s52 24 52 53zM821 0h-153l-66 135h-372l-67 -135h-154l408 830zM298 274h236l-117 241z" />
    <glyph glyph-name="Acircumflex" unicode="&#xc2;" horiz-adv-x="830" 
d="M568 1022l-46 -112l-106 42l-107 -42l-46 112l153 61zM821 0h-153l-66 135h-372l-67 -135h-154l408 830zM298 274h236l-117 241z" />
    <glyph glyph-name="Adieresis" unicode="&#xc4;" horiz-adv-x="830" 
d="M375 900h-131v131h131v-131zM587 900h-131v131h131v-131zM821 0h-153l-66 135h-372l-67 -135h-154l408 830zM298 274h236l-117 241z" />
    <glyph glyph-name="Agrave" unicode="&#xc0;" horiz-adv-x="830" 
d="M580 1016l-36 -116l-254 79l36 116zM821 0h-153l-66 135h-372l-67 -135h-154l408 830zM298 274h236l-117 241z" />
    <glyph glyph-name="Amacron" unicode="&#x100;" horiz-adv-x="830" 
d="M565 900h-300v121h300v-121zM821 0h-153l-66 135h-372l-67 -135h-154l408 830zM298 274h236l-117 241z" />
    <glyph glyph-name="Aogonek" unicode="&#x104;" horiz-adv-x="830" 
d="M745 -158l81 -73c-29 -42 -76 -64 -123 -64c-29 0 -59 9 -85 27c-66 46 -106 170 -12 267c8 8 18 19 44 39l-48 97h-372l-67 -135h-154l408 830l404 -830c-116 -46 -141 -94 -141 -95l-1 -2c-14 -29 -9 -56 12 -70c18 -13 42 -8 54 9zM534 274l-117 241l-119 -241h236z
" />
    <glyph glyph-name="Aring" unicode="&#xc5;" horiz-adv-x="830" 
d="M415 1140c66 0 120 -53 120 -120c0 -66 -54 -120 -120 -120c-67 0 -120 54 -120 120c0 67 53 120 120 120zM415 1056c-20 0 -37 -16 -37 -36s17 -36 37 -36s36 16 36 36s-16 36 -36 36zM821 0h-153l-66 135h-372l-67 -135h-154l408 830zM298 274h236l-117 241z" />
    <glyph glyph-name="Aringacute" unicode="&#x1fa;" horiz-adv-x="830" 
d="M550 1279l-254 -79l-36 116l254 79zM415 1140c66 0 120 -53 120 -120c0 -66 -54 -120 -120 -120c-67 0 -120 54 -120 120c0 67 53 120 120 120zM415 1056c-20 0 -37 -16 -37 -36s17 -36 37 -36s36 16 36 36s-16 36 -36 36zM821 0h-153l-66 135h-372l-67 -135h-154
l408 830zM298 274h236l-117 241z" />
    <glyph glyph-name="Atilde" unicode="&#xc3;" horiz-adv-x="830" 
d="M283 914l-108 55c26 51 72 87 128 98c52 11 106 -1 149 -33c14 -11 33 -15 51 -11c19 4 35 16 44 34l108 -55c-25 -51 -72 -87 -128 -98c-12 -3 -25 -4 -37 -4c-40 0 -79 13 -111 37c-15 11 -33 15 -51 11c-20 -4 -36 -16 -45 -34zM821 0h-153l-66 135h-372l-67 -135
h-154l408 830zM298 274h236l-117 241z" />
    <glyph glyph-name="AE" unicode="&#xc6;" horiz-adv-x="920" 
d="M859 661h-316v-192h262v-139h-262v-191h316v-139h-454v136h-171l-67 -136h-155l393 800h454v-139zM302 276h103v208z" />
    <glyph glyph-name="AEacute" unicode="&#x1fc;" horiz-adv-x="920" 
d="M615 979l-254 -79l-36 116l254 79zM859 661h-316v-192h262v-139h-262v-191h316v-139h-454v136h-171l-67 -136h-155l393 800h454v-139zM302 276h103v208z" />
    <glyph glyph-name="B" unicode="B" horiz-adv-x="575" 
d="M60 800h233c128 0 234 -106 234 -239c0 -55 -28 -111 -62 -144c56 -39 78 -123 78 -178c0 -133 -105 -239 -233 -239h-250v800zM199 661v-189h127c34 0 62 50 62 89c0 56 -39 100 -95 100h-94zM199 333v-194h111c55 0 94 44 94 100c0 39 -28 94 -61 94h-144z" />
    <glyph glyph-name="C" unicode="C" horiz-adv-x="780" 
d="M668 193l97 -97c-78 -78 -185 -126 -304 -126c-237 0 -430 193 -430 430s193 430 430 430c119 0 226 -48 304 -126l-97 -97c-53 52 -126 85 -207 85c-161 0 -292 -131 -292 -292s131 -292 292 -292c81 0 154 33 207 85z" />
    <glyph glyph-name="Cacute" unicode="&#x106;" horiz-adv-x="780" 
d="M595 979l-254 -79l-36 116l254 79zM668 193l97 -97c-78 -78 -185 -126 -304 -126c-237 0 -430 193 -430 430s193 430 430 430c119 0 226 -48 304 -126l-97 -97c-53 52 -126 85 -207 85c-161 0 -292 -131 -292 -292s131 -292 292 -292c81 0 154 33 207 85z" />
    <glyph glyph-name="Ccaron" unicode="&#x10c;" horiz-adv-x="780" 
d="M613 971l-152 -61l-153 61l46 112l107 -42l106 42zM668 193l97 -97c-78 -78 -185 -126 -304 -126c-237 0 -430 193 -430 430s193 430 430 430c119 0 226 -48 304 -126l-97 -97c-53 52 -126 85 -207 85c-161 0 -292 -131 -292 -292s131 -292 292 -292c81 0 154 33 207 85z
" />
    <glyph glyph-name="Ccedilla" unicode="&#xc7;" horiz-adv-x="780" 
d="M668 193l97 -97c-71 -71 -165 -117 -271 -125v-24c51 -21 87 -72 87 -131c0 -79 -64 -143 -142 -143c-79 0 -143 64 -143 143h110c0 -18 15 -33 33 -33s32 15 32 33s-14 32 -32 32h-55v129c-200 36 -353 212 -353 423c0 237 193 430 430 430c119 0 226 -48 304 -126
l-97 -97c-53 52 -126 85 -207 85c-161 0 -292 -131 -292 -292s131 -292 292 -292c81 0 154 33 207 85z" />
    <glyph glyph-name="Cdotaccent" unicode="&#x10a;" horiz-adv-x="780" 
d="M530 899h-138v138h138v-138zM668 193l97 -97c-78 -78 -185 -126 -304 -126c-237 0 -430 193 -430 430s193 430 430 430c119 0 226 -48 304 -126l-97 -97c-53 52 -126 85 -207 85c-161 0 -292 -131 -292 -292s131 -292 292 -292c81 0 154 33 207 85z" />
    <glyph glyph-name="D" unicode="D" horiz-adv-x="710" 
d="M62 800h217c217 0 400 -178 400 -400s-183 -400 -400 -400h-217v800zM201 661v-522h78c144 0 261 117 261 261s-117 261 -261 261h-78z" />
    <glyph glyph-name="Eth" unicode="&#xd0;" horiz-adv-x="710" 
d="M62 800h217c217 0 400 -178 400 -400s-183 -400 -400 -400h-217v340h-41v121h41v339zM201 139h78c144 0 261 117 261 261s-117 261 -261 261h-78v-200h139v-121h-139v-201z" />
    <glyph glyph-name="Dcaron" unicode="&#x10e;" horiz-adv-x="710" 
d="M483 971l-152 -61l-153 61l46 112l107 -42l106 42zM62 800h217c217 0 400 -178 400 -400s-183 -400 -400 -400h-217v800zM201 661v-522h78c144 0 261 117 261 261s-117 261 -261 261h-78z" />
    <glyph glyph-name="Dcroat" unicode="&#x110;" horiz-adv-x="710" 
d="M62 800h217c217 0 400 -178 400 -400s-183 -400 -400 -400h-217v340h-41v121h41v339zM201 139h78c144 0 261 117 261 261s-117 261 -261 261h-78v-200h159v-121h-159v-201z" />
    <glyph glyph-name="E" unicode="E" horiz-adv-x="580" 
d="M518 661h-316v-192h262v-138h-262v-192h316v-139h-455v800h455v-139z" />
    <glyph glyph-name="Eacute" unicode="&#xc9;" horiz-adv-x="580" 
d="M435 979l-254 -79l-36 116l254 79zM518 661h-316v-192h262v-138h-262v-192h316v-139h-455v800h455v-139z" />
    <glyph glyph-name="Ecaron" unicode="&#x11a;" horiz-adv-x="580" 
d="M443 971l-152 -61l-153 61l46 112l107 -42l106 42zM518 661h-316v-192h262v-138h-262v-192h316v-139h-455v800h455v-139z" />
    <glyph glyph-name="Ecircumflex" unicode="&#xca;" horiz-adv-x="580" 
d="M443 1022l-46 -112l-106 42l-107 -42l-46 112l153 61zM518 661h-316v-192h262v-138h-262v-192h316v-139h-455v800h455v-139z" />
    <glyph glyph-name="Edieresis" unicode="&#xcb;" horiz-adv-x="580" 
d="M250 900h-131v131h131v-131zM462 900h-131v131h131v-131zM518 661h-316v-192h262v-138h-262v-192h316v-139h-455v800h455v-139z" />
    <glyph glyph-name="Edotaccent" unicode="&#x116;" horiz-adv-x="580" 
d="M359 900h-138v138h138v-138zM518 661h-316v-192h262v-138h-262v-192h316v-139h-455v800h455v-139z" />
    <glyph glyph-name="Egrave" unicode="&#xc8;" horiz-adv-x="580" 
d="M435 1016l-36 -116l-254 79l36 116zM518 661h-316v-192h262v-138h-262v-192h316v-139h-455v800h455v-139z" />
    <glyph glyph-name="Emacron" unicode="&#x112;" horiz-adv-x="580" 
d="M440 900h-300v121h300v-121zM518 661h-316v-192h262v-138h-262v-192h316v-139h-455v800h455v-139z" />
    <glyph glyph-name="Eogonek" unicode="&#x118;" horiz-adv-x="580" 
d="M442 -158l81 -73c-29 -42 -76 -64 -123 -64c-29 0 -59 9 -85 27c-66 46 -106 170 -12 267l1 1h-241v800h455v-139h-316v-192h262v-138h-262v-192h316v-139c-116 -46 -141 -94 -141 -95l-1 -2c-14 -29 -9 -56 12 -70c18 -13 42 -8 54 9z" />
    <glyph glyph-name="F" unicode="F" horiz-adv-x="550" 
d="M517 661h-324v-192h269v-138h-269v-331h-138v800h462v-139z" />
    <glyph glyph-name="G" unicode="G" horiz-adv-x="865" 
d="M459 370h391c-13 -224 -163 -400 -391 -400c-237 0 -430 193 -430 430s193 430 430 430c115 0 219 -45 296 -118l-98 -97c-54 50 -124 77 -198 77c-161 0 -292 -131 -292 -292s131 -292 292 -292c73 0 136 27 181 79c12 13 23 29 32 45h-213v138z" />
    <glyph glyph-name="Gbreve" unicode="&#x11e;" horiz-adv-x="865" 
d="M509 1074h121c0 -96 -77 -174 -173 -174s-174 78 -174 174h121c0 -29 24 -53 53 -53s52 24 52 53zM459 370h391c-13 -224 -163 -400 -391 -400c-237 0 -430 193 -430 430s193 430 430 430c115 0 219 -45 296 -118l-98 -97c-54 50 -124 77 -198 77
c-161 0 -292 -131 -292 -292s131 -292 292 -292c73 0 136 27 181 79c12 13 23 29 32 45h-213v138z" />
    <glyph glyph-name="Gcommaaccent" unicode="&#x122;" horiz-adv-x="865" 
d="M459 370h391c-13 -224 -163 -400 -391 -400c-237 0 -430 193 -430 430s193 430 430 430c115 0 219 -45 296 -118l-98 -97c-54 50 -124 77 -198 77c-161 0 -292 -131 -292 -292s131 -292 292 -292c73 0 136 27 181 79c12 13 23 29 32 45h-213v138zM529 -90v-138
c0 -45 -14 -91 -57 -126l-66 64c24 16 30 32 30 62h-45v138h138z" />
    <glyph glyph-name="Gdotaccent" unicode="&#x120;" horiz-adv-x="865" 
d="M526 900h-138v138h138v-138zM459 370h391c-13 -224 -163 -400 -391 -400c-237 0 -430 193 -430 430s193 430 430 430c115 0 219 -45 296 -118l-98 -97c-54 50 -124 77 -198 77c-161 0 -292 -131 -292 -292s131 -292 292 -292c73 0 136 27 181 79c12 13 23 29 32 45h-213
v138z" />
    <glyph glyph-name="H" unicode="H" horiz-adv-x="660" 
d="M605 0h-138v333h-273v-333h-139v800h139v-328h273v328h138v-800z" />
    <glyph glyph-name="Hbar" unicode="&#x126;" horiz-adv-x="660" 
d="M640 580h-35v-580h-138v333h-273v-333h-139v580h-33v121h33v99h139v-99h273v99h138v-99h35v-121zM467 580h-273v-108h273v108z" />
    <glyph glyph-name="I" unicode="I" horiz-adv-x="265" 
d="M202 0h-139v800h139v-800z" />
    <glyph glyph-name="IJ" unicode="&#x132;" horiz-adv-x="835" 
d="M202 0h-139v800h139v-800zM774 800v-548c0 -155 -127 -282 -287 -282c-72 0 -144 28 -199 83l99 100c28 -28 61 -45 100 -45c83 0 149 67 149 144v548h138z" />
    <glyph glyph-name="Iacute" unicode="&#xcd;" horiz-adv-x="265" 
d="M277 979l-254 -79l-36 116l254 79zM202 0h-139v800h139v-800z" />
    <glyph glyph-name="Icircumflex" unicode="&#xce;" horiz-adv-x="265" 
d="M285 1022l-46 -112l-106 42l-107 -42l-47 112l154 61zM202 0h-139v800h139v-800z" />
    <glyph glyph-name="Idieresis" unicode="&#xcf;" horiz-adv-x="265" 
d="M92 900h-132v131h132v-131zM304 900h-131v131h131v-131zM202 0h-139v800h139v-800z" />
    <glyph glyph-name="Idotaccent" unicode="&#x130;" horiz-adv-x="265" 
d="M203 900h-138v138h138v-138zM202 0h-139v800h139v-800z" />
    <glyph glyph-name="Igrave" unicode="&#xcc;" horiz-adv-x="265" 
d="M278 1016l-36 -116l-254 79l36 116zM202 0h-139v800h139v-800z" />
    <glyph glyph-name="Imacron" unicode="&#x12a;" horiz-adv-x="265" 
d="M282 900h-300v121h300v-121zM202 0h-139v800h139v-800z" />
    <glyph glyph-name="Iogonek" unicode="&#x12e;" horiz-adv-x="265" 
d="M126 -158l81 -73c-29 -42 -76 -64 -123 -64c-29 0 -59 9 -85 27c-66 46 -106 170 -12 267c9 9 31 30 76 56v745h139v-800c-116 -46 -141 -94 -141 -95l-1 -2c-14 -29 -9 -56 12 -70c18 -13 42 -8 54 9z" />
    <glyph glyph-name="J" unicode="J" horiz-adv-x="570" 
d="M509 800v-548c0 -155 -127 -282 -287 -282c-72 0 -144 28 -199 83l99 100c28 -28 61 -45 100 -45c83 0 149 67 149 144v548h138z" />
    <glyph glyph-name="K" unicode="K" horiz-adv-x="705" 
d="M295 400l400 -400h-196l-299 299v-299h-139v800h139v-299l299 299h196z" />
    <glyph glyph-name="Kcommaaccent" unicode="&#x136;" horiz-adv-x="705" 
d="M295 400l400 -400h-196l-299 299v-299h-139v800h139v-299l299 299h196zM419 -90v-138c0 -45 -14 -91 -57 -126l-66 64c24 16 30 32 30 62h-45v138h138z" />
    <glyph glyph-name="L" unicode="L" horiz-adv-x="570" 
d="M200 139h334v-139h-473v800h139v-661z" />
    <glyph glyph-name="Lacute" unicode="&#x139;" horiz-adv-x="570" 
d="M318 979l-254 -79l-36 116l254 79zM200 139h334v-139h-473v800h139v-661z" />
    <glyph glyph-name="Lcaron" unicode="&#x13d;" horiz-adv-x="570" 
d="M200 139h334v-139h-473v800h139v-661zM534 800v-138c0 -45 -14 -91 -57 -126l-66 64c24 16 30 32 30 62h-45v138h138z" />
    <glyph glyph-name="Lcommaaccent" unicode="&#x13b;" horiz-adv-x="570" 
d="M200 139h334v-139h-473v800h139v-661zM354 -90v-138c0 -45 -14 -91 -57 -126l-66 64c24 16 30 32 30 62h-45v138h138z" />
    <glyph glyph-name="Ldot" unicode="&#x13f;" horiz-adv-x="570" 
d="M200 139h334v-139h-473v800h139v-661zM534 347h-138v138h138v-138z" />
    <glyph glyph-name="Lslash" unicode="&#x141;" horiz-adv-x="590" 
d="M554 139v-139h-473v320l-55 -18l-36 116l91 29v353h139v-309l59 19l36 -116l-95 -30v-225h334z" />
    <glyph glyph-name="M" unicode="M" horiz-adv-x="1070" 
d="M1050 0h-143l-105 448l-267 -478l-267 478l-105 -448h-143l198 830l317 -573l322 573z" />
    <glyph glyph-name="N" unicode="N" horiz-adv-x="780" 
d="M582 306v494h138v-830l-521 524v-494h-138v830z" />
    <glyph glyph-name="Nacute" unicode="&#x143;" horiz-adv-x="780" 
d="M535 979l-254 -79l-36 116l254 79zM582 306v494h138v-830l-521 524v-494h-138v830z" />
    <glyph glyph-name="Ncaron" unicode="&#x147;" horiz-adv-x="780" 
d="M543 971l-152 -61l-153 61l46 112l107 -42l106 42zM582 306v494h138v-830l-521 524v-494h-138v830z" />
    <glyph glyph-name="Ncommaaccent" unicode="&#x145;" horiz-adv-x="780" 
d="M582 306v494h138v-830l-521 524v-494h-138v830zM459 -90v-138c0 -45 -14 -91 -57 -126l-66 64c24 16 30 32 30 62h-45v138h138z" />
    <glyph glyph-name="Eng" unicode="&#x14a;" horiz-adv-x="780" 
d="M720 800v-846c0 -157 -127 -284 -284 -284c-47 0 -92 11 -132 33l60 125c22 -14 45 -20 72 -20c80 0 146 66 146 146v155l-383 385v-494h-138v830l521 -524v494h138z" />
    <glyph glyph-name="Ntilde" unicode="&#xd1;" horiz-adv-x="780" 
d="M258 914l-108 55c26 51 72 87 128 98c52 11 106 -1 149 -33c14 -11 33 -15 51 -11c19 4 35 16 44 34l108 -55c-25 -51 -72 -87 -128 -98c-12 -3 -25 -4 -37 -4c-40 0 -79 13 -111 37c-15 11 -33 15 -51 11c-20 -4 -36 -16 -45 -34zM582 306v494h138v-830l-521 524v-494
h-138v830z" />
    <glyph glyph-name="O" unicode="O" horiz-adv-x="920" 
d="M460 830c237 0 430 -193 430 -430s-193 -430 -430 -430s-430 193 -430 430s193 430 430 430zM460 692c-161 0 -292 -131 -292 -292s131 -292 292 -292s292 131 292 292s-131 292 -292 292z" />
    <glyph glyph-name="Oacute" unicode="&#xd3;" horiz-adv-x="920" 
d="M605 979l-254 -79l-36 116l254 79zM460 830c237 0 430 -193 430 -430s-193 -430 -430 -430s-430 193 -430 430s193 430 430 430zM460 692c-161 0 -292 -131 -292 -292s131 -292 292 -292s292 131 292 292s-131 292 -292 292z" />
    <glyph glyph-name="Ocircumflex" unicode="&#xd4;" horiz-adv-x="920" 
d="M613 1022l-46 -112l-106 42l-107 -42l-46 112l153 61zM460 830c237 0 430 -193 430 -430s-193 -430 -430 -430s-430 193 -430 430s193 430 430 430zM460 692c-161 0 -292 -131 -292 -292s131 -292 292 -292s292 131 292 292s-131 292 -292 292z" />
    <glyph glyph-name="Odieresis" unicode="&#xd6;" horiz-adv-x="920" 
d="M420 900h-132v131h132v-131zM632 900h-131v131h131v-131zM460 830c237 0 430 -193 430 -430s-193 -430 -430 -430s-430 193 -430 430s193 430 430 430zM460 692c-161 0 -292 -131 -292 -292s131 -292 292 -292s292 131 292 292s-131 292 -292 292z" />
    <glyph glyph-name="Ograve" unicode="&#xd2;" horiz-adv-x="920" 
d="M605 1016l-36 -116l-254 79l36 116zM460 830c237 0 430 -193 430 -430s-193 -430 -430 -430s-430 193 -430 430s193 430 430 430zM460 692c-161 0 -292 -131 -292 -292s131 -292 292 -292s292 131 292 292s-131 292 -292 292z" />
    <glyph glyph-name="Ohungarumlaut" unicode="&#x150;" horiz-adv-x="920" 
d="M471 1051l-175 -151l-79 92l175 150zM723 1052l-159 -150l-83 88l159 151zM460 830c237 0 430 -193 430 -430s-193 -430 -430 -430s-430 193 -430 430s193 430 430 430zM460 692c-161 0 -292 -131 -292 -292s131 -292 292 -292s292 131 292 292s-131 292 -292 292z" />
    <glyph glyph-name="Omacron" unicode="&#x14c;" horiz-adv-x="920" 
d="M610 900h-300v121h300v-121zM460 830c237 0 430 -193 430 -430s-193 -430 -430 -430s-430 193 -430 430s193 430 430 430zM460 692c-161 0 -292 -131 -292 -292s131 -292 292 -292s292 131 292 292s-131 292 -292 292z" />
    <glyph glyph-name="Oslash" unicode="&#xd8;" horiz-adv-x="920" 
d="M856 715l-54 -55c55 -72 88 -162 88 -260c0 -237 -193 -430 -430 -430c-96 0 -185 32 -257 86l-55 -56l-85 86l54 55c-55 72 -87 162 -87 259c0 237 193 430 430 430c96 0 184 -31 255 -84l54 54zM216 240l401 406c-45 29 -99 46 -157 46c-161 0 -292 -131 -292 -292
c0 -59 18 -114 48 -160zM704 561l-403 -406c46 -30 101 -47 159 -47c161 0 292 131 292 292c0 59 -18 115 -48 161z" />
    <glyph glyph-name="Otilde" unicode="&#xd5;" horiz-adv-x="920" 
d="M328 914l-108 55c26 51 72 87 128 98c52 11 106 -1 149 -33c14 -11 33 -15 51 -11c19 4 35 16 44 34l108 -55c-25 -51 -72 -87 -128 -98c-12 -3 -25 -4 -37 -4c-40 0 -79 13 -111 37c-15 11 -33 15 -51 11c-20 -4 -36 -16 -45 -34zM460 830c237 0 430 -193 430 -430
s-193 -430 -430 -430s-430 193 -430 430s193 430 430 430zM460 692c-161 0 -292 -131 -292 -292s131 -292 292 -292s292 131 292 292s-131 292 -292 292z" />
    <glyph glyph-name="OE" unicode="&#x152;" horiz-adv-x="1260" 
d="M892 661v-192h262v-138h-262v-192h316v-139h-455v86c-77 -72 -180 -116 -293 -116c-237 0 -430 193 -430 430s193 430 430 430c113 0 216 -44 293 -116v86h455v-139h-316zM460 108c161 0 292 131 292 292s-131 292 -292 292s-292 -131 -292 -292s131 -292 292 -292z" />
    <glyph glyph-name="P" unicode="P" horiz-adv-x="565" 
d="M62 800h226c138 0 249 -113 249 -250c0 -138 -112 -250 -250 -250h-86v-300h-139v800zM201 661v-222h86c61 0 111 50 111 111s-49 110 -110 111h-87z" />
    <glyph glyph-name="Thorn" unicode="&#xde;" horiz-adv-x="565" 
d="M202 650h86c138 0 249 -113 249 -250c0 -138 -112 -250 -250 -250h-86v-150h-139v800h140v-150zM201 289h86c61 0 111 50 111 111s-49 110 -110 111h-87v-222z" />
    <glyph glyph-name="Q" unicode="Q" horiz-adv-x="970" 
d="M762 0l-49 51c-71 -51 -158 -81 -252 -81c-237 0 -430 193 -430 430s193 430 430 430c238 0 430 -193 430 -430c0 -94 -30 -181 -81 -251l147 -149h-195zM658 301l53 -53c27 44 42 96 42 152c0 161 -131 292 -292 292s-292 -131 -292 -292s131 -292 292 -292
c56 0 108 15 152 43l-150 150h195z" />
    <glyph glyph-name="R" unicode="R" horiz-adv-x="620" 
d="M60 800h226c137 0 248 -112 248 -251c0 -99 -57 -185 -141 -225l213 -324h-166l-197 300h-44v-300h-139v800zM199 661v-223h86c61 0 111 50 111 111c0 62 -50 112 -111 112h-86z" />
    <glyph glyph-name="Racute" unicode="&#x154;" horiz-adv-x="620" 
d="M430 979l-254 -79l-36 116l254 79zM60 800h226c137 0 248 -112 248 -251c0 -99 -57 -185 -141 -225l213 -324h-166l-197 300h-44v-300h-139v800zM199 661v-223h86c61 0 111 50 111 111c0 62 -50 112 -111 112h-86z" />
    <glyph glyph-name="Rcaron" unicode="&#x158;" horiz-adv-x="620" 
d="M443 971l-152 -61l-153 61l46 112l107 -42l106 42zM60 800h226c137 0 248 -112 248 -251c0 -99 -57 -185 -141 -225l213 -324h-166l-197 300h-44v-300h-139v800zM199 661v-223h86c61 0 111 50 111 111c0 62 -50 112 -111 112h-86z" />
    <glyph glyph-name="Rcommaaccent" unicode="&#x156;" horiz-adv-x="620" 
d="M60 800h226c137 0 248 -112 248 -251c0 -99 -57 -185 -141 -225l213 -324h-166l-197 300h-44v-300h-139v800zM199 661v-223h86c61 0 111 50 111 111c0 62 -50 112 -111 112h-86zM369 -90v-138c0 -45 -14 -91 -57 -126l-66 64c24 16 30 32 30 62h-45v138h138z" />
    <glyph glyph-name="S" unicode="S" horiz-adv-x="575" 
d="M269 349c-76 21 -140 39 -185 109c-25 39 -38 84 -38 130c0 134 108 242 241 242c122 0 224 -91 239 -210l-136 -28c-2 55 -47 100 -103 100c-57 0 -103 -47 -103 -104c0 -19 5 -39 16 -55c15 -24 38 -32 106 -50c81 -23 150 -42 198 -116c27 -42 41 -90 41 -139
c0 -142 -116 -258 -258 -258c-136 0 -247 106 -257 239l133 26c16 -84 59 -127 124 -127c66 0 120 54 120 120c0 23 -7 45 -19 64c-19 28 -45 37 -119 57z" />
    <glyph glyph-name="Sacute" unicode="&#x15a;" horiz-adv-x="575" 
d="M430 979l-254 -79l-36 116l254 79zM269 349c-76 21 -140 39 -185 109c-25 39 -38 84 -38 130c0 134 108 242 241 242c122 0 224 -91 239 -210l-136 -28c-2 55 -47 100 -103 100c-57 0 -103 -47 -103 -104c0 -19 5 -39 16 -55c15 -24 38 -32 106 -50
c81 -23 150 -42 198 -116c27 -42 41 -90 41 -139c0 -142 -116 -258 -258 -258c-136 0 -247 106 -257 239l133 26c16 -84 59 -127 124 -127c66 0 120 54 120 120c0 23 -7 45 -19 64c-19 28 -45 37 -119 57z" />
    <glyph glyph-name="Scaron" unicode="&#x160;" horiz-adv-x="575" 
d="M443 971l-152 -61l-153 61l46 112l107 -42l106 42zM269 349c-76 21 -140 39 -185 109c-25 39 -38 84 -38 130c0 134 108 242 241 242c122 0 224 -91 239 -210l-136 -28c-2 55 -47 100 -103 100c-57 0 -103 -47 -103 -104c0 -19 5 -39 16 -55c15 -24 38 -32 106 -50
c81 -23 150 -42 198 -116c27 -42 41 -90 41 -139c0 -142 -116 -258 -258 -258c-136 0 -247 106 -257 239l133 26c16 -84 59 -127 124 -127c66 0 120 54 120 120c0 23 -7 45 -19 64c-19 28 -45 37 -119 57z" />
    <glyph glyph-name="Scedilla" unicode="&#x15e;" horiz-adv-x="575" 
d="M504 367c27 -42 41 -90 41 -139c0 -123 -88 -227 -204 -252v-29c51 -21 87 -72 87 -131c0 -79 -64 -143 -142 -143c-79 0 -143 64 -143 143h110c0 -18 15 -33 33 -33s32 15 32 33s-14 32 -32 32h-55v128c-109 25 -192 119 -201 233l133 26c16 -84 59 -127 124 -127
c66 0 120 54 120 120c0 23 -7 45 -19 64c-19 28 -45 37 -119 57c-76 21 -140 39 -185 109c-25 39 -38 84 -38 130c0 134 108 242 241 242c122 0 224 -91 239 -210l-136 -28c-2 55 -47 100 -103 100c-57 0 -103 -47 -103 -104c0 -19 5 -39 16 -55c15 -24 38 -32 106 -50
c81 -23 150 -42 198 -116z" />
    <glyph glyph-name="Scommaaccent" unicode="&#x218;" horiz-adv-x="575" 
d="M269 349c-76 21 -140 39 -185 109c-25 39 -38 84 -38 130c0 134 108 242 241 242c122 0 224 -91 239 -210l-136 -28c-2 55 -47 100 -103 100c-57 0 -103 -47 -103 -104c0 -19 5 -39 16 -55c15 -24 38 -32 106 -50c81 -23 150 -42 198 -116c27 -42 41 -90 41 -139
c0 -142 -116 -258 -258 -258c-136 0 -247 106 -257 239l133 26c16 -84 59 -127 124 -127c66 0 120 54 120 120c0 23 -7 45 -19 64c-19 28 -45 37 -119 57zM357 -90v-138c0 -45 -14 -91 -57 -126l-66 64c24 16 30 32 30 62h-45v138h138z" />
    <glyph glyph-name="T" unicode="T" horiz-adv-x="510" 
d="M483 661h-159v-661h-138v661h-159v139h456v-139z" />
    <glyph glyph-name="Tbar" unicode="&#x166;" horiz-adv-x="510" 
d="M324 661v-240h111v-121h-111v-300h-138v300h-111v121h111v240h-159v139h456v-139h-159z" />
    <glyph glyph-name="Tcaron" unicode="&#x164;" horiz-adv-x="510" 
d="M408 971l-152 -61l-153 61l46 112l107 -42l106 42zM483 661h-159v-661h-138v661h-159v139h456v-139z" />
    <glyph glyph-name="Tcedilla" unicode="&#x162;" horiz-adv-x="510" 
d="M311 0v-53c51 -21 87 -72 87 -131c0 -79 -64 -143 -142 -143c-79 0 -143 64 -143 143h110c0 -18 15 -33 33 -33s32 15 32 33s-14 32 -32 32h-55v152h-15v661h-159v139h456v-139h-159v-661h-13z" />
    <glyph glyph-name="uni021A" unicode="&#x21a;" horiz-adv-x="510" 
d="M483 661h-159v-661h-138v661h-159v139h456v-139zM324 -90v-138c0 -45 -14 -91 -57 -126l-66 64c24 16 30 32 30 62h-45v138h138z" />
    <glyph glyph-name="U" unicode="U" horiz-adv-x="790" 
d="M728 800v-495c0 -185 -150 -335 -334 -335c-185 0 -335 150 -335 335v495h138v-495c0 -109 88 -197 197 -197c108 0 196 88 196 197v495h138z" />
    <glyph glyph-name="Uacute" unicode="&#xda;" horiz-adv-x="790" 
d="M540 979l-254 -79l-36 116l254 79zM728 800v-495c0 -185 -150 -335 -334 -335c-185 0 -335 150 -335 335v495h138v-495c0 -109 88 -197 197 -197c108 0 196 88 196 197v495h138z" />
    <glyph glyph-name="Ucircumflex" unicode="&#xdb;" horiz-adv-x="790" 
d="M548 1022l-46 -112l-106 42l-107 -42l-46 112l153 61zM728 800v-495c0 -185 -150 -335 -334 -335c-185 0 -335 150 -335 335v495h138v-495c0 -109 88 -197 197 -197c108 0 196 88 196 197v495h138z" />
    <glyph glyph-name="Udieresis" unicode="&#xdc;" horiz-adv-x="790" 
d="M355 900h-132v131h132v-131zM567 900h-131v131h131v-131zM728 800v-495c0 -185 -150 -335 -334 -335c-185 0 -335 150 -335 335v495h138v-495c0 -109 88 -197 197 -197c108 0 196 88 196 197v495h138z" />
    <glyph glyph-name="Ugrave" unicode="&#xd9;" horiz-adv-x="790" 
d="M540 1016l-36 -116l-254 79l36 116zM728 800v-495c0 -185 -150 -335 -334 -335c-185 0 -335 150 -335 335v495h138v-495c0 -109 88 -197 197 -197c108 0 196 88 196 197v495h138z" />
    <glyph glyph-name="Uhungarumlaut" unicode="&#x170;" horiz-adv-x="790" 
d="M396 1051l-175 -151l-79 92l175 150zM648 1052l-159 -150l-83 88l159 151zM728 800v-495c0 -185 -150 -335 -334 -335c-185 0 -335 150 -335 335v495h138v-495c0 -109 88 -197 197 -197c108 0 196 88 196 197v495h138z" />
    <glyph glyph-name="Umacron" unicode="&#x16a;" horiz-adv-x="790" 
d="M545 900h-300v121h300v-121zM728 800v-495c0 -185 -150 -335 -334 -335c-185 0 -335 150 -335 335v495h138v-495c0 -109 88 -197 197 -197c108 0 196 88 196 197v495h138z" />
    <glyph glyph-name="Uogonek" unicode="&#x172;" horiz-adv-x="790" 
d="M728 800v-495c0 -143 -90 -266 -216 -314c-100 -44 -121 -85 -121 -86l-1 -2c-14 -29 -9 -56 12 -70c18 -13 42 -8 54 9l81 -73c-29 -42 -76 -64 -123 -64c-29 0 -59 9 -85 27c-62 43 -101 156 -26 251c-141 39 -244 169 -244 322v495h138v-495c0 -109 88 -197 197 -197
c108 0 196 88 196 197v495h138z" />
    <glyph glyph-name="Uring" unicode="&#x16e;" horiz-adv-x="790" 
d="M395 1140c66 0 120 -53 120 -120c0 -66 -54 -120 -120 -120c-67 0 -120 54 -120 120c0 67 53 120 120 120zM395 1056c-20 0 -37 -16 -37 -36s17 -36 37 -36s36 16 36 36s-16 36 -36 36zM728 800v-495c0 -185 -150 -335 -334 -335c-185 0 -335 150 -335 335v495h138v-495
c0 -109 88 -197 197 -197c108 0 196 88 196 197v495h138z" />
    <glyph glyph-name="V" unicode="V" horiz-adv-x="750" 
d="M375 -30l-363 830h149l214 -478l215 478h148z" />
    <glyph glyph-name="W" unicode="W" horiz-adv-x="1120" 
d="M790 -30l-230 508l-232 -508l-313 830h148l175 -468l223 468l215 -468l181 468h148z" />
    <glyph glyph-name="Wacute" unicode="&#x1e82;" horiz-adv-x="1120" 
d="M705 979l-254 -79l-36 116l254 79zM790 -30l-230 508l-232 -508l-313 830h148l175 -468l223 468l215 -468l181 468h148z" />
    <glyph glyph-name="Wcircumflex" unicode="&#x174;" horiz-adv-x="1120" 
d="M713 1022l-46 -112l-106 42l-107 -42l-46 112l153 61zM790 -30l-230 508l-232 -508l-313 830h148l175 -468l223 468l215 -468l181 468h148z" />
    <glyph glyph-name="Wdieresis" unicode="&#x1e84;" horiz-adv-x="1120" 
d="M520 900h-132v131h132v-131zM732 900h-131v131h131v-131zM790 -30l-230 508l-232 -508l-313 830h148l175 -468l223 468l215 -468l181 468h148z" />
    <glyph glyph-name="Wgrave" unicode="&#x1e80;" horiz-adv-x="1120" 
d="M705 1016l-36 -116l-254 79l36 116zM790 -30l-230 508l-232 -508l-313 830h148l175 -468l223 468l215 -468l181 468h148z" />
    <glyph glyph-name="X" unicode="X" horiz-adv-x="772" 
d="M471 400l283 -400h-170l-198 280l-197 -280h-170l282 400l-283 400h171l197 -280l197 280h170z" />
    <glyph glyph-name="Y" unicode="Y" horiz-adv-x="750" 
d="M445 378v-378h-139v378l-298 422h170l197 -280l198 280h169z" />
    <glyph glyph-name="Yacute" unicode="&#xdd;" horiz-adv-x="750" 
d="M520 979l-254 -79l-36 116l254 79zM445 378v-378h-139v378l-298 422h170l197 -280l198 280h169z" />
    <glyph glyph-name="Ycircumflex" unicode="&#x176;" horiz-adv-x="750" 
d="M528 1022l-46 -112l-106 42l-107 -42l-46 112l153 61zM445 378v-378h-139v378l-298 422h170l197 -280l198 280h169z" />
    <glyph glyph-name="Ydieresis" unicode="&#x178;" horiz-adv-x="750" 
d="M335 900h-132v131h132v-131zM547 900h-131v131h131v-131zM445 378v-378h-139v378l-298 422h170l197 -280l198 280h169z" />
    <glyph glyph-name="Ygrave" unicode="&#x1ef2;" horiz-adv-x="750" 
d="M520 1016l-36 -116l-254 79l36 116zM445 378v-378h-139v378l-298 422h170l197 -280l198 280h169z" />
    <glyph glyph-name="Z" unicode="Z" horiz-adv-x="640" 
d="M255 139h348v-139h-583l365 661h-348v139h583z" />
    <glyph glyph-name="Zacute" unicode="&#x179;" horiz-adv-x="640" 
d="M465 979l-254 -79l-36 116l254 79zM255 139h348v-139h-583l365 661h-348v139h583z" />
    <glyph glyph-name="Zcaron" unicode="&#x17d;" horiz-adv-x="640" 
d="M473 971l-152 -61l-153 61l46 112l107 -42l106 42zM255 139h348v-139h-583l365 661h-348v139h583z" />
    <glyph glyph-name="Zdotaccent" unicode="&#x17b;" horiz-adv-x="640" 
d="M389 900h-138v138h138v-138zM255 139h348v-139h-583l365 661h-348v139h583z" />
    <glyph glyph-name="a" unicode="a" horiz-adv-x="645" 
d="M581 0h-138c-38 -21 -80 -30 -128 -30c-154 0 -280 125 -280 280s126 280 280 280c48 0 90 -9 128 -30h138v-500zM315 393c-78 0 -142 -64 -142 -143s64 -143 142 -143c87 0 132 74 132 143s-45 143 -132 143z" />
    <glyph glyph-name="aacute" unicode="&#xe1;" horiz-adv-x="645" 
d="M458 679l-254 -79l-36 116l254 79zM581 0h-138c-38 -21 -80 -30 -128 -30c-154 0 -280 125 -280 280s126 280 280 280c48 0 90 -9 128 -30h138v-500zM315 393c-78 0 -142 -64 -142 -143s64 -143 142 -143c87 0 132 74 132 143s-45 143 -132 143z" />
    <glyph glyph-name="abreve" unicode="&#x103;" horiz-adv-x="645" 
d="M376 774h121c0 -96 -77 -174 -173 -174s-174 78 -174 174h121c0 -29 24 -53 53 -53s52 24 52 53zM581 0h-138c-38 -21 -80 -30 -128 -30c-154 0 -280 125 -280 280s126 280 280 280c48 0 90 -9 128 -30h138v-500zM315 393c-78 0 -142 -64 -142 -143s64 -143 142 -143
c87 0 132 74 132 143s-45 143 -132 143z" />
    <glyph glyph-name="acircumflex" unicode="&#xe2;" horiz-adv-x="645" 
d="M476 722l-46 -112l-106 42l-107 -42l-46 112l153 61zM581 0h-138c-38 -21 -80 -30 -128 -30c-154 0 -280 125 -280 280s126 280 280 280c48 0 90 -9 128 -30h138v-500zM315 393c-78 0 -142 -64 -142 -143s64 -143 142 -143c87 0 132 74 132 143s-45 143 -132 143z" />
    <glyph glyph-name="adieresis" unicode="&#xe4;" horiz-adv-x="645" 
d="M283 600h-131v131h131v-131zM495 600h-131v131h131v-131zM581 0h-138c-38 -21 -80 -30 -128 -30c-154 0 -280 125 -280 280s126 280 280 280c48 0 90 -9 128 -30h138v-500zM315 393c-78 0 -142 -64 -142 -143s64 -143 142 -143c87 0 132 74 132 143s-45 143 -132 143z
" />
    <glyph glyph-name="agrave" unicode="&#xe0;" horiz-adv-x="645" 
d="M478 716l-36 -116l-254 79l36 116zM581 0h-138c-38 -21 -80 -30 -128 -30c-154 0 -280 125 -280 280s126 280 280 280c48 0 90 -9 128 -30h138v-500zM315 393c-78 0 -142 -64 -142 -143s64 -143 142 -143c87 0 132 74 132 143s-45 143 -132 143z" />
    <glyph glyph-name="amacron" unicode="&#x101;" horiz-adv-x="655" 
d="M483 600h-300v121h300v-121zM581 0h-138c-38 -21 -80 -30 -128 -30c-154 0 -280 125 -280 280s126 280 280 280c48 0 90 -9 128 -30h138v-500zM315 393c-78 0 -142 -64 -142 -143s64 -143 142 -143c87 0 132 74 132 143s-45 143 -132 143z" />
    <glyph glyph-name="aogonek" unicode="&#x105;" horiz-adv-x="645" 
d="M505 -158l81 -73c-29 -42 -76 -64 -123 -64c-29 0 -59 9 -85 27c-60 42 -98 147 -35 239c-9 -1 -18 -1 -28 -1c-154 0 -280 125 -280 280s126 280 280 280c48 0 90 -9 128 -30h138v-500c-116 -46 -141 -94 -141 -95l-1 -2c-14 -29 -9 -56 12 -70c18 -13 42 -8 54 9z
M173 250c0 -79 64 -143 142 -143c87 0 132 74 132 143s-45 143 -132 143c-78 0 -142 -64 -142 -143z" />
    <glyph glyph-name="aring" unicode="&#xe5;" horiz-adv-x="645" 
d="M323 840c66 0 120 -53 120 -120c0 -66 -54 -120 -120 -120c-67 0 -120 54 -120 120c0 67 53 120 120 120zM323 756c-20 0 -37 -16 -37 -36s17 -36 37 -36s36 16 36 36s-16 36 -36 36zM581 0h-138c-38 -21 -80 -30 -128 -30c-154 0 -280 125 -280 280s126 280 280 280
c48 0 90 -9 128 -30h138v-500zM315 393c-78 0 -142 -64 -142 -143s64 -143 142 -143c87 0 132 74 132 143s-45 143 -132 143z" />
    <glyph glyph-name="aringacute" unicode="&#x1fb;" horiz-adv-x="645" 
d="M468 979l-254 -79l-36 116l254 79zM323 840c66 0 120 -53 120 -120c0 -66 -54 -120 -120 -120c-67 0 -120 54 -120 120c0 67 53 120 120 120zM323 756c-20 0 -37 -16 -37 -36s17 -36 37 -36s36 16 36 36s-16 36 -36 36zM581 0h-138c-38 -21 -80 -30 -128 -30
c-154 0 -280 125 -280 280s126 280 280 280c48 0 90 -9 128 -30h138v-500zM315 393c-78 0 -142 -64 -142 -143s64 -143 142 -143c87 0 132 74 132 143s-45 143 -132 143z" />
    <glyph glyph-name="atilde" unicode="&#xe3;" horiz-adv-x="645" 
d="M191 614l-108 55c26 51 72 87 128 98c52 11 106 -1 149 -33c14 -11 33 -15 51 -11c19 4 35 16 44 34l108 -55c-25 -51 -72 -87 -128 -98c-12 -3 -25 -4 -37 -4c-40 0 -79 13 -111 37c-15 11 -33 15 -51 11c-20 -4 -36 -16 -45 -34zM581 0h-138c-38 -21 -80 -30 -128 -30
c-154 0 -280 125 -280 280s126 280 280 280c48 0 90 -9 128 -30h138v-500zM315 393c-78 0 -142 -64 -142 -143s64 -143 142 -143c87 0 132 74 132 143s-45 143 -132 143z" />
    <glyph glyph-name="ae" unicode="&#xe6;" horiz-adv-x="910" 
d="M122 353l-80 106c50 44 124 71 193 71c73 0 146 -18 198 -82c51 50 117 82 194 82c152 0 260 -127 260 -281c0 -24 -2 -42 -6 -59h-374c17 -44 67 -83 120 -83c25 0 43 6 60 17l124 -74c-44 -48 -111 -80 -184 -80s-137 29 -187 76c-21 -25 -40 -38 -40 -38
c-37 -25 -91 -38 -160 -38c-70 0 -126 20 -164 62c-45 50 -47 107 -47 118c0 86 56 185 215 185c56 0 74 -7 109 -21c-17 53 -53 79 -118 79c-41 0 -86 -16 -113 -40zM506 307h230c-13 45 -54 86 -109 86c-63 0 -105 -38 -121 -86zM356 154v5c-4 10 -14 39 -110 39
c-31 0 -82 -6 -83 -46c1 -12 10 -45 79 -45c103 0 113 34 114 47z" />
    <glyph glyph-name="aeacute" unicode="&#x1fd;" horiz-adv-x="910" 
d="M578 679l-254 -79l-36 116l254 79zM122 353l-80 106c50 44 124 71 193 71c73 0 146 -18 198 -82c51 50 117 82 194 82c152 0 260 -127 260 -281c0 -24 -2 -42 -6 -59h-374c17 -44 67 -83 120 -83c25 0 43 6 60 17l124 -74c-44 -48 -111 -80 -184 -80s-137 29 -187 76
c-21 -25 -40 -38 -40 -38c-37 -25 -91 -38 -160 -38c-70 0 -126 20 -164 62c-45 50 -47 107 -47 118c0 86 56 185 215 185c56 0 74 -7 109 -21c-17 53 -53 79 -118 79c-41 0 -86 -16 -113 -40zM506 307h230c-13 45 -54 86 -109 86c-63 0 -105 -38 -121 -86zM356 154v5
c-4 10 -14 39 -110 39c-31 0 -82 -6 -83 -46c1 -12 10 -45 79 -45c103 0 113 34 114 47z" />
    <glyph glyph-name="b" unicode="b" horiz-adv-x="645" 
d="M198 800v-303c38 22 83 33 132 33c155 0 283 -123 283 -278s-128 -282 -283 -282c-49 0 -91 8 -132 30h-139v800h139zM330 396c-88 0 -138 -72 -138 -144c0 -66 50 -144 138 -144c78 0 144 67 144 144c0 78 -66 144 -144 144z" />
    <glyph glyph-name="c" unicode="c" horiz-adv-x="525" 
d="M411 150l98 -98c-51 -51 -121 -82 -198 -82c-155 0 -280 125 -280 279c0 155 125 281 280 281c76 0 146 -31 197 -81l-98 -98c-25 26 -61 42 -99 42c-79 0 -143 -65 -143 -144c0 -78 64 -142 143 -142c39 0 75 17 100 43z" />
    <glyph glyph-name="cacute" unicode="&#x107;" horiz-adv-x="525" 
d="M408 679l-254 -79l-36 116l254 79zM411 150l98 -98c-51 -51 -121 -82 -198 -82c-155 0 -280 125 -280 279c0 155 125 281 280 281c76 0 146 -31 197 -81l-98 -98c-25 26 -61 42 -99 42c-79 0 -143 -65 -143 -144c0 -78 64 -142 143 -142c39 0 75 17 100 43z" />
    <glyph glyph-name="ccaron" unicode="&#x10d;" horiz-adv-x="525" 
d="M446 671l-152 -61l-153 61l46 112l107 -42l106 42zM411 150l98 -98c-51 -51 -121 -82 -198 -82c-155 0 -280 125 -280 279c0 155 125 281 280 281c76 0 146 -31 197 -81l-98 -98c-25 26 -61 42 -99 42c-79 0 -143 -65 -143 -144c0 -78 64 -142 143 -142
c39 0 75 17 100 43z" />
    <glyph glyph-name="ccedilla" unicode="&#xe7;" horiz-adv-x="525" 
d="M346 -28v-25c51 -21 87 -72 87 -131c0 -79 -64 -143 -142 -143c-79 0 -143 64 -143 143h110c0 -18 15 -33 33 -33s32 15 32 33s-14 32 -32 32h-55v132c-118 33 -205 141 -205 269c0 155 125 281 280 281c76 0 146 -31 197 -81l-98 -98c-25 26 -61 42 -99 42
c-79 0 -143 -65 -143 -144c0 -78 64 -142 143 -142c39 0 75 17 100 43l98 -98c-43 -43 -100 -72 -163 -80z" />
    <glyph glyph-name="cdotaccent" unicode="&#x10b;" horiz-adv-x="525" 
d="M369 600h-138v138h138v-138zM411 150l98 -98c-51 -51 -121 -82 -198 -82c-155 0 -280 125 -280 279c0 155 125 281 280 281c76 0 146 -31 197 -81l-98 -98c-25 26 -61 42 -99 42c-79 0 -143 -65 -143 -144c0 -78 64 -142 143 -142c39 0 75 17 100 43z" />
    <glyph glyph-name="d" unicode="d" horiz-adv-x="640" 
d="M579 0h-138c-38 -21 -81 -30 -129 -30c-156 0 -283 126 -283 282s127 278 283 278c48 0 91 -11 129 -32v302h138v-800zM312 396c-80 0 -144 -64 -144 -144c0 -79 64 -144 144 -144c88 0 133 75 133 144c0 70 -45 144 -133 144z" />
    <glyph glyph-name="eth" unicode="&#xf0;" horiz-adv-x="625" 
d="M87 672l53 128c29 -12 60 -26 91 -43l18 35l89 -45l-21 -41c96 -63 186 -149 236 -265c39 -89 41 -161 40 -186v-3c0 -156 -126 -282 -282 -282s-283 126 -283 282s127 283 283 283h3c-18 16 -38 32 -60 47l-14 -28l-89 45l18 35c-26 13 -53 26 -82 38zM311 396
c-80 0 -144 -64 -144 -144c0 -79 64 -144 144 -144c38 0 75 15 102 43c27 27 42 63 42 101c0 80 -65 144 -144 144z" />
    <glyph glyph-name="dcaron" unicode="&#x10f;" horiz-adv-x="820" 
d="M579 0h-138c-38 -21 -81 -30 -129 -30c-156 0 -283 126 -283 282s127 278 283 278c48 0 91 -11 129 -32v302h138v-800zM312 396c-80 0 -144 -64 -144 -144c0 -79 64 -144 144 -144c88 0 133 75 133 144c0 70 -45 144 -133 144zM780 800v-138c0 -45 -14 -91 -57 -126
l-66 64c24 16 30 32 30 62h-45v138h138z" />
    <glyph glyph-name="dcroat" unicode="&#x111;" horiz-adv-x="655" 
d="M633 600h-54v-600h-138c-38 -21 -81 -30 -129 -30c-156 0 -283 126 -283 282s127 278 283 278c48 0 91 -11 129 -32v102h-119v121h119v79h138v-79h54v-121zM312 108c88 0 133 75 133 144c0 70 -45 144 -133 144c-80 0 -144 -64 -144 -144c0 -79 64 -144 144 -144z" />
    <glyph glyph-name="e" unicode="e" horiz-adv-x="590" 
d="M367 124l123 -70c-46 -52 -110 -84 -186 -84c-154 0 -279 125 -279 279s125 281 279 281s263 -127 263 -281c0 -14 -2 -42 -6 -59h-381c19 -43 71 -83 124 -83c25 0 45 6 63 17zM179 307h237c-16 52 -57 86 -112 86c-62 0 -106 -30 -125 -86z" />
    <glyph glyph-name="eacute" unicode="&#xe9;" horiz-adv-x="590" 
d="M430 679l-254 -79l-36 116l254 79zM367 124l123 -70c-46 -52 -110 -84 -186 -84c-154 0 -279 125 -279 279s125 281 279 281s263 -127 263 -281c0 -14 -2 -42 -6 -59h-381c19 -43 71 -83 124 -83c25 0 45 6 63 17zM179 307h237c-16 52 -57 86 -112 86
c-62 0 -106 -30 -125 -86z" />
    <glyph glyph-name="ecaron" unicode="&#x11b;" horiz-adv-x="590" 
d="M458 671l-152 -61l-153 61l46 112l107 -42l106 42zM367 124l123 -70c-46 -52 -110 -84 -186 -84c-154 0 -279 125 -279 279s125 281 279 281s263 -127 263 -281c0 -14 -2 -42 -6 -59h-381c19 -43 71 -83 124 -83c25 0 45 6 63 17zM179 307h237c-16 52 -57 86 -112 86
c-62 0 -106 -30 -125 -86z" />
    <glyph glyph-name="ecircumflex" unicode="&#xea;" horiz-adv-x="590" 
d="M458 722l-46 -112l-106 42l-107 -42l-46 112l153 61zM367 124l123 -70c-46 -52 -110 -84 -186 -84c-154 0 -279 125 -279 279s125 281 279 281s263 -127 263 -281c0 -14 -2 -42 -6 -59h-381c19 -43 71 -83 124 -83c25 0 45 6 63 17zM179 307h237c-16 52 -57 86 -112 86
c-62 0 -106 -30 -125 -86z" />
    <glyph glyph-name="edieresis" unicode="&#xeb;" horiz-adv-x="590" 
d="M255 600h-131v131h131v-131zM467 600h-131v131h131v-131zM367 124l123 -70c-46 -52 -110 -84 -186 -84c-154 0 -279 125 -279 279s125 281 279 281s263 -127 263 -281c0 -14 -2 -42 -6 -59h-381c19 -43 71 -83 124 -83c25 0 45 6 63 17zM179 307h237
c-16 52 -57 86 -112 86c-62 0 -106 -30 -125 -86z" />
    <glyph glyph-name="edotaccent" unicode="&#x117;" horiz-adv-x="590" 
d="M364 600h-138v138h138v-138zM367 124l123 -70c-46 -52 -110 -84 -186 -84c-154 0 -279 125 -279 279s125 281 279 281s263 -127 263 -281c0 -14 -2 -42 -6 -59h-381c19 -43 71 -83 124 -83c25 0 45 6 63 17zM179 307h237c-16 52 -57 86 -112 86c-62 0 -106 -30 -125 -86z
" />
    <glyph glyph-name="egrave" unicode="&#xe8;" horiz-adv-x="590" 
d="M450 716l-36 -116l-254 79l36 116zM367 124l123 -70c-46 -52 -110 -84 -186 -84c-154 0 -279 125 -279 279s125 281 279 281s263 -127 263 -281c0 -14 -2 -42 -6 -59h-381c19 -43 71 -83 124 -83c25 0 45 6 63 17zM179 307h237c-16 52 -57 86 -112 86
c-62 0 -106 -30 -125 -86z" />
    <glyph glyph-name="emacron" unicode="&#x113;" horiz-adv-x="590" 
d="M445 600h-300v121h300v-121zM367 124l123 -70c-46 -52 -110 -84 -186 -84c-154 0 -279 125 -279 279s125 281 279 281s263 -127 263 -281c0 -14 -2 -42 -6 -59h-381c19 -43 71 -83 124 -83c25 0 45 6 63 17zM179 307h237c-16 52 -57 86 -112 86c-62 0 -106 -30 -125 -86z
" />
    <glyph glyph-name="eogonek" unicode="&#x119;" horiz-adv-x="590" 
d="M354 -158l81 -73c-29 -42 -76 -64 -123 -64c-29 0 -59 9 -85 27c-64 44 -103 161 -22 256c-105 40 -180 142 -180 261c0 154 125 281 279 281s263 -127 263 -281c0 -14 -2 -42 -6 -59h-381c19 -43 71 -83 124 -83c25 0 45 6 63 17l123 -70c-27 -30 -60 -54 -98 -68
c-92 -44 -103 -80 -103 -81l-1 -2c-14 -29 -9 -56 12 -70c18 -13 42 -8 54 9zM179 307h237c-16 52 -57 86 -112 86c-62 0 -106 -30 -125 -86z" />
    <glyph glyph-name="f" unicode="f" horiz-adv-x="400" 
d="M93 500v95c0 130 105 235 235 235c42 0 83 -11 118 -32c8 -5 15 -9 23 -15l-83 -111c-2 1 -3 3 -5 4c-16 10 -34 16 -53 16c-54 0 -97 -44 -97 -97v-95h110v-139h-110v-361h-138v361h-63v139h63z" />
    <glyph glyph-name="g" unicode="g" horiz-adv-x="635" 
d="M438 -15v19c-38 -21 -81 -34 -129 -34c-155 0 -281 124 -281 279c0 156 126 281 281 281c49 0 90 -8 131 -30h136v-515c0 -172 -140 -315 -312 -315c-84 0 -162 32 -221 91l97 98c32 -34 77 -52 124 -52c95 0 174 82 174 178zM309 392c-78 0 -143 -64 -143 -143
c0 -80 65 -144 143 -144c88 0 133 75 133 144c0 70 -45 143 -133 143z" />
    <glyph glyph-name="gbreve" unicode="&#x11f;" horiz-adv-x="635" 
d="M366 774h121c0 -96 -77 -174 -173 -174s-174 78 -174 174h121c0 -29 24 -53 53 -53s52 24 52 53zM438 -15v19c-38 -21 -81 -34 -129 -34c-155 0 -281 124 -281 279c0 156 126 281 281 281c49 0 90 -8 131 -30h136v-515c0 -172 -140 -315 -312 -315c-84 0 -162 32 -221 91
l97 98c32 -34 77 -52 124 -52c95 0 174 82 174 178zM309 392c-78 0 -143 -64 -143 -143c0 -80 65 -144 143 -144c88 0 133 75 133 144c0 70 -45 143 -133 143z" />
    <glyph glyph-name="gcommaaccent" unicode="&#x123;" horiz-adv-x="635" 
d="M438 -15v19c-38 -21 -81 -34 -129 -34c-155 0 -281 124 -281 279c0 156 126 281 281 281c49 0 90 -8 131 -30h136v-515c0 -172 -140 -315 -312 -315c-84 0 -162 32 -221 91l97 98c32 -34 77 -52 124 -52c95 0 174 82 174 178zM309 392c-78 0 -143 -64 -143 -143
c0 -80 65 -144 143 -144c88 0 133 75 133 144c0 70 -45 143 -133 143zM251 600v138c0 45 14 91 57 126l66 -64c-24 -16 -30 -32 -30 -62h45v-138h-138z" />
    <glyph glyph-name="gdotaccent" unicode="&#x121;" horiz-adv-x="635" 
d="M389 600h-138v138h138v-138zM438 -15v19c-38 -21 -81 -34 -129 -34c-155 0 -281 124 -281 279c0 156 126 281 281 281c49 0 90 -8 131 -30h136v-515c0 -172 -140 -315 -312 -315c-84 0 -162 32 -221 91l97 98c32 -34 77 -52 124 -52c95 0 174 82 174 178zM309 392
c-78 0 -143 -64 -143 -143c0 -80 65 -144 143 -144c88 0 133 75 133 144c0 70 -45 143 -133 143z" />
    <glyph glyph-name="h" unicode="h" horiz-adv-x="625" 
d="M200 800v-296c35 17 75 26 118 26c142 0 257 -115 257 -256v-274h-139v274c0 65 -53 117 -118 117c-75 0 -118 -47 -118 -129v-262h-139v800h139z" />
    <glyph glyph-name="hbar" unicode="&#x127;" horiz-adv-x="625" 
d="M200 600v-96c35 17 75 26 118 26c142 0 257 -115 257 -256v-274h-139v274c0 65 -53 117 -118 117c-75 0 -118 -47 -118 -129v-262h-139v600h-40v121h40v79h139v-79h120v-121h-120z" />
    <glyph glyph-name="i" unicode="i" horiz-adv-x="265" 
d="M202 656h-139v144h139v-144zM202 0h-139v500h139v-500z" />
    <glyph glyph-name="dotlessi" unicode="&#x131;" horiz-adv-x="265" 
d="M202 0h-139v500h139v-500z" />
    <glyph glyph-name="iacute" unicode="&#xed;" horiz-adv-x="265" 
d="M277 679l-254 -79l-36 116l254 79zM202 0h-139v500h139v-500z" />
    <glyph glyph-name="icircumflex" unicode="&#xee;" horiz-adv-x="265" 
d="M286 722l-46 -112l-106 42l-107 -42l-46 112l153 61zM202 0h-139v500h139v-500z" />
    <glyph glyph-name="idieresis" unicode="&#xef;" horiz-adv-x="265" 
d="M93 600h-131v131h131v-131zM305 600h-131v131h131v-131zM202 0h-139v500h139v-500z" />
    <glyph glyph-name="igrave" unicode="&#xec;" horiz-adv-x="265" 
d="M278 716l-36 -116l-254 79l36 116zM202 0h-139v500h139v-500z" />
    <glyph glyph-name="ij" unicode="&#x133;" horiz-adv-x="528" 
d="M202 656h-139v144h139v-144zM202 0h-139v500h139v-500zM468 656h-139v144h139v-144zM468 501v-546c0 -158 -128 -285 -285 -285c-37 0 -73 6 -110 23l50 129c18 -9 39 -14 60 -14c81 0 146 66 146 147v546h139z" />
    <glyph glyph-name="imacron" unicode="&#x12b;" horiz-adv-x="265" 
d="M283 600h-300v121h300v-121zM202 0h-139v500h139v-500z" />
    <glyph glyph-name="iogonek" unicode="&#x12f;" horiz-adv-x="265" 
d="M202 656h-139v144h139v-144zM126 -158l81 -73c-29 -42 -76 -64 -123 -64c-29 0 -59 9 -85 27c-66 46 -106 170 -12 267c9 9 32 31 76 57v444h139v-500c-116 -46 -141 -94 -141 -95l-1 -2c-14 -29 -9 -56 12 -70c18 -13 42 -8 54 9z" />
    <glyph glyph-name="j" unicode="j" horiz-adv-x="263" 
d="M203 656h-139v144h139v-144zM203 501v-546c0 -158 -128 -285 -285 -285c-37 0 -73 6 -110 23l50 129c18 -9 39 -14 60 -14c81 0 146 66 146 147v546h139z" />
    <glyph glyph-name="k" unicode="k" horiz-adv-x="575" 
d="M199 363l157 137h208l-280 -247l280 -253h-208l-157 142v-142h-138v800h138v-437z" />
    <glyph glyph-name="kcommaaccent" unicode="&#x137;" horiz-adv-x="575" 
d="M199 363l157 137h208l-280 -247l280 -253h-208l-157 142v-142h-138v800h138v-437zM357 -90v-138c0 -45 -14 -91 -57 -126l-66 64c24 16 30 32 30 62h-45v138h138z" />
    <glyph glyph-name="l" unicode="l" horiz-adv-x="265" 
d="M202 0h-139v800h139v-800z" />
    <glyph glyph-name="lacute" unicode="&#x13a;" horiz-adv-x="265" 
d="M277 979l-254 -79l-36 116l254 79zM202 0h-139v800h139v-800z" />
    <glyph glyph-name="lcaron" unicode="&#x13e;" horiz-adv-x="490" 
d="M202 0h-139v800h139v-800zM429 800v-138c0 -45 -14 -91 -57 -126l-66 64c24 16 30 32 30 62h-45v138h138z" />
    <glyph glyph-name="lcommaaccent" unicode="&#x13c;" horiz-adv-x="265" 
d="M202 0h-139v800h139v-800zM201 -90v-138c0 -45 -14 -91 -57 -126l-66 64c24 16 30 32 30 62h-45v138h138z" />
    <glyph glyph-name="ldot" unicode="&#x140;" horiz-adv-x="490" 
d="M202 0h-139v800h139v-800zM425 324h-138v138h138v-138z" />
    <glyph glyph-name="lslash" unicode="&#x142;" horiz-adv-x="265" 
d="M202 365v-365h-139v323l-67 -21l-36 116l103 32v350h139v-308l68 21l36 -116z" />
    <glyph glyph-name="m" unicode="m" horiz-adv-x="970" 
d="M61 500h132c36 22 78 30 122 30c72 0 138 -33 182 -77c44 44 110 77 182 77c144 0 254 -116 254 -259v-271h-138v271c0 66 -50 121 -116 121s-116 -55 -116 -121v-271h-138v271c0 66 -44 121 -110 121s-116 -50 -116 -116v-276h-138v500z" />
    <glyph glyph-name="n" unicode="n" horiz-adv-x="615" 
d="M61 500h138c37 17 74 30 117 30c141 0 255 -114 255 -255v-275h-138v275c0 64 -52 117 -117 117c-74 0 -117 -47 -117 -128v-264h-138v500z" />
    <glyph glyph-name="nacute" unicode="&#x144;" horiz-adv-x="615" 
d="M442 679l-254 -79l-36 116l254 79zM61 500h138c37 17 74 30 117 30c141 0 255 -114 255 -255v-275h-138v275c0 64 -52 117 -117 117c-74 0 -117 -47 -117 -128v-264h-138v500z" />
    <glyph glyph-name="ncaron" unicode="&#x148;" horiz-adv-x="615" 
d="M460 671l-152 -61l-153 61l46 112l107 -42l106 42zM61 500h138c37 17 74 30 117 30c141 0 255 -114 255 -255v-275h-138v275c0 64 -52 117 -117 117c-74 0 -117 -47 -117 -128v-264h-138v500z" />
    <glyph glyph-name="ncommaaccent" unicode="&#x146;" horiz-adv-x="615" 
d="M61 500h138c37 17 74 30 117 30c141 0 255 -114 255 -255v-275h-138v275c0 64 -52 117 -117 117c-74 0 -117 -47 -117 -128v-264h-138v500zM384 -90v-138c0 -45 -14 -91 -57 -126l-66 64c24 16 30 32 30 62h-45v138h138z" />
    <glyph glyph-name="eng" unicode="&#x14b;" horiz-adv-x="615" 
d="M61 500h138c37 17 74 30 117 30c141 0 255 -114 255 -255v-321c0 -157 -127 -284 -284 -284c-47 0 -92 11 -132 33l60 125c22 -14 45 -20 72 -20c80 0 146 66 146 146v321c0 64 -52 117 -117 117c-74 0 -117 -47 -117 -128v-264h-138v500z" />
    <glyph glyph-name="ntilde" unicode="&#xf1;" horiz-adv-x="615" 
d="M176 614l-108 55c26 51 72 87 128 98c52 11 106 -1 149 -33c14 -11 33 -15 51 -11c19 4 35 16 44 34l108 -55c-25 -51 -72 -87 -128 -98c-12 -3 -25 -4 -37 -4c-40 0 -79 13 -111 37c-15 11 -33 15 -51 11c-20 -4 -36 -16 -45 -34zM61 500h138c37 17 74 30 117 30
c141 0 255 -114 255 -255v-275h-138v275c0 64 -52 117 -117 117c-74 0 -117 -47 -117 -128v-264h-138v500z" />
    <glyph glyph-name="o" unicode="o" horiz-adv-x="620" 
d="M310 530c155 0 280 -125 280 -280s-125 -280 -280 -280s-280 125 -280 280s125 280 280 280zM310 393c-79 0 -143 -64 -143 -143s64 -143 143 -143s143 64 143 143s-64 143 -143 143z" />
    <glyph glyph-name="oacute" unicode="&#xf3;" horiz-adv-x="620" 
d="M445 679l-254 -79l-36 116l254 79zM310 530c155 0 280 -125 280 -280s-125 -280 -280 -280s-280 125 -280 280s125 280 280 280zM310 393c-79 0 -143 -64 -143 -143s64 -143 143 -143s143 64 143 143s-64 143 -143 143z" />
    <glyph glyph-name="ocircumflex" unicode="&#xf4;" horiz-adv-x="620" 
d="M463 722l-46 -112l-106 42l-107 -42l-46 112l153 61zM310 530c155 0 280 -125 280 -280s-125 -280 -280 -280s-280 125 -280 280s125 280 280 280zM310 393c-79 0 -143 -64 -143 -143s64 -143 143 -143s143 64 143 143s-64 143 -143 143z" />
    <glyph glyph-name="odieresis" unicode="&#xf6;" horiz-adv-x="620" 
d="M270 600h-131v131h131v-131zM482 600h-131v131h131v-131zM310 530c155 0 280 -125 280 -280s-125 -280 -280 -280s-280 125 -280 280s125 280 280 280zM310 393c-79 0 -143 -64 -143 -143s64 -143 143 -143s143 64 143 143s-64 143 -143 143z" />
    <glyph glyph-name="ograve" unicode="&#xf2;" horiz-adv-x="620" 
d="M465 716l-36 -116l-254 79l36 116zM310 530c155 0 280 -125 280 -280s-125 -280 -280 -280s-280 125 -280 280s125 280 280 280zM310 393c-79 0 -143 -64 -143 -143s64 -143 143 -143s143 64 143 143s-64 143 -143 143z" />
    <glyph glyph-name="ohungarumlaut" unicode="&#x151;" horiz-adv-x="620" 
d="M321 751l-175 -151l-79 92l175 150zM573 752l-159 -150l-83 88l159 151zM310 530c155 0 280 -125 280 -280s-125 -280 -280 -280s-280 125 -280 280s125 280 280 280zM310 393c-79 0 -143 -64 -143 -143s64 -143 143 -143s143 64 143 143s-64 143 -143 143z" />
    <glyph glyph-name="omacron" unicode="&#x14d;" horiz-adv-x="620" 
d="M460 600h-300v121h300v-121zM310 530c155 0 280 -125 280 -280s-125 -280 -280 -280s-280 125 -280 280s125 280 280 280zM310 393c-79 0 -143 -64 -143 -143s64 -143 143 -143s143 64 143 143s-64 143 -143 143z" />
    <glyph glyph-name="oslash" unicode="&#xf8;" horiz-adv-x="620" 
d="M583 470l-50 -50c36 -47 57 -106 57 -170c0 -155 -125 -280 -280 -280c-63 0 -121 21 -167 55l-51 -51l-55 56l50 51c-36 47 -57 105 -57 169c0 155 125 280 280 280c63 0 120 -20 167 -55l49 50zM185 180l193 196c-20 11 -43 17 -68 17c-79 0 -143 -64 -143 -143
c0 -25 7 -49 18 -70zM435 320l-194 -195c21 -12 44 -18 69 -18c79 0 143 64 143 143c0 25 -7 49 -18 70z" />
    <glyph glyph-name="otilde" unicode="&#xf5;" horiz-adv-x="620" 
d="M178 614l-108 55c26 51 72 87 128 98c52 11 106 -1 149 -33c14 -11 33 -15 51 -11c19 4 35 16 44 34l108 -55c-25 -51 -72 -87 -128 -98c-12 -3 -25 -4 -37 -4c-40 0 -79 13 -111 37c-15 11 -33 15 -51 11c-20 -4 -36 -16 -45 -34zM310 530c155 0 280 -125 280 -280
s-125 -280 -280 -280s-280 125 -280 280s125 280 280 280zM310 393c-79 0 -143 -64 -143 -143s64 -143 143 -143s143 64 143 143s-64 143 -143 143z" />
    <glyph glyph-name="oe" unicode="&#x153;" horiz-adv-x="1010" 
d="M788 124l123 -70c-46 -52 -110 -84 -186 -84c-84 0 -159 37 -211 96c-51 -59 -126 -96 -211 -96c-155 0 -280 125 -280 280s125 280 280 280c85 0 161 -37 212 -97c51 59 126 97 210 97c154 0 263 -127 263 -281c0 -14 -2 -42 -6 -59h-381c19 -43 71 -83 124 -83
c25 0 45 6 63 17zM303 107c79 0 143 64 143 143s-64 143 -143 143s-143 -64 -143 -143s64 -143 143 -143zM600 307h237c-16 52 -57 86 -112 86c-62 0 -106 -30 -125 -86z" />
    <glyph glyph-name="p" unicode="p" horiz-adv-x="645" 
d="M60 500h138c41 21 81 30 129 30c155 0 282 -126 282 -282c0 -155 -127 -278 -282 -278c-48 0 -91 10 -129 32v-332h-138v830zM327 392c-87 0 -133 -74 -133 -144c0 -68 46 -141 133 -141c80 0 144 62 144 141c0 80 -64 144 -144 144z" />
    <glyph glyph-name="thorn" unicode="&#xfe;" horiz-adv-x="645" 
d="M198 800v-300c41 21 81 30 129 30c155 0 282 -126 282 -282c0 -155 -127 -278 -282 -278c-48 0 -91 10 -129 32v-332h-138v1130h138zM327 107c80 0 144 62 144 141c0 80 -64 144 -144 144c-87 0 -133 -74 -133 -144c0 -68 46 -141 133 -141z" />
    <glyph glyph-name="q" unicode="q" horiz-adv-x="645" 
d="M447 -330v332c-38 -22 -81 -32 -129 -32c-155 0 -282 123 -282 278c0 156 127 282 282 282c48 0 88 -9 129 -30h138v-830h-138zM318 392c-80 0 -144 -64 -144 -144c0 -79 64 -141 144 -141c87 0 133 73 133 141c0 70 -46 144 -133 144z" />
    <glyph glyph-name="r" unicode="r" horiz-adv-x="407" 
d="M61 500h101c29 19 62 30 102 30c47 0 93 -17 130 -47l-89 -106c-8 6 -22 14 -41 14c-36 0 -65 -28 -65 -64v-327h-138v500z" />
    <glyph glyph-name="racute" unicode="&#x155;" horiz-adv-x="407" 
d="M350 679l-254 -79l-36 116l254 79zM61 500h101c29 19 62 30 102 30c47 0 93 -17 130 -47l-89 -106c-8 6 -22 14 -41 14c-36 0 -65 -28 -65 -64v-327h-138v500z" />
    <glyph glyph-name="rcaron" unicode="&#x159;" horiz-adv-x="407" 
d="M368 671l-152 -61l-153 61l46 112l107 -42l106 42zM61 499h101c28 19 62 31 102 31c47 0 93 -17 130 -47l-89 -106c-8 6 -22 14 -41 14c-36 0 -65 -28 -65 -64v-327h-138v499z" />
    <glyph glyph-name="rcommaaccent" unicode="&#x157;" horiz-adv-x="407" 
d="M61 499h101c28 19 62 31 102 31c47 0 93 -17 130 -47l-89 -106c-8 6 -22 14 -41 14c-36 0 -65 -28 -65 -64v-327h-138v499zM282 -90v-138c0 -45 -14 -91 -57 -126l-66 64c24 16 30 32 30 62h-45v138h138z" />
    <glyph glyph-name="s" unicode="s" horiz-adv-x="435" 
d="M200 209c-43 12 -88 22 -119 70c-17 26 -25 57 -25 88c0 90 73 163 163 163c79 0 145 -57 160 -132l-130 -27c-6 15 -16 27 -33 27c-14 0 -31 -11 -31 -29c0 -9 5 -20 13 -25c35 -22 130 -10 178 -86c19 -30 30 -65 30 -101c0 -103 -84 -187 -187 -187
c-93 0 -171 69 -185 158l130 27c5 -28 22 -48 55 -48c27 0 49 23 49 50c0 10 -1 17 -6 25c-8 13 -20 18 -62 27z" />
    <glyph glyph-name="sacute" unicode="&#x15b;" horiz-adv-x="435" 
d="M355 679l-254 -79l-36 116l254 79zM200 209c-43 12 -88 22 -119 70c-17 26 -25 57 -25 88c0 90 73 163 163 163c79 0 145 -57 160 -132l-130 -27c-6 15 -16 27 -33 27c-14 0 -31 -11 -31 -29c0 -9 5 -20 13 -25c35 -22 130 -10 178 -86c19 -30 30 -65 30 -101
c0 -103 -84 -187 -187 -187c-93 0 -171 69 -185 158l130 27c5 -28 22 -48 55 -48c27 0 49 23 49 50c0 10 -1 17 -6 25c-8 13 -20 18 -62 27z" />
    <glyph glyph-name="scaron" unicode="&#x161;" horiz-adv-x="435" 
d="M370 671l-152 -61l-153 61l46 112l107 -42l106 42zM200 209c-43 12 -88 22 -119 70c-17 26 -25 57 -25 88c0 90 73 163 163 163c79 0 145 -57 160 -132l-130 -27c-6 15 -16 27 -33 27c-14 0 -31 -11 -31 -29c0 -9 5 -20 13 -25c35 -22 130 -10 178 -86
c19 -30 30 -65 30 -101c0 -103 -84 -187 -187 -187c-93 0 -171 69 -185 158l130 27c5 -28 22 -48 55 -48c27 0 49 23 49 50c0 10 -1 17 -6 25c-8 13 -20 18 -62 27z" />
    <glyph glyph-name="scedilla" unicode="&#x15f;" horiz-adv-x="435" 
d="M270 -23v-30c51 -21 87 -72 87 -131c0 -79 -64 -143 -142 -143c-79 0 -143 64 -143 143h110c0 -18 15 -33 33 -33s32 15 32 33s-14 32 -32 32h-55v132c-65 22 -115 79 -126 148l130 27c5 -28 22 -48 55 -48c27 0 49 23 49 50c0 10 -1 17 -6 25c-8 13 -20 18 -62 27
c-43 12 -88 22 -119 70c-17 26 -25 57 -25 88c0 90 73 163 163 163c79 0 145 -57 160 -132l-130 -27c-6 15 -16 27 -33 27c-14 0 -31 -11 -31 -29c0 -9 5 -20 13 -25c35 -22 130 -10 178 -86c19 -30 30 -65 30 -101c0 -85 -58 -158 -136 -180z" />
    <glyph glyph-name="scommaaccent" unicode="&#x219;" horiz-adv-x="435" 
d="M200 209c-43 12 -88 22 -119 70c-17 26 -25 57 -25 88c0 90 73 163 163 163c79 0 145 -57 160 -132l-130 -27c-6 15 -16 27 -33 27c-14 0 -31 -11 -31 -29c0 -9 5 -20 13 -25c35 -22 130 -10 178 -86c19 -30 30 -65 30 -101c0 -103 -84 -187 -187 -187
c-93 0 -171 69 -185 158l130 27c5 -28 22 -48 55 -48c27 0 49 23 49 50c0 10 -1 17 -6 25c-8 13 -20 18 -62 27zM287 -90v-138c0 -45 -14 -91 -57 -126l-66 64c24 16 30 32 30 62h-45v138h138z" />
    <glyph glyph-name="germandbls" unicode="&#xdf;" horiz-adv-x="620" 
d="M71 -30v564c0 267 154 296 225 296c113 0 209 -92 211 -205c2 -55 -13 -97 -41 -127c75 -47 120 -128 120 -222c0 -159 -125 -276 -298 -276h-54v138h54c80 0 161 39 161 138c0 93 -83 133 -161 133v137c55 3 81 29 82 75c1 40 -35 71 -74 71c-32 0 -88 -1 -93 -158v-564
h-132z" />
    <glyph glyph-name="t" unicode="t" horiz-adv-x="375" 
d="M240 500h107v-123h-107v-377h-139v377h-62v123h62v300h139v-300z" />
    <glyph glyph-name="tbar" unicode="&#x167;" horiz-adv-x="375" 
d="M240 377v-88h107v-121h-107v-168h-139v168h-61v121h61v88h-62v123h62v300h139v-300h107v-123h-107z" />
    <glyph glyph-name="tcaron" unicode="&#x165;" horiz-adv-x="575" 
d="M240 500h107v-123h-107v-377h-139v377h-62v123h62v300h139v-300zM539 800v-138c0 -45 -14 -91 -57 -126l-66 64c24 16 30 32 30 62h-45v138h138z" />
    <glyph glyph-name="tcedilla" unicode="&#x163;" horiz-adv-x="375" 
d="M227 0v-53c51 -21 87 -72 87 -131c0 -79 -64 -143 -142 -143c-79 0 -143 64 -143 143h110c0 -18 15 -33 33 -33s32 15 32 33s-14 32 -32 32h-55v152h-16v377h-62v123h62v300h139v-300h107v-123h-107v-377h-13z" />
    <glyph glyph-name="uni021B" unicode="&#x21b;" horiz-adv-x="375" 
d="M240 500h107v-123h-107v-377h-139v377h-62v123h62v300h139v-300zM239 -90v-138c0 -45 -14 -91 -57 -126l-66 64c24 16 30 32 30 62h-45v138h138z" />
    <glyph glyph-name="u" unicode="u" horiz-adv-x="610" 
d="M560 500v-276c0 -138 -110 -254 -254 -254c-138 0 -254 116 -254 254v276h138v-276c0 -61 50 -116 116 -116s116 55 116 116v276h138z" />
    <glyph glyph-name="uacute" unicode="&#xfa;" horiz-adv-x="610" 
d="M440 679l-254 -79l-36 116l254 79zM560 500v-276c0 -138 -110 -254 -254 -254c-138 0 -254 116 -254 254v276h138v-276c0 -61 50 -116 116 -116s116 55 116 116v276h138z" />
    <glyph glyph-name="ucircumflex" unicode="&#xfb;" horiz-adv-x="610" 
d="M458 722l-46 -112l-106 42l-107 -42l-46 112l153 61zM560 500v-276c0 -138 -110 -254 -254 -254c-138 0 -254 116 -254 254v276h138v-276c0 -61 50 -116 116 -116s116 55 116 116v276h138z" />
    <glyph glyph-name="udieresis" unicode="&#xfc;" horiz-adv-x="610" 
d="M265 600h-131v131h131v-131zM477 600h-131v131h131v-131zM560 500v-276c0 -138 -110 -254 -254 -254c-138 0 -254 116 -254 254v276h138v-276c0 -61 50 -116 116 -116s116 55 116 116v276h138z" />
    <glyph glyph-name="ugrave" unicode="&#xf9;" horiz-adv-x="610" 
d="M460 716l-36 -116l-254 79l36 116zM560 500v-276c0 -138 -110 -254 -254 -254c-138 0 -254 116 -254 254v276h138v-276c0 -61 50 -116 116 -116s116 55 116 116v276h138z" />
    <glyph glyph-name="uhungarumlaut" unicode="&#x171;" horiz-adv-x="610" 
d="M316 751l-175 -151l-79 92l175 150zM568 752l-159 -150l-83 88l159 151zM560 500v-276c0 -138 -110 -254 -254 -254c-138 0 -254 116 -254 254v276h138v-276c0 -61 50 -116 116 -116s116 55 116 116v276h138z" />
    <glyph glyph-name="umacron" unicode="&#x16b;" horiz-adv-x="610" 
d="M455 600h-300v121h300v-121zM560 500v-276c0 -138 -110 -254 -254 -254c-138 0 -254 116 -254 254v276h138v-276c0 -61 50 -116 116 -116s116 55 116 116v276h138z" />
    <glyph glyph-name="uogonek" unicode="&#x173;" horiz-adv-x="610" 
d="M560 500v-276c0 -110 -70 -206 -171 -240c-86 -43 -101 -78 -101 -79l-1 -2c-14 -29 -9 -56 12 -70c18 -13 42 -8 54 9l81 -73c-29 -42 -76 -64 -123 -64c-29 0 -59 9 -85 27c-64 45 -104 163 -19 259c-90 39 -155 130 -155 233v276h138v-276c0 -61 50 -116 116 -116
s116 55 116 116v276h138z" />
    <glyph glyph-name="uring" unicode="&#x16f;" horiz-adv-x="610" 
d="M305 840c66 0 120 -53 120 -120c0 -66 -54 -120 -120 -120c-67 0 -120 54 -120 120c0 67 53 120 120 120zM305 756c-20 0 -37 -16 -37 -36s17 -36 37 -36s36 16 36 36s-16 36 -36 36zM560 500v-276c0 -138 -110 -254 -254 -254c-138 0 -254 116 -254 254v276h138v-276
c0 -61 50 -116 116 -116s116 55 116 116v276h138z" />
    <glyph glyph-name="v" unicode="v" horiz-adv-x="525" 
d="M262 -30l-251 530h148l103 -221l104 221h148z" />
    <glyph glyph-name="w" unicode="w" horiz-adv-x="814" 
d="M553 274l106 226h146l-235 -530l-163 283l-165 -283l-233 530h146l105 -226l147 256z" />
    <glyph glyph-name="wacute" unicode="&#x1e83;" horiz-adv-x="814" 
d="M542 679l-254 -79l-36 116l254 79zM553 274l106 226h146l-235 -530l-163 283l-165 -283l-233 530h146l105 -226l147 256z" />
    <glyph glyph-name="wcircumflex" unicode="&#x175;" horiz-adv-x="814" 
d="M560 722l-46 -112l-106 42l-107 -42l-46 112l153 61zM553 274l106 226h146l-235 -530l-163 283l-165 -283l-233 530h146l105 -226l147 256z" />
    <glyph glyph-name="wdieresis" unicode="&#x1e85;" horiz-adv-x="840" 
d="M367 600h-131v131h131v-131zM579 600h-131v131h131v-131zM553 274l106 226h146l-235 -530l-163 283l-165 -283l-233 530h146l105 -226l147 256z" />
    <glyph glyph-name="wgrave" unicode="&#x1e81;" horiz-adv-x="814" 
d="M562 716l-36 -116l-254 79l36 116zM553 274l106 226h146l-235 -530l-163 283l-165 -283l-233 530h146l105 -226l147 256z" />
    <glyph glyph-name="x" unicode="x" horiz-adv-x="552" 
d="M539 0h-171l-92 131l-92 -131h-170l177 251l-177 249h171l91 -129l91 129h170l-176 -249z" />
    <glyph glyph-name="y" unicode="y" horiz-adv-x="540" 
d="M219 -330h-148l125 331l-187 499h148l113 -302l114 302h148z" />
    <glyph glyph-name="yacute" unicode="&#xfd;" horiz-adv-x="540" 
d="M415 679l-254 -79l-36 116l254 79zM219 -330h-148l125 331l-187 499h148l113 -302l114 302h148z" />
    <glyph glyph-name="ycircumflex" unicode="&#x177;" horiz-adv-x="540" 
d="M423 722l-46 -112l-106 42l-107 -42l-46 112l153 61zM219 -330h-148l125 331l-187 499h148l113 -302l114 302h148z" />
    <glyph glyph-name="ydieresis" unicode="&#xff;" horiz-adv-x="540" 
d="M230 600h-131v131h131v-131zM442 600h-131v131h131v-131zM219 -330h-148l125 331l-187 499h148l113 -302l114 302h148z" />
    <glyph glyph-name="ygrave" unicode="&#x1ef3;" horiz-adv-x="540" 
d="M415 716l-36 -116l-254 79l36 116zM219 -330h-148l125 331l-187 499h148l113 -302l114 302h148z" />
    <glyph glyph-name="z" unicode="z" horiz-adv-x="460" 
d="M243 123h187v-123h-412l198 377h-187v123h413z" />
    <glyph glyph-name="zacute" unicode="&#x17a;" horiz-adv-x="460" 
d="M365 679l-254 -79l-36 116l254 79zM243 123h187v-123h-412l198 377h-187v123h413z" />
    <glyph glyph-name="zcaron" unicode="&#x17e;" horiz-adv-x="460" 
d="M383 671l-152 -61l-153 61l46 112l107 -42l106 42zM243 123h187v-123h-412l198 377h-187v123h413z" />
    <glyph glyph-name="zdotaccent" unicode="&#x17c;" horiz-adv-x="460" 
d="M299 600h-138v138h138v-138zM243 123h187v-123h-412l198 377h-187v123h413z" />
    <glyph glyph-name="l.ss01" horiz-adv-x="375" 
d="M199 800v-546c0 -80 65 -145 145 -146v-138c-156 1 -283 128 -283 284v546h138z" />
    <glyph glyph-name="lacute.ss01" horiz-adv-x="375" 
d="M277 979l-254 -79l-36 116l254 79zM199 800v-546c0 -80 65 -145 145 -146v-138c-156 1 -283 128 -283 284v546h138z" />
    <glyph glyph-name="lcaron.ss01" horiz-adv-x="490" 
d="M199 800v-546c0 -80 65 -145 145 -146v-138c-156 1 -283 128 -283 284v546h138zM429 800v-138c0 -45 -14 -91 -57 -126l-66 64c24 16 30 32 30 62h-45v138h138z" />
    <glyph glyph-name="lcommaaccent.ss01" horiz-adv-x="375" 
d="M256 -90v-138c0 -45 -14 -91 -57 -126l-66 64c24 16 30 32 30 62h-45v138h138zM199 800v-546c0 -80 65 -145 145 -146v-138c-156 1 -283 128 -283 284v546h138z" />
    <glyph glyph-name="ldot.ss01" horiz-adv-x="490" 
d="M425 324h-138v138h138v-138zM199 800v-546c0 -80 65 -145 145 -146v-138c-156 1 -283 128 -283 284v546h138z" />
    <glyph glyph-name="lslash.ss01" horiz-adv-x="375" 
d="M199 364v-110c0 -80 65 -145 145 -146v-138c-156 1 -283 128 -283 284v68l-65 -20l-36 116l101 31v351h138v-309l71 22l36 -116z" />
    <glyph glyph-name="t.ss01" horiz-adv-x="415" 
d="M239 377v-123c0 -80 65 -145 145 -146v-138c-156 1 -283 128 -283 284v123h-62v123h62v300h138v-300h107v-123h-107z" />
    <glyph glyph-name="tbar.ss01" horiz-adv-x="415" 
d="M347 197h-96c22 -52 73 -88 133 -89v-138c-136 1 -251 98 -277 227h-68v123h62v57h-62v123h62v300h138v-300h108v-123h-108v-57h108v-123z" />
    <glyph glyph-name="tcaron.ss01" horiz-adv-x="575" 
d="M539 800v-138c0 -45 -14 -91 -57 -126l-66 64c24 16 30 32 30 62h-45v138h138zM239 377v-123c0 -80 65 -145 145 -146v-138c-156 1 -283 128 -283 284v123h-62v123h62v300h138v-300h107v-123h-107z" />
    <glyph glyph-name="tcedilla.ss01" horiz-adv-x="415" 
d="M384 108v-161c51 -21 87 -72 87 -131c0 -79 -64 -143 -142 -143c-79 0 -143 64 -143 143h110c0 -18 15 -33 33 -33s32 15 32 33s-14 32 -32 32h-55v145c-102 43 -173 144 -173 261v123h-62v123h62v300h138v-300h107v-123h-107v-123c0 -80 65 -145 145 -146z" />
    <glyph glyph-name="uni021B.ss01" horiz-adv-x="415" 
d="M277 -90v-138c0 -45 -14 -91 -57 -126l-66 64c24 16 30 32 30 62h-45v138h138zM239 377v-123c0 -80 65 -145 145 -146v-138c-156 1 -283 128 -283 284v123h-62v123h62v300h138v-300h107v-123h-107z" />
    <glyph glyph-name="y.ss01" horiz-adv-x="610" 
d="M562 500v-546c0 -157 -127 -284 -283 -284c-76 0 -148 30 -201 83l98 98c27 -28 64 -43 103 -43c80 0 145 66 145 146v44c-35 -18 -75 -28 -117 -28c-141 0 -255 115 -255 255v275h138v-275c0 -64 53 -117 117 -117c65 0 117 53 117 117v275h138z" />
    <glyph glyph-name="yacute.ss01" horiz-adv-x="610" 
d="M450 679l-254 -79l-36 116l254 79zM562 500v-546c0 -157 -127 -284 -283 -284c-76 0 -148 30 -201 83l98 98c27 -28 64 -43 103 -43c80 0 145 66 145 146v44c-35 -18 -75 -28 -117 -28c-141 0 -255 115 -255 255v275h138v-275c0 -64 53 -117 117 -117
c65 0 117 53 117 117v275h138z" />
    <glyph glyph-name="ycircumflex.ss01" horiz-adv-x="610" 
d="M458 722l-46 -112l-106 42l-107 -42l-46 112l153 61zM562 500v-546c0 -157 -127 -284 -283 -284c-76 0 -148 30 -201 83l98 98c27 -28 64 -43 103 -43c80 0 145 66 145 146v44c-35 -18 -75 -28 -117 -28c-141 0 -255 115 -255 255v275h138v-275c0 -64 53 -117 117 -117
c65 0 117 53 117 117v275h138z" />
    <glyph glyph-name="ydieresis.ss01" horiz-adv-x="610" 
d="M265 600h-131v131h131v-131zM477 600h-131v131h131v-131zM562 500v-546c0 -157 -127 -284 -283 -284c-76 0 -148 30 -201 83l98 98c27 -28 64 -43 103 -43c80 0 145 66 145 146v44c-35 -18 -75 -28 -117 -28c-141 0 -255 115 -255 255v275h138v-275
c0 -64 53 -117 117 -117c65 0 117 53 117 117v275h138z" />
    <glyph glyph-name="ygrave.ss01" horiz-adv-x="610" 
d="M450 716l-36 -116l-254 79l36 116zM562 500v-546c0 -157 -127 -284 -283 -284c-76 0 -148 30 -201 83l98 98c27 -28 64 -43 103 -43c80 0 145 66 145 146v44c-35 -18 -75 -28 -117 -28c-141 0 -255 115 -255 255v275h138v-275c0 -64 53 -117 117 -117
c65 0 117 53 117 117v275h138z" />
    <glyph glyph-name="ordfeminine" unicode="&#xaa;" horiz-adv-x="480" 
d="M425 500h-99c-27 -15 -57 -21 -91 -21c-110 0 -200 89 -200 200s90 200 200 200c34 0 64 -6 91 -21h99v-358zM235 773c-52 0 -93 -42 -93 -94s41 -94 93 -94c57 0 87 49 87 94s-30 94 -87 94z" />
    <glyph glyph-name="ordmasculine" unicode="&#xba;" horiz-adv-x="620" 
d="M230 879c111 0 200 -89 200 -200s-89 -200 -200 -200s-200 89 -200 200s89 200 200 200zM230 771c-50 0 -92 -42 -92 -92s42 -92 92 -92s92 42 92 92s-42 92 -92 92z" />
    <glyph glyph-name="zero" unicode="0" horiz-adv-x="640" 
d="M320 830c179 0 282 -193 282 -430s-103 -430 -282 -430s-282 193 -282 430s103 430 282 430zM320 692c-14 0 -53 0 -91 -61c-34 -54 -53 -139 -53 -231s19 -177 53 -231c38 -61 77 -61 91 -61c15 0 54 0 91 61c34 54 54 139 54 231s-20 177 -54 231c-37 61 -76 61 -91 61
z" />
    <glyph glyph-name="one" unicode="1" horiz-adv-x="430" 
d="M350 0h-138v470l-78 -86l-103 93l319 353v-830z" />
    <glyph glyph-name="two" unicode="2" horiz-adv-x="605" 
d="M189 577h-138c0 140 113 253 253 253c139 0 252 -113 252 -253c0 -53 -14 -99 -46 -146l-202 -292h241v-139h-505l351 509c17 24 23 43 23 68c0 63 -51 114 -114 114s-115 -51 -115 -114z" />
    <glyph glyph-name="three" unicode="3" horiz-adv-x="570" 
d="M178 586h-143c0 129 114 244 243 244c144 0 258 -115 258 -244c0 -71 -28 -143 -86 -186c58 -43 86 -115 86 -186c0 -129 -114 -244 -254 -244c-133 0 -247 115 -247 244h129c0 -58 57 -101 114 -101c72 0 115 43 115 101c0 71 -43 114 -115 114h-43v144h43
c72 0 115 43 115 114c0 58 -43 101 -115 101c-57 0 -100 -43 -100 -101z" />
    <glyph glyph-name="four" unicode="4" horiz-adv-x="670" 
d="M241 315h132v129h139v-129h137v-139h-137v-176h-139v176h-352l297 624h154z" />
    <glyph glyph-name="five" unicode="5" horiz-adv-x="635" 
d="M511 662h-249l-18 -119h76c158 0 286 -129 286 -287s-128 -286 -286 -286s-287 128 -287 286h139c0 -81 66 -148 148 -148c81 0 148 67 148 148c0 82 -67 148 -148 148h-237l60 396h368v-138z" />
    <glyph glyph-name="six" unicode="6" horiz-adv-x="645" 
d="M494 830v-138c-1 0 -83 -3 -162 -56c-37 -25 -68 -58 -92 -97c28 9 57 14 88 14c161 0 291 -131 291 -292c0 -160 -130 -291 -291 -291s-291 131 -292 291v1c1 285 123 425 225 492c112 73 233 76 233 76zM328 415c-85 0 -154 -69 -154 -154c0 -84 69 -153 154 -153
s153 69 153 153c0 85 -68 154 -153 154z" />
    <glyph glyph-name="seven" unicode="7" horiz-adv-x="660" 
d="M236 0h-156l340 661h-369v139h597z" />
    <glyph glyph-name="eight" unicode="8" horiz-adv-x="595" 
d="M298 830c132 0 239 -107 239 -239c0 -64 -26 -123 -67 -166c54 -47 88 -117 88 -195c0 -143 -116 -260 -260 -260c-143 0 -260 117 -260 260c0 78 34 148 89 195c-42 43 -68 102 -68 166c0 132 108 239 239 239zM298 692c-56 0 -101 -45 -101 -101s45 -101 101 -101
s101 45 101 101s-45 101 -101 101zM298 352c-67 0 -122 -54 -122 -122c0 -67 55 -122 122 -122c68 0 123 55 123 122c0 68 -55 122 -123 122z" />
    <glyph glyph-name="nine" unicode="9" horiz-adv-x="645" 
d="M151 -30v138c1 0 83 3 162 56c37 25 67 58 91 97c-27 -9 -57 -14 -87 -14c-161 0 -292 131 -292 292c0 160 131 291 292 291s291 -131 291 -291v-1c0 -285 -122 -425 -224 -492c-113 -73 -233 -76 -233 -76zM317 692c-85 0 -154 -69 -154 -153c0 -85 69 -154 154 -154
s153 69 153 154c0 84 -68 153 -153 153z" />
    <glyph glyph-name="zero.osf" horiz-adv-x="670" 
d="M335 680c187 0 295 -159 295 -355s-108 -355 -295 -355s-296 159 -296 355s109 355 296 355zM335 556c-20 0 -52 0 -87 -35c-41 -45 -68 -116 -68 -196s27 -151 68 -196c35 -34 67 -34 87 -34c11 0 51 0 86 34c41 45 72 116 72 196s-31 151 -72 196c-35 35 -75 35 -86 35
z" />
    <glyph glyph-name="one.osf" horiz-adv-x="430" 
d="M350 0h-138v320l-78 -86l-103 93l319 353v-680z" />
    <glyph glyph-name="two.osf" horiz-adv-x="605" 
d="M189 427h-138c0 140 113 253 253 253c139 0 252 -113 252 -253c0 -73 -26 -126 -86 -186l-102 -102h181v-139h-505l321 329c35 36 53 63 53 98c0 63 -51 114 -114 114s-115 -51 -115 -114z" />
    <glyph glyph-name="three.osf" horiz-adv-x="570" 
d="M178 436h-143c0 129 114 244 243 244c144 0 258 -115 258 -244c0 -71 -28 -143 -86 -186c58 -43 86 -115 86 -186c0 -129 -114 -244 -254 -244c-133 0 -247 115 -247 244h129c0 -58 57 -101 114 -101c72 0 115 43 115 101c0 71 -43 114 -115 114h-43v144h43
c72 0 115 43 115 114c0 58 -43 101 -115 101c-57 0 -100 -43 -100 -101z" />
    <glyph glyph-name="four.osf" horiz-adv-x="700" 
d="M256 165h132v129h139v-129h137v-139h-137v-176h-139v176h-352l297 624h154z" />
    <glyph glyph-name="five.osf" horiz-adv-x="640" 
d="M511 512h-249l-18 -119h76c158 0 286 -129 286 -287s-128 -286 -286 -286s-287 128 -287 286h139c0 -81 66 -148 148 -148c81 0 148 67 148 148c0 82 -67 148 -148 148h-237l60 396h368v-138z" />
    <glyph glyph-name="six.osf" horiz-adv-x="645" 
d="M494 830v-138c-1 0 -83 -3 -162 -56c-37 -25 -68 -58 -92 -97c28 9 57 14 88 14c161 0 291 -131 291 -292c0 -160 -130 -291 -291 -291s-291 131 -292 291v1c1 285 123 425 225 492c112 73 233 76 233 76zM328 415c-85 0 -154 -69 -154 -154c0 -84 69 -153 154 -153
s153 69 153 153c0 85 -68 154 -153 154z" />
    <glyph glyph-name="seven.osf" horiz-adv-x="660" 
d="M236 -150h-156l340 661h-369v139h597z" />
    <glyph glyph-name="eight.osf" horiz-adv-x="595" 
d="M298 830c132 0 239 -107 239 -239c0 -64 -26 -123 -67 -166c54 -47 88 -117 88 -195c0 -143 -116 -260 -260 -260c-143 0 -260 117 -260 260c0 78 34 148 89 195c-42 43 -68 102 -68 166c0 132 108 239 239 239zM298 692c-56 0 -101 -45 -101 -101s45 -101 101 -101
s101 45 101 101s-45 101 -101 101zM298 352c-67 0 -122 -54 -122 -122c0 -67 55 -122 122 -122c68 0 123 55 123 122c0 68 -55 122 -123 122z" />
    <glyph glyph-name="nine.osf" horiz-adv-x="645" 
d="M151 -180v138c1 0 83 3 162 56c37 25 67 58 91 97c-27 -9 -57 -14 -87 -14c-161 0 -292 131 -292 292c0 160 131 291 292 291s291 -131 291 -291v-1c0 -285 -122 -425 -224 -492c-113 -73 -233 -76 -233 -76zM317 542c-85 0 -154 -69 -154 -153c0 -85 69 -154 154 -154
s153 69 153 154c0 84 -68 153 -153 153z" />
    <glyph glyph-name="zero.osf.zero" horiz-adv-x="670" 
d="M335 680c187 0 295 -159 295 -355s-108 -355 -295 -355s-296 159 -296 355s109 355 296 355zM194 227l226 295c-35 34 -74 34 -85 34c-20 0 -52 0 -87 -35c-41 -45 -68 -116 -68 -196c0 -35 5 -68 14 -98zM476 425l-227 -297c35 -33 66 -33 86 -33c11 0 51 0 86 34
c41 45 72 116 72 196c0 36 -6 70 -17 100z" />
    <glyph glyph-name="zero.subs" horiz-adv-x="350" 
d="M175 230c96 0 150 -96 150 -215c0 -118 -54 -215 -150 -215c-95 0 -150 97 -150 215c0 119 55 215 150 215zM175 144c-6 0 -24 0 -41 -27c-17 -24 -25 -62 -25 -103s8 -78 25 -102c17 -28 35 -28 41 -28c8 0 25 0 42 28c17 24 27 61 27 102s-10 79 -27 103
c-17 27 -34 27 -42 27z" />
    <glyph glyph-name="one.subs" horiz-adv-x="280" 
d="M218 -185h-84v215l-39 -38l-55 58l178 180v-415z" />
    <glyph glyph-name="two.subs" horiz-adv-x="380" 
d="M138 104l-89 -2c0 72 59 128 133 128s133 -56 133 -126c0 -27 -9 -52 -25 -75l-89 -130h111v-84h-267l172 259c6 10 11 20 11 30c0 25 -21 45 -46 45c-24 0 -44 -20 -44 -45z" />
    <glyph glyph-name="three.subs" horiz-adv-x="330" 
d="M123 107l-87 1c0 65 59 122 126 122c74 0 134 -57 134 -122c0 -35 -15 -71 -45 -93c30 -21 45 -57 45 -93c0 -64 -60 -122 -132 -122c-69 0 -128 58 -128 122l83 1c0 -20 22 -35 43 -35c27 0 43 17 43 40c0 25 -16 45 -43 45h-16l-2 82h19c29 0 46 21 46 47
c0 25 -17 43 -46 43c-24 0 -40 -16 -40 -38z" />
    <glyph glyph-name="four.subs" horiz-adv-x="370" 
d="M148 -35h56v57h84v-57h54v-84h-54v-81h-84v81h-185l149 319h86z" />
    <glyph glyph-name="five.subs" horiz-adv-x="350" 
d="M284 117h-138l-9 -45h39c81 0 147 -65 147 -144s-66 -143 -147 -143s-148 64 -148 143h86c0 -33 28 -61 62 -61c33 0 62 28 62 61c0 35 -29 62 -62 62h-137l41 210h204v-83z" />
    <glyph glyph-name="six.subs" horiz-adv-x="350" 
d="M268 230v-81c-1 0 -39 -3 -72 -21c-17 -11 -35 -24 -47 -43c14 5 23 7 33 7c82 0 150 -66 150 -146s-68 -146 -150 -146c-83 0 -150 66 -150 146c0 143 62 213 115 246c58 37 121 38 121 38zM182 11c-36 0 -65 -30 -65 -65s29 -64 65 -64c35 0 64 29 64 64s-29 65 -64 65
z" />
    <glyph glyph-name="seven.subs" horiz-adv-x="360" 
d="M154 -200h-93l153 317h-173v83h309z" />
    <glyph glyph-name="eight.subs" horiz-adv-x="350" 
d="M175 230c71 0 129 -53 129 -119c0 -32 -14 -62 -36 -83c29 -24 47 -59 47 -98c0 -71 -62 -130 -140 -130c-76 0 -140 59 -140 130c0 39 18 74 48 98c-22 21 -36 51 -36 83c0 66 58 119 128 119zM175 152c-25 0 -44 -18 -44 -41s19 -42 44 -42s46 19 46 42s-21 41 -46 41z
M175 -20c-30 0 -54 -22 -54 -50c0 -27 24 -50 54 -50c31 0 56 23 56 50c0 28 -25 50 -56 50z" />
    <glyph glyph-name="nine.subs" horiz-adv-x="350" 
d="M86 -200v81c1 0 39 3 72 21c17 11 35 24 47 43c-14 -5 -23 -7 -33 -7c-82 0 -150 66 -150 146s68 146 150 146c83 0 150 -66 150 -146c0 -143 -62 -213 -115 -246c-58 -37 -121 -38 -121 -38zM172 19c36 0 65 30 65 65s-29 64 -65 64c-35 0 -64 -29 -64 -64
s29 -65 64 -65z" />
    <glyph glyph-name="zero.tf" horiz-adv-x="700" 
d="M350 830c179 0 282 -193 282 -430s-103 -430 -282 -430s-282 193 -282 430s103 430 282 430zM350 692c-14 0 -53 0 -91 -61c-34 -54 -53 -139 -53 -231s19 -177 53 -231c38 -61 77 -61 91 -61c15 0 54 0 91 61c34 54 54 139 54 231s-20 177 -54 231c-37 61 -76 61 -91 61
z" />
    <glyph glyph-name="one.tf" horiz-adv-x="700" 
d="M578 138v-138h-413v138h139v332l-78 -86l-103 93l319 353v-692h136z" />
    <glyph glyph-name="two.tf" horiz-adv-x="700" 
d="M239 577h-138c0 140 113 253 253 253c139 0 252 -113 252 -253c0 -53 -14 -99 -46 -146l-202 -292h241v-139h-505l351 509c17 24 23 43 23 68c0 63 -51 114 -114 114s-115 -51 -115 -114z" />
    <glyph glyph-name="three.tf" horiz-adv-x="700" 
d="M243 586h-143c0 129 114 244 243 244c144 0 258 -115 258 -244c0 -71 -28 -143 -86 -186c58 -43 86 -115 86 -186c0 -129 -114 -244 -254 -244c-133 0 -247 115 -247 244h129c0 -58 57 -101 114 -101c72 0 115 43 115 101c0 71 -43 114 -115 114h-43v144h43
c72 0 115 43 115 114c0 58 -43 101 -115 101c-57 0 -100 -43 -100 -101z" />
    <glyph glyph-name="four.tf" horiz-adv-x="700" 
d="M256 315h132v129h139v-129h137v-139h-137v-176h-139v176h-352l297 624h154z" />
    <glyph glyph-name="five.tf" horiz-adv-x="700" 
d="M542 662h-249l-18 -119h76c158 0 286 -129 286 -287s-128 -286 -286 -286s-287 128 -287 286h139c0 -81 66 -148 148 -148c81 0 148 67 148 148c0 82 -67 148 -148 148h-237l60 396h368v-138z" />
    <glyph glyph-name="six.tf" horiz-adv-x="700" 
d="M517 830v-138c-1 0 -83 -3 -162 -56c-37 -25 -68 -58 -92 -97c28 9 57 14 88 14c161 0 291 -131 291 -292c0 -160 -130 -291 -291 -291s-291 131 -292 291v1c1 285 123 425 225 492c112 73 233 76 233 76zM351 415c-85 0 -154 -69 -154 -154c0 -84 69 -153 154 -153
s153 69 153 153c0 85 -68 154 -153 154z" />
    <glyph glyph-name="seven.tf" horiz-adv-x="700" 
d="M237 0h-156l340 661h-369v139h597z" />
    <glyph glyph-name="eight.tf" horiz-adv-x="700" 
d="M350 830c132 0 239 -107 239 -239c0 -64 -26 -123 -67 -166c54 -47 88 -117 88 -195c0 -143 -116 -260 -260 -260c-143 0 -260 117 -260 260c0 78 34 148 89 195c-42 43 -68 102 -68 166c0 132 108 239 239 239zM350 692c-56 0 -101 -45 -101 -101s45 -101 101 -101
s101 45 101 101s-45 101 -101 101zM350 352c-67 0 -122 -54 -122 -122c0 -67 55 -122 122 -122c68 0 123 55 123 122c0 68 -55 122 -123 122z" />
    <glyph glyph-name="nine.tf" horiz-adv-x="700" 
d="M185 -30v138c1 0 83 3 162 56c37 25 67 58 91 97c-27 -9 -57 -14 -87 -14c-161 0 -292 131 -292 292c0 160 131 291 292 291s291 -131 291 -291v-1c0 -285 -122 -425 -224 -492c-113 -73 -233 -76 -233 -76zM351 692c-85 0 -154 -69 -154 -153c0 -85 69 -154 154 -154
s153 69 153 154c0 84 -68 153 -153 153z" />
    <glyph glyph-name="zero.tf.zero" horiz-adv-x="700" 
d="M350 830c179 0 282 -193 282 -430s-103 -430 -282 -430s-282 193 -282 430s103 430 282 430zM451 613l-10 18c-37 61 -76 61 -91 61c-14 0 -53 0 -91 -61c-34 -54 -53 -139 -53 -231c0 -34 3 -67 8 -98zM252 181l7 -12c38 -61 77 -61 91 -61c15 0 54 0 91 61
c34 54 54 139 54 231c0 31 -2 62 -7 91z" />
    <glyph glyph-name="zero.zero" horiz-adv-x="670" 
d="M320 830c179 0 282 -193 282 -430s-103 -430 -282 -430s-282 193 -282 430s103 430 282 430zM421 614l-10 17c-37 61 -76 61 -91 61c-14 0 -53 0 -91 -61c-34 -54 -53 -139 -53 -231c0 -33 3 -66 7 -96zM222 182l7 -13c38 -61 77 -61 91 -61c15 0 54 0 91 61
c34 54 54 139 54 231c0 32 -2 63 -7 92z" />
    <glyph glyph-name="fraction" unicode="&#x2044;" horiz-adv-x="180" 
d="M-111 0h-104l507 800h103z" />
    <glyph glyph-name="onehalf" unicode="&#xbd;" horiz-adv-x="840" 
d="M218 415h-84v215l-39 -38l-55 58l178 180v-415zM169 0h-104l507 800h103zM598 289l-89 -2c0 72 59 128 133 128s133 -56 133 -126c0 -27 -9 -52 -25 -75l-89 -130h111v-84h-267l172 259c6 10 11 20 11 30c0 25 -21 45 -46 45c-24 0 -44 -20 -44 -45z" />
    <glyph glyph-name="onequarter" unicode="&#xbc;" horiz-adv-x="830" 
d="M218 415h-84v215l-39 -38l-55 58l178 180v-415zM169 0h-104l507 800h103zM608 165h56v57h84v-57h54v-84h-54v-81h-84v81h-185l149 319h86z" />
    <glyph glyph-name="threequarters" unicode="&#xbe;" horiz-adv-x="880" 
d="M123 707l-87 1c0 65 59 122 126 122c74 0 134 -57 134 -122c0 -35 -15 -71 -45 -93c30 -21 45 -57 45 -93c0 -64 -60 -122 -132 -122c-69 0 -128 58 -128 122l83 1c0 -20 22 -35 43 -35c27 0 43 17 43 40c0 25 -16 45 -43 45h-16l-2 82h19c29 0 46 21 46 47
c0 25 -17 43 -46 43c-24 0 -40 -16 -40 -38zM219 0h-104l507 800h103zM658 165h56v57h84v-57h54v-84h-54v-81h-84v81h-185l149 319h86z" />
    <glyph glyph-name="oneeighth" unicode="&#x215b;" horiz-adv-x="810" 
d="M218 415h-84v215l-39 -38l-55 58l178 180v-415zM169 0h-104l507 800h103zM635 400c71 0 129 -53 129 -119c0 -32 -14 -62 -36 -83c29 -24 47 -59 47 -98c0 -71 -62 -130 -140 -130c-76 0 -140 59 -140 130c0 39 18 74 48 98c-22 21 -36 51 -36 83c0 66 58 119 128 119z
M635 322c-25 0 -44 -18 -44 -41s19 -42 44 -42s46 19 46 42s-21 41 -46 41zM635 150c-30 0 -54 -22 -54 -50c0 -27 24 -50 54 -50c31 0 56 23 56 50c0 28 -25 50 -56 50z" />
    <glyph glyph-name="threeeighths" unicode="&#x215c;" horiz-adv-x="860" 
d="M123 707l-87 1c0 65 59 122 126 122c74 0 134 -57 134 -122c0 -35 -15 -71 -45 -93c30 -21 45 -57 45 -93c0 -64 -60 -122 -132 -122c-69 0 -128 58 -128 122l83 1c0 -20 22 -35 43 -35c27 0 43 17 43 40c0 25 -16 45 -43 45h-16l-2 82h19c29 0 46 21 46 47
c0 25 -17 43 -46 43c-24 0 -40 -16 -40 -38zM219 0h-104l507 800h103zM685 400c71 0 129 -53 129 -119c0 -32 -14 -62 -36 -83c29 -24 47 -59 47 -98c0 -71 -62 -130 -140 -130c-76 0 -140 59 -140 130c0 39 18 74 48 98c-22 21 -36 51 -36 83c0 66 58 119 128 119zM685 322
c-25 0 -44 -18 -44 -41s19 -42 44 -42s46 19 46 42s-21 41 -46 41zM685 150c-30 0 -54 -22 -54 -50c0 -27 24 -50 54 -50c31 0 56 23 56 50c0 28 -25 50 -56 50z" />
    <glyph glyph-name="fiveeighths" unicode="&#x215d;" horiz-adv-x="880" 
d="M284 717h-138l-9 -45h39c81 0 147 -65 147 -144s-66 -143 -147 -143s-148 64 -148 143h86c0 -33 28 -61 62 -61c33 0 62 28 62 61c0 35 -29 62 -62 62h-137l41 210h204v-83zM239 0h-104l507 800h103zM705 400c71 0 129 -53 129 -119c0 -32 -14 -62 -36 -83
c29 -24 47 -59 47 -98c0 -71 -62 -130 -140 -130c-76 0 -140 59 -140 130c0 39 18 74 48 98c-22 21 -36 51 -36 83c0 66 58 119 128 119zM705 322c-25 0 -44 -18 -44 -41s19 -42 44 -42s46 19 46 42s-21 41 -46 41zM705 150c-30 0 -54 -22 -54 -50c0 -27 24 -50 54 -50
c31 0 56 23 56 50c0 28 -25 50 -56 50z" />
    <glyph glyph-name="seveneighths" unicode="&#x215e;" horiz-adv-x="890" 
d="M154 400h-93l153 317h-173v83h309zM249 0h-104l507 800h103zM715 400c71 0 129 -53 129 -119c0 -32 -14 -62 -36 -83c29 -24 47 -59 47 -98c0 -71 -62 -130 -140 -130c-76 0 -140 59 -140 130c0 39 18 74 48 98c-22 21 -36 51 -36 83c0 66 58 119 128 119zM715 322
c-25 0 -44 -18 -44 -41s19 -42 44 -42s46 19 46 42s-21 41 -46 41zM715 150c-30 0 -54 -22 -54 -50c0 -27 24 -50 54 -50c31 0 56 23 56 50c0 28 -25 50 -56 50z" />
    <glyph glyph-name="zero.dnom" horiz-adv-x="350" 
d="M175 400c96 0 150 -96 150 -215c0 -118 -54 -215 -150 -215c-95 0 -150 97 -150 215c0 119 55 215 150 215zM175 314c-6 0 -24 0 -41 -27c-17 -24 -25 -62 -25 -103s8 -78 25 -102c17 -28 35 -28 41 -28c8 0 25 0 42 28c17 24 27 61 27 102s-10 79 -27 103
c-17 27 -34 27 -42 27z" />
    <glyph glyph-name="one.dnom" horiz-adv-x="280" 
d="M218 0h-84v215l-39 -38l-55 58l178 180v-415z" />
    <glyph glyph-name="two.dnom" horiz-adv-x="380" 
d="M138 289l-89 -2c0 72 59 128 133 128s133 -56 133 -126c0 -27 -9 -52 -25 -75l-89 -130h111v-84h-267l172 259c6 10 11 20 11 30c0 25 -21 45 -46 45c-24 0 -44 -20 -44 -45z" />
    <glyph glyph-name="three.dnom" horiz-adv-x="330" 
d="M123 277l-87 1c0 65 59 122 126 122c74 0 134 -57 134 -122c0 -35 -15 -71 -45 -93c30 -21 45 -57 45 -93c0 -64 -60 -122 -132 -122c-69 0 -128 58 -128 122l83 1c0 -20 22 -35 43 -35c27 0 43 17 43 40c0 25 -16 45 -43 45h-16l-2 82h19c29 0 46 21 46 47
c0 25 -17 43 -46 43c-24 0 -40 -16 -40 -38z" />
    <glyph glyph-name="four.dnom" horiz-adv-x="370" 
d="M148 165h56v57h84v-57h54v-84h-54v-81h-84v81h-185l149 319h86z" />
    <glyph glyph-name="five.dnom" horiz-adv-x="350" 
d="M284 302h-138l-9 -45h39c81 0 147 -65 147 -144s-66 -143 -147 -143s-148 64 -148 143h86c0 -33 28 -61 62 -61c33 0 62 28 62 61c0 35 -29 62 -62 62h-137l41 210h204v-83z" />
    <glyph glyph-name="six.dnom" horiz-adv-x="350" 
d="M268 400v-81c-1 0 -39 -3 -72 -21c-17 -11 -35 -24 -47 -43c14 5 23 7 33 7c82 0 150 -66 150 -146s-68 -146 -150 -146c-83 0 -150 66 -150 146c0 143 62 213 115 246c58 37 121 38 121 38zM182 181c-36 0 -65 -30 -65 -65s29 -64 65 -64c35 0 64 29 64 64
s-29 65 -64 65z" />
    <glyph glyph-name="seven.dnom" horiz-adv-x="360" 
d="M154 0h-93l153 317h-173v83h309z" />
    <glyph glyph-name="eight.dnom" horiz-adv-x="350" 
d="M175 400c71 0 129 -53 129 -119c0 -32 -14 -62 -36 -83c29 -24 47 -59 47 -98c0 -71 -62 -130 -140 -130c-76 0 -140 59 -140 130c0 39 18 74 48 98c-22 21 -36 51 -36 83c0 66 58 119 128 119zM175 322c-25 0 -44 -18 -44 -41s19 -42 44 -42s46 19 46 42s-21 41 -46 41z
M175 150c-30 0 -54 -22 -54 -50c0 -27 24 -50 54 -50c31 0 56 23 56 50c0 28 -25 50 -56 50z" />
    <glyph glyph-name="nine.dnom" horiz-adv-x="350" 
d="M86 -30v81c1 0 39 3 72 21c17 11 35 24 47 43c-14 -5 -23 -7 -33 -7c-82 0 -150 66 -150 146s68 146 150 146c83 0 150 -66 150 -146c0 -143 -62 -213 -115 -246c-58 -37 -121 -38 -121 -38zM172 189c36 0 65 30 65 65s-29 64 -65 64c-35 0 -64 -29 -64 -64
s29 -65 64 -65z" />
    <glyph glyph-name="zero.numr" horiz-adv-x="350" 
d="M175 830c96 0 150 -96 150 -215c0 -118 -54 -215 -150 -215c-95 0 -150 97 -150 215c0 119 55 215 150 215zM175 744c-6 0 -24 0 -41 -27c-17 -24 -25 -62 -25 -103s8 -78 25 -102c17 -28 35 -28 41 -28c8 0 25 0 42 28c17 24 27 61 27 102s-10 79 -27 103
c-17 27 -34 27 -42 27z" />
    <glyph glyph-name="one.numr" horiz-adv-x="280" 
d="M218 415h-84v215l-39 -38l-55 58l178 180v-415z" />
    <glyph glyph-name="two.numr" horiz-adv-x="380" 
d="M138 704l-89 -2c0 72 59 128 133 128s133 -56 133 -126c0 -27 -9 -52 -25 -75l-89 -130h111v-84h-267l172 259c6 10 11 20 11 30c0 25 -21 45 -46 45c-24 0 -44 -20 -44 -45z" />
    <glyph glyph-name="three.numr" horiz-adv-x="330" 
d="M123 707l-87 1c0 65 59 122 126 122c74 0 134 -57 134 -122c0 -35 -15 -71 -45 -93c30 -21 45 -57 45 -93c0 -64 -60 -122 -132 -122c-69 0 -128 58 -128 122l83 1c0 -20 22 -35 43 -35c27 0 43 17 43 40c0 25 -16 45 -43 45h-16l-2 82h19c29 0 46 21 46 47
c0 25 -17 43 -46 43c-24 0 -40 -16 -40 -38z" />
    <glyph glyph-name="four.numr" horiz-adv-x="370" 
d="M148 565h56v57h84v-57h54v-84h-54v-81h-84v81h-185l149 319h86z" />
    <glyph glyph-name="five.numr" horiz-adv-x="350" 
d="M284 717h-138l-9 -45h39c81 0 147 -65 147 -144s-66 -143 -147 -143s-148 64 -148 143h86c0 -33 28 -61 62 -61c33 0 62 28 62 61c0 35 -29 62 -62 62h-137l41 210h204v-83z" />
    <glyph glyph-name="six.numr" horiz-adv-x="350" 
d="M268 830v-81c-1 0 -39 -3 -72 -21c-17 -11 -35 -24 -47 -43c14 5 23 7 33 7c82 0 150 -66 150 -146s-68 -146 -150 -146c-83 0 -150 66 -150 146c0 143 62 213 115 246c58 37 121 38 121 38zM182 611c-36 0 -65 -30 -65 -65s29 -64 65 -64c35 0 64 29 64 64
s-29 65 -64 65z" />
    <glyph glyph-name="seven.numr" horiz-adv-x="360" 
d="M154 400h-93l153 317h-173v83h309z" />
    <glyph glyph-name="eight.numr" horiz-adv-x="350" 
d="M175 830c71 0 129 -53 129 -119c0 -32 -14 -62 -36 -83c29 -24 47 -59 47 -98c0 -71 -62 -130 -140 -130c-76 0 -140 59 -140 130c0 39 18 74 48 98c-22 21 -36 51 -36 83c0 66 58 119 128 119zM175 752c-25 0 -44 -18 -44 -41s19 -42 44 -42s46 19 46 42s-21 41 -46 41z
M175 580c-30 0 -54 -22 -54 -50c0 -27 24 -50 54 -50c31 0 56 23 56 50c0 28 -25 50 -56 50z" />
    <glyph glyph-name="nine.numr" horiz-adv-x="350" 
d="M86 400v81c1 0 39 3 72 21c17 11 35 24 47 43c-14 -5 -23 -7 -33 -7c-82 0 -150 66 -150 146s68 146 150 146c83 0 150 -66 150 -146c0 -143 -62 -213 -115 -246c-58 -37 -121 -38 -121 -38zM172 619c36 0 65 30 65 65s-29 64 -65 64c-35 0 -64 -29 -64 -64
s29 -65 64 -65z" />
    <glyph glyph-name="zerosuperior" unicode="&#x2070;" horiz-adv-x="350" 
d="M175 915c96 0 150 -96 150 -215c0 -118 -54 -215 -150 -215c-95 0 -150 97 -150 215c0 119 55 215 150 215zM175 829c-6 0 -24 0 -41 -27c-17 -24 -25 -62 -25 -103s8 -78 25 -102c17 -28 35 -28 41 -28c8 0 25 0 42 28c17 24 27 61 27 102s-10 79 -27 103
c-17 27 -34 27 -42 27z" />
    <glyph glyph-name="onesuperior" unicode="&#xb9;" horiz-adv-x="280" 
d="M218 500h-84v215l-39 -38l-55 58l178 180v-415z" />
    <glyph glyph-name="twosuperior" unicode="&#xb2;" horiz-adv-x="380" 
d="M138 789l-89 -2c0 72 59 128 133 128s133 -56 133 -126c0 -27 -9 -52 -25 -75l-89 -130h111v-84h-267l172 259c6 10 11 20 11 30c0 25 -21 45 -46 45c-24 0 -44 -20 -44 -45z" />
    <glyph glyph-name="threesuperior" unicode="&#xb3;" horiz-adv-x="330" 
d="M123 792l-87 1c0 65 59 122 126 122c74 0 134 -57 134 -122c0 -35 -15 -71 -45 -93c30 -21 45 -57 45 -93c0 -64 -60 -122 -132 -122c-69 0 -128 58 -128 122l83 1c0 -20 22 -35 43 -35c27 0 43 17 43 40c0 25 -16 45 -43 45h-16l-2 82h19c29 0 46 21 46 47
c0 25 -17 43 -46 43c-24 0 -40 -16 -40 -38z" />
    <glyph glyph-name="foursuperior" unicode="&#x2074;" horiz-adv-x="370" 
d="M148 665h56v57h84v-57h54v-84h-54v-81h-84v81h-185l149 319h86z" />
    <glyph glyph-name="fivesuperior" unicode="&#x2075;" horiz-adv-x="350" 
d="M284 817h-138l-9 -45h39c81 0 147 -65 147 -144s-66 -143 -147 -143s-148 64 -148 143h86c0 -33 28 -61 62 -61c33 0 62 28 62 61c0 35 -29 62 -62 62h-137l41 210h204v-83z" />
    <glyph glyph-name="sixsuperior" unicode="&#x2076;" horiz-adv-x="350" 
d="M268 915v-81c-1 0 -39 -3 -72 -21c-17 -11 -35 -24 -47 -43c14 5 23 7 33 7c82 0 150 -66 150 -146s-68 -146 -150 -146c-83 0 -150 66 -150 146c0 143 62 213 115 246c58 37 121 38 121 38zM182 696c-36 0 -65 -30 -65 -65s29 -64 65 -64c35 0 64 29 64 64
s-29 65 -64 65z" />
    <glyph glyph-name="sevensuperior" unicode="&#x2077;" horiz-adv-x="360" 
d="M154 500h-93l153 317h-173v83h309z" />
    <glyph glyph-name="eightsuperior" unicode="&#x2078;" horiz-adv-x="350" 
d="M175 915c71 0 129 -53 129 -119c0 -32 -14 -62 -36 -83c29 -24 47 -59 47 -98c0 -71 -62 -130 -140 -130c-76 0 -140 59 -140 130c0 39 18 74 48 98c-22 21 -36 51 -36 83c0 66 58 119 128 119zM175 837c-25 0 -44 -18 -44 -41s19 -42 44 -42s46 19 46 42s-21 41 -46 41z
M175 665c-30 0 -54 -22 -54 -50c0 -27 24 -50 54 -50c31 0 56 23 56 50c0 28 -25 50 -56 50z" />
    <glyph glyph-name="ninesuperior" unicode="&#x2079;" horiz-adv-x="350" 
d="M86 485v81c1 0 39 3 72 21c17 11 35 24 47 43c-14 -5 -23 -7 -33 -7c-82 0 -150 66 -150 146s68 146 150 146c83 0 150 -66 150 -146c0 -143 -62 -213 -115 -246c-58 -37 -121 -38 -121 -38zM172 704c36 0 65 30 65 65s-29 64 -65 64c-35 0 -64 -29 -64 -64
s29 -65 64 -65z" />
    <glyph glyph-name="asterisk" unicode="*" horiz-adv-x="430" 
d="M256 705l87 30l26 -74l-89 -31l54 -73l-64 -47l-54 73l-55 -73l-64 47l54 73l-89 31l26 74l88 -30v95h80v-95z" />
    <glyph glyph-name="backslash" unicode="\" horiz-adv-x="450" 
d="M395 0h-94l-246 800h93z" />
    <glyph glyph-name="bullet" unicode="&#x2022;" horiz-adv-x="420" 
d="M210 405c72 0 130 -58 130 -130s-58 -130 -130 -130s-130 58 -130 130s58 130 130 130z" />
    <glyph glyph-name="colon" unicode=":" horiz-adv-x="300" 
d="M219 362h-138v138h138v-138zM219 0h-138v138h138v-138z" />
    <glyph glyph-name="comma" unicode="," horiz-adv-x="300" 
d="M219 138v-138c0 -75 -14 -111 -57 -156l-73 54c28 26 37 52 37 102h-45v138h138z" />
    <glyph glyph-name="ellipsis" unicode="&#x2026;" horiz-adv-x="803" 
d="M201 0h-139v139h139v-139zM471 0h-139v139h139v-139zM741 0h-139v139h139v-139z" />
    <glyph glyph-name="exclam" unicode="!" horiz-adv-x="280" 
d="M188 245h-96l-40 555h176zM210 0h-139v144h139v-144z" />
    <glyph glyph-name="exclamdown" unicode="&#xa1;" horiz-adv-x="280" 
d="M210 356h-139v144h139v-144zM228 -300h-176l40 555h96z" />
    <glyph glyph-name="numbersign" unicode="#" horiz-adv-x="800" 
d="M614 590h125v-100h-146l-37 -179h127v-100h-148l-44 -211h-102l44 211h-140l-44 -211h-102l44 211h-130v100h151l37 179h-132v100h153l43 210h103l-44 -210h140l43 210h103zM351 490l-37 -179h140l37 179h-140z" />
    <glyph glyph-name="period" unicode="." horiz-adv-x="300" 
d="M220 0h-139v139h139v-139z" />
    <glyph glyph-name="periodcentered" unicode="&#xb7;" horiz-adv-x="300" 
d="M220 314h-139v139h139v-139z" />
    <glyph glyph-name="question" unicode="?" horiz-adv-x="610" 
d="M171 559h-138c0 149 121 271 271 271s272 -122 272 -271c0 -48 -16 -96 -49 -147l-2 -3c-4 -6 -48 -65 -127 -94l-3 -1c-4 -4 -24 -10 -23 -94h-139c-1 99 20 145 50 176c29 30 55 42 71 50c33 13 55 38 58 43c17 26 26 50 26 70c0 73 -60 133 -134 133
c-73 0 -133 -60 -133 -133zM372 0h-139v138h139v-138z" />
    <glyph glyph-name="questiondown" unicode="&#xbf;" horiz-adv-x="610" 
d="M237 362v138h139v-138h-139zM237 280h139c1 -99 -20 -145 -50 -176c-29 -30 -55 -42 -71 -50c-33 -13 -55 -38 -58 -43c-17 -26 -26 -50 -26 -70c0 -73 60 -133 134 -133c73 0 133 60 133 133h138c0 -149 -121 -271 -271 -271s-272 122 -272 271c0 48 16 96 49 147l2 3
c4 6 48 65 127 94l3 1c4 4 24 10 23 94z" />
    <glyph glyph-name="quotedbl" unicode="&#x22;" horiz-adv-x="380" 
d="M131 500h-92l-10 300h112zM341 500h-92l-10 300h112z" />
    <glyph glyph-name="quotesingle" unicode="'" horiz-adv-x="230" 
d="M161 500h-92l-10 300h112z" />
    <glyph glyph-name="semicolon" unicode=";" horiz-adv-x="300" 
d="M219 361h-138v139h138v-139zM219 138v-138c0 -75 -14 -111 -57 -156l-73 54c28 26 37 52 37 102h-45v138h138z" />
    <glyph glyph-name="slash" unicode="/" horiz-adv-x="450" 
d="M153 0h-94l247 800h93z" />
    <glyph glyph-name="underscore" unicode="_" 
d="M540 -181h-480v121h480v-121z" />
    <glyph glyph-name="braceleft" unicode="{" horiz-adv-x="440" 
d="M372 716h1s-23 -2 -47 -15c-26 -15 -38 -37 -38 -72v-196c0 -60 -19 -111 -56 -149c37 -37 56 -88 56 -148v-195c0 -35 12 -57 38 -71c24 -14 47 -15 47 -15h-1v-135c-88 3 -219 64 -219 221v211c0 44 -18 59 -36 68c-24 13 -50 13 -50 13v103s26 0 50 13
c18 9 36 24 36 68v212c0 157 131 218 219 221v-134z" />
    <glyph glyph-name="braceright" unicode="}" horiz-adv-x="440" 
d="M68 716v134c88 -3 219 -64 219 -221v-212c0 -44 18 -59 36 -68c24 -13 50 -13 50 -13v-103s-26 0 -50 -13c-18 -9 -36 -24 -36 -68v-211c0 -157 -131 -218 -219 -221v135h-1s23 1 47 15c26 14 38 36 38 71v195c0 60 19 111 56 148c-37 38 -56 89 -56 149v196
c0 35 -12 57 -38 72c-24 13 -47 15 -47 15h1z" />
    <glyph glyph-name="bracketleft" unicode="[" horiz-adv-x="390" 
d="M200 709v-718h130v-121h-269v960h269v-121h-130z" />
    <glyph glyph-name="bracketright" unicode="]" horiz-adv-x="390" 
d="M330 830v-960h-269v121h130v718h-130v121h269z" />
    <glyph glyph-name="parenleft" unicode="(" horiz-adv-x="392" 
d="M219 850l114 -86c-84 -111 -131 -258 -131 -414c0 -155 47 -302 131 -413l-114 -87c-103 136 -160 314 -160 500c0 187 57 365 160 500z" />
    <glyph glyph-name="parenright" unicode=")" horiz-adv-x="392" 
d="M59 764l114 86c103 -135 160 -313 160 -500c0 -186 -57 -364 -160 -500l-114 87c84 111 131 258 131 413c0 156 -47 303 -131 414z" />
    <glyph glyph-name="emdash" unicode="&#x2014;" 
d="M660 270h-720v121h720v-121z" />
    <glyph glyph-name="endash" unicode="&#x2013;" 
d="M540 270h-480v121h480v-121z" />
    <glyph glyph-name="hyphen" unicode="-" horiz-adv-x="480" 
d="M420 270h-360v121h360v-121z" />
    <glyph glyph-name="guillemotleft" unicode="&#xab;" horiz-adv-x="680" 
d="M199 306l149 -149l-76 -75l-224 224l224 224l76 -75zM483 306l149 -149l-76 -75l-224 224l224 224l76 -75z" />
    <glyph glyph-name="guillemotright" unicode="&#xbb;" horiz-adv-x="680" 
d="M348 306l-224 -224l-76 75l149 149l-149 149l76 75zM632 306l-224 -224l-76 75l149 149l-149 149l76 75z" />
    <glyph glyph-name="guilsinglleft" unicode="&#x2039;" horiz-adv-x="400" 
d="M201 306l149 -149l-76 -75l-224 224l224 224l76 -75z" />
    <glyph glyph-name="guilsinglright" unicode="&#x203a;" horiz-adv-x="400" 
d="M350 306l-224 -224l-76 75l149 149l-149 149l76 75z" />
    <glyph glyph-name="quotedblbase" unicode="&#x201e;" horiz-adv-x="460" 
d="M189 138v-138c0 -75 -14 -111 -57 -156l-73 54c28 26 37 52 37 102h-45v138h138zM409 138v-138c0 -75 -14 -111 -57 -156l-73 54c28 26 37 52 37 102h-45v138h138z" />
    <glyph glyph-name="quotedblleft" unicode="&#x201c;" horiz-adv-x="460" 
d="M51 506v138c0 75 14 111 57 156l73 -54c-28 -26 -37 -52 -37 -102h45v-138h-138zM271 506v138c0 75 14 111 57 156l73 -54c-28 -26 -37 -52 -37 -102h45v-138h-138z" />
    <glyph glyph-name="quotedblright" unicode="&#x201d;" horiz-adv-x="460" 
d="M189 800v-138c0 -75 -14 -111 -57 -156l-73 54c28 26 37 52 37 102h-45v138h138zM409 800v-138c0 -75 -14 -111 -57 -156l-73 54c28 26 37 52 37 102h-45v138h138z" />
    <glyph glyph-name="quoteleft" unicode="&#x2018;" horiz-adv-x="300" 
d="M81 506v138c0 75 14 111 57 156l73 -54c-28 -26 -37 -52 -37 -102h45v-138h-138z" />
    <glyph glyph-name="quoteright" unicode="&#x2019;" horiz-adv-x="300" 
d="M219 800v-138c0 -75 -14 -111 -57 -156l-73 54c28 26 37 52 37 102h-45v138h138z" />
    <glyph glyph-name="quotesinglbase" unicode="&#x201a;" horiz-adv-x="300" 
d="M219 138v-138c0 -75 -14 -111 -57 -156l-73 54c28 26 37 52 37 102h-45v138h138z" />
    <glyph glyph-name="space" unicode=" " horiz-adv-x="280" 
 />
    <glyph glyph-name="cent" unicode="&#xa2;" horiz-adv-x="525" 
d="M411 150l98 -98c-37 -37 -84 -64 -137 -75v-77h-121v76c-126 28 -220 139 -220 273s94 247 220 275v76h121v-77c52 -11 99 -38 136 -74l-98 -98c-25 26 -61 42 -99 42c-79 0 -143 -65 -143 -144c0 -78 64 -142 143 -142c39 0 75 17 100 43z" />
    <glyph glyph-name="currency" unicode="&#xa4;" horiz-adv-x="540" 
d="M486 485l-59 -60c20 -30 33 -65 33 -100s-12 -70 -33 -100l59 -58l-55 -57l-59 59c-31 -22 -66 -35 -102 -35s-71 13 -102 35l-58 -59l-55 56l58 59c-20 30 -33 65 -33 100c0 36 13 71 34 101l-59 59l57 55l59 -58c30 20 64 32 99 32s70 -13 101 -33l58 59zM200 327
c0 -37 35 -72 70 -72s70 35 70 72c0 35 -35 68 -70 68s-70 -33 -70 -68z" />
    <glyph glyph-name="dollar" unicode="$" horiz-adv-x="575" 
d="M504 367c27 -42 41 -90 41 -139c0 -121 -84 -223 -197 -251v-77h-121v77c-107 26 -189 119 -197 232l133 26c16 -84 59 -127 124 -127c66 0 120 54 120 120c0 23 -7 45 -19 64c-19 28 -45 37 -119 57c-76 21 -140 39 -185 109c-25 39 -38 84 -38 130
c0 113 77 208 181 234v78h121v-78c94 -24 166 -104 178 -202l-136 -28c-2 55 -47 100 -103 100c-57 0 -103 -47 -103 -104c0 -19 5 -39 16 -55c15 -24 38 -32 106 -50c81 -23 150 -42 198 -116z" />
    <glyph glyph-name="Euro" unicode="&#x20ac;" horiz-adv-x="780" 
d="M460 290h-269c43 -107 148 -182 270 -182c81 0 154 33 207 85l97 -97c-78 -78 -185 -126 -304 -126c-199 0 -367 136 -416 320h-65v80h52c-1 10 -1 20 -1 30s0 20 1 30h-52v80h65c49 184 217 320 416 320c119 0 226 -48 304 -126l-97 -97c-53 52 -126 85 -207 85
c-122 0 -227 -75 -270 -182h299v-80h-319c-1 -10 -2 -20 -2 -30s1 -20 2 -30h289v-80z" />
    <glyph glyph-name="sterling" unicode="&#xa3;" 
d="M540 139v-139h-525c121 74 117 197 117 255c-4 42 -11 76 -18 105h-97v80h71c-15 44 -29 83 -29 139c0 144 98 251 259 251c99 0 168 -61 203 -112l-113 -88s-39 61 -90 61c-107 0 -120 -86 -120 -112c0 -48 14 -91 29 -139h210v-80h-187c14 -58 23 -128 13 -221h277z
" />
    <glyph glyph-name="yen" unicode="&#xa5;" horiz-adv-x="750" 
d="M445 370h180v-80h-180v-60h180v-80h-180v-150h-139v150h-181v80h181v60h-181v80h181l-298 430h170l197 -288l198 288h169z" />
    <glyph glyph-name="approxequal" unicode="&#x2248;" 
d="M168 324l-108 55c26 51 72 87 128 98c52 11 106 -1 149 -33c14 -11 33 -15 51 -11c19 4 35 16 44 34l108 -55c-25 -51 -72 -87 -128 -98c-12 -3 -25 -4 -37 -4c-40 0 -79 13 -111 37c-15 11 -33 15 -51 11c-20 -4 -36 -16 -45 -34zM168 104l-108 55c26 51 72 87 128 98
c52 11 106 -1 149 -33c14 -11 33 -15 51 -11c19 4 35 16 44 34l108 -55c-25 -51 -72 -87 -128 -98c-12 -3 -25 -4 -37 -4c-40 0 -79 13 -111 37c-15 11 -33 15 -51 11c-20 -4 -36 -16 -45 -34z" />
    <glyph glyph-name="asciitilde" unicode="~" 
d="M168 214l-108 55c26 51 72 87 128 98c52 11 106 -1 149 -33c14 -11 33 -15 51 -11c19 4 35 16 44 34l108 -55c-25 -51 -72 -87 -128 -98c-12 -3 -25 -4 -37 -4c-40 0 -79 13 -111 37c-15 11 -33 15 -51 11c-20 -4 -36 -16 -45 -34z" />
    <glyph glyph-name="divide" unicode="&#xf7;" horiz-adv-x="700" 
d="M418 527h-139v139h139v-139zM640 270h-580v121h580v-121zM418 0h-139v140h139v-140z" />
    <glyph glyph-name="emptyset" unicode="&#x2205;" 
 />
    <glyph glyph-name="equal" unicode="=" horiz-adv-x="700" 
d="M640 390h-580v121h580v-121zM640 150h-580v121h580v-121z" />
    <glyph glyph-name="greater" unicode="&#x3e;" horiz-adv-x="740" 
d="M693 280l-138 -55l-496 -225v121l362 162l-362 157v123z" />
    <glyph glyph-name="greaterequal" unicode="&#x2265;" horiz-adv-x="740" 
d="M556 435l-496 -225v121l367 160l-367 159v123l634 -283zM60 121h620v-121h-620v121z" />
    <glyph glyph-name="infinity" unicode="&#x221e;" horiz-adv-x="700" 
d="M480 514c96 0 190 -93 190 -189s-94 -191 -190 -191c-48 0 -95 23 -130 59c-35 -36 -82 -59 -130 -59c-96 0 -190 95 -190 191s94 189 190 189c48 0 95 -23 130 -58c35 35 82 58 130 58zM220 255c35 0 70 35 70 72c0 35 -35 68 -70 68s-70 -33 -70 -68
c0 -37 35 -72 70 -72zM480 255c35 0 70 35 70 72c0 35 -35 68 -70 68s-70 -33 -70 -68c0 -37 35 -72 70 -72z" />
    <glyph glyph-name="integral" unicode="&#x222b;" horiz-adv-x="720" 
d="M294 -92v690c0 127 105 232 232 232c60 0 121 -22 165 -66l-99 -100c-17 17 -39 28 -66 28c-56 0 -94 -44 -94 -94v-690c0 -133 -108 -238 -237 -238c-63 0 -122 22 -166 66l99 100c17 -17 39 -28 66 -28c56 0 100 44 100 100z" />
    <glyph glyph-name="less" unicode="&#x3c;" horiz-adv-x="740" 
d="M683 440l-362 -157l362 -162v-121l-496 225l-138 55l634 283v-123z" />
    <glyph glyph-name="lessequal" unicode="&#x2264;" horiz-adv-x="740" 
d="M680 650l-367 -159l367 -160v-121l-496 225l-138 55l634 283v-123zM60 121h620v-121h-620v121z" />
    <glyph glyph-name="logicalnot" unicode="&#xac;" horiz-adv-x="700" 
d="M640 391v-280h-121v159h-459v121h580z" />
    <glyph glyph-name="minus" unicode="&#x2212;" horiz-adv-x="700" 
d="M640 270h-580v121h580v-121z" />
    <glyph glyph-name="multiply" unicode="&#xd7;" horiz-adv-x="580" 
d="M538 494l-173 -173l163 -163l-74 -74l-163 163l-163 -163l-75 75l163 163l-173 172l75 75l172 -173l173 173z" />
    <glyph glyph-name="notequal" unicode="&#x2260;" horiz-adv-x="700" 
d="M416 390l-37 -119h261v-121h-298l-46 -150h-94l46 150h-188v121h226l37 119h-263v121h300l46 149h93l-46 -149h187v-121h-224z" />
    <glyph glyph-name="partialdiff" unicode="&#x2202;" horiz-adv-x="650" 
d="M151 692v138s121 -3 233 -76c102 -67 224 -207 225 -492v-1c-1 -160 -131 -291 -292 -291s-291 131 -291 291c0 161 130 292 291 292c31 0 60 -5 88 -14c-24 39 -55 72 -92 97c-79 53 -161 56 -162 56zM317 415c-85 0 -153 -69 -153 -154c0 -84 68 -153 153 -153
s154 69 154 153c0 85 -69 154 -154 154z" />
    <glyph glyph-name="percent" unicode="%" horiz-adv-x="800" 
d="M200 830c84 0 165 -80 165 -164c0 -83 -81 -166 -165 -166s-165 83 -165 166c0 84 81 164 165 164zM199 0h-104l507 800h103zM200 727c-31 0 -61 -29 -61 -60c0 -32 30 -61 61 -61s61 29 61 61c0 31 -30 60 -61 60zM600 300c84 0 165 -80 165 -164
c0 -83 -81 -166 -165 -166s-165 83 -165 166c0 84 81 164 165 164zM600 197c-31 0 -60 -29 -60 -60c0 -32 29 -61 60 -61s61 29 61 61c0 31 -30 60 -61 60z" />
    <glyph glyph-name="perthousand" unicode="&#x2030;" horiz-adv-x="1200" 
d="M200 830c84 0 165 -80 165 -164c0 -83 -81 -166 -165 -166s-165 83 -165 166c0 84 81 164 165 164zM199 0h-104l507 800h103zM200 727c-31 0 -61 -29 -61 -60c0 -32 30 -61 61 -61s61 29 61 61c0 31 -30 60 -61 60zM600 300c84 0 165 -80 165 -164
c0 -83 -81 -166 -165 -166s-165 83 -165 166c0 84 81 164 165 164zM1000 300c84 0 165 -80 165 -164c0 -83 -81 -166 -165 -166s-165 83 -165 166c0 84 81 164 165 164zM600 197c-31 0 -60 -29 -60 -60c0 -32 29 -61 60 -61s61 29 61 61c0 31 -30 60 -61 60zM1000 197
c-31 0 -60 -29 -60 -60c0 -32 29 -61 60 -61s61 29 61 61c0 31 -30 60 -61 60z" />
    <glyph glyph-name="plus" unicode="+" horiz-adv-x="700" 
d="M640 270h-230v-230h-120v230h-230v121h230v229h120v-229h230v-121z" />
    <glyph glyph-name="plusminus" unicode="&#xb1;" horiz-adv-x="560" 
d="M500 551v-121h-160v-160h-120v160h-160v121h160v159h120v-159h160zM60 201h440v-121h-440v121z" />
    <glyph glyph-name="product" unicode="&#x220f;" horiz-adv-x="770" 
d="M710 800v-800h-139v661h-371v-661h-139v800h649z" />
    <glyph glyph-name="radical" unicode="&#x221a;" horiz-adv-x="790" 
d="M788 662h-202l-324 -692l-251 530h148l103 -221l241 521h285v-138z" />
    <glyph glyph-name="summation" unicode="&#x2211;" horiz-adv-x="680" 
d="M644 661h-405l145 -261l-145 -261h405v-139h-624l223 400l-223 400h624v-139z" />
    <glyph glyph-name="arrowdown" unicode="&#x2193;" horiz-adv-x="760" 
d="M604 224l-224 -224l-224 224l75 76l95 -95v469h109v-468l94 94z" />
    <glyph glyph-name="arrowleft" unicode="&#x2190;" horiz-adv-x="760" 
d="M717 273h-469l95 -95l-76 -75l-224 224l224 224l76 -75l-94 -94h468v-109z" />
    <glyph glyph-name="arrowright" unicode="&#x2192;" horiz-adv-x="760" 
d="M717 327l-224 -224l-76 75l94 94h-468v109h469l-95 95l76 75z" />
    <glyph glyph-name="arrowup" unicode="&#x2191;" horiz-adv-x="760" 
d="M529 374l-94 94v-468h-109v469l-95 -95l-75 76l224 224l224 -224z" />
    <glyph glyph-name="lozenge" unicode="&#x25ca;" 
d="M582 400l-281 -430l-282 430l282 430zM417 400l-116 179l-116 -179l116 -179z" />
    <glyph glyph-name="ampersand" unicode="&#x26;" horiz-adv-x="770" 
d="M184 422l-38 36c-23 22 -77 74 -77 162c0 116 97 210 217 210c57 0 111 -21 151 -59c66 -63 66 -139 65 -161c-4 -82 -58 -136 -89 -165l-27 -25l153 -146l109 104l95 -100l-104 -99l107 -103l-95 -100l-112 108l-27 -26c-47 -40 -114 -88 -221 -88
c-76 0 -141 22 -187 62c-47 41 -73 101 -73 165c0 85 60 141 75 153zM364 613v8c0 6 0 29 -22 50c-14 14 -35 21 -56 21c-44 0 -79 -32 -79 -72c0 -25 11 -40 34 -62l45 -43l32 30c26 24 46 45 46 68zM284 326l-90 -81c-3 -3 -25 -24 -25 -48c0 -79 86 -89 122 -89
c57 0 93 22 129 53l19 18z" />
    <glyph glyph-name="asciicircum" unicode="^" 
d="M469 430l-167 240l-170 -239h-113l283 399l280 -400h-113z" />
    <glyph glyph-name="at" unicode="@" horiz-adv-x="1220" 
d="M613 -192l-2 -138c-319 0 -578 265 -578 580c0 320 260 580 580 580c155 0 299 -55 404 -155c110 -105 171 -248 171 -414c0 -105 -28 -188 -88 -238c-61 -55 -133 -55 -155 -55c-55 0 -100 22 -138 55c-6 6 -11 17 -17 22c-50 -49 -110 -77 -188 -77
c-155 0 -282 127 -282 282s127 282 282 282c50 0 94 -10 133 -32h144v-300s0 -33 10 -58c11 -28 28 -36 61 -36h6c5 0 33 0 55 22c28 22 39 67 39 133c0 254 -183 431 -437 431c-243 0 -442 -199 -442 -442c0 -238 199 -442 442 -442zM602 394c-77 0 -143 -67 -143 -144
c0 -78 66 -144 143 -144c50 0 83 22 100 39c27 27 38 66 38 105s-11 77 -38 105c-17 16 -50 39 -100 39z" />
    <glyph glyph-name="bar" unicode="|" horiz-adv-x="400" 
d="M261 -330h-121v1130h121v-1130z" />
    <glyph glyph-name="brokenbar" unicode="&#xa6;" horiz-adv-x="400" 
d="M261 430h-121v370h121v-370zM261 -330h-121v370h121v-370z" />
    <glyph glyph-name="copyright" unicode="&#xa9;" horiz-adv-x="560" 
d="M281 830c138 0 250 -112 250 -250c0 -137 -112 -250 -250 -250c-137 0 -250 113 -250 250c0 138 113 250 250 250zM281 770c-104 0 -190 -85 -190 -190c0 -104 86 -190 190 -190c105 0 190 86 190 190c0 105 -85 190 -190 190zM333 529l41 -41c-24 -23 -56 -38 -92 -38
c-72 0 -130 58 -130 130s58 130 130 130c36 0 68 -15 92 -38l-41 -41c-13 12 -31 21 -51 21c-40 0 -72 -32 -72 -72s32 -72 72 -72c20 0 38 9 51 21z" />
    <glyph glyph-name="dagger" unicode="&#x2020;" horiz-adv-x="700" 
d="M640 407h-221l-36 -737h-64l-37 737h-222v93h221v300h139v-300h220v-93z" />
    <glyph glyph-name="daggerdbl" unicode="&#x2021;" horiz-adv-x="700" 
d="M419 407l-7 -147h228v-93h-231l-26 -497h-64l-27 497h-232v93h229l-7 147h-222v93h221v300h139v-300h220v-93h-221z" />
    <glyph glyph-name="degree" unicode="&#xb0;" horiz-adv-x="400" 
d="M200 830c84 0 165 -80 165 -164c0 -83 -81 -166 -165 -166s-165 83 -165 166c0 84 81 164 165 164zM200 727c-31 0 -61 -29 -61 -60c0 -32 30 -61 61 -61s61 29 61 61c0 31 -30 60 -61 60z" />
    <glyph glyph-name="paragraph" unicode="&#xb6;" horiz-adv-x="800" 
d="M749 687h-66v-1017h-113v1017h-136v-1017h-113v570c-155 0 -280 125 -280 280s125 280 280 280h428v-113z" />
    <glyph glyph-name="registered" unicode="&#xae;" horiz-adv-x="560" 
d="M281 830c138 0 250 -112 250 -250c0 -137 -112 -250 -250 -250c-137 0 -250 113 -250 250c0 138 113 250 250 250zM281 770c-104 0 -190 -85 -190 -190c0 -104 86 -190 190 -190c105 0 190 86 190 190c0 105 -85 190 -190 190zM201 707h75c47 0 85 -38 85 -85
c0 -30 -15 -55 -37 -70l62 -95h-73l-52 80v-80h-60v250zM261 646v-47h15c15 0 25 10 25 23c0 14 -10 24 -25 24h-15z" />
    <glyph glyph-name="section" unicode="&#xa7;" horiz-adv-x="575" 
d="M504 367c27 -42 41 -90 41 -139c0 -56 -18 -108 -48 -150l7 -11c27 -42 41 -90 41 -139c0 -142 -116 -258 -258 -258c-136 0 -247 106 -257 239l133 26c16 -84 59 -127 124 -127c66 0 120 54 120 120c0 23 -7 45 -19 64c-19 28 -45 37 -118 57h-1
c-76 21 -140 39 -185 109c-25 39 -38 84 -38 130c0 57 19 109 52 150c-5 6 -9 13 -14 20c-25 39 -38 84 -38 130c0 134 108 242 241 242c122 0 224 -91 239 -210l-136 -28c-2 55 -47 100 -103 100c-57 0 -103 -47 -103 -104c0 -19 5 -39 16 -55c15 -24 38 -32 106 -50
c81 -23 150 -42 198 -116zM269 349c-18 5 -35 10 -52 15c-20 -19 -33 -46 -33 -76c0 -19 5 -39 16 -55c15 -24 38 -32 106 -50c22 -7 51 -15 65 -20c20 19 36 41 36 65c0 23 -7 45 -19 64c-19 28 -45 37 -119 57z" />
    <glyph glyph-name="trademark" unicode="&#x2122;" horiz-adv-x="610" 
d="M598 500h-73l-30 125l-88 -136l-87 136l-31 -125h-73l74 309l117 -185l118 185zM211 727h-54v-227h-73v227h-54v73h181v-73z" />
    <glyph glyph-name="acute" unicode="&#xb4;" 
d="M445 679l-254 -79l-36 116l254 79z" />
    <glyph glyph-name="breve" unicode="&#x2d8;" 
d="M353 774h121c0 -96 -77 -174 -173 -174s-174 78 -174 174h121c0 -29 24 -53 53 -53s52 24 52 53z" />
    <glyph glyph-name="caron" unicode="&#x2c7;" 
d="M453 671l-152 -61l-153 61l46 112l107 -42l106 42z" />
    <glyph glyph-name="cedilla" unicode="&#xb8;" 
d="M356 0v-53c51 -21 87 -72 87 -131c0 -79 -64 -143 -142 -143c-79 0 -143 64 -143 143h110c0 -18 15 -33 33 -33s32 15 32 33s-14 32 -32 32h-55v152h110z" />
    <glyph glyph-name="circumflex" unicode="&#x2c6;" 
d="M453 722l-46 -112l-106 42l-107 -42l-46 112l153 61z" />
    <glyph glyph-name="dieresis" unicode="&#xa8;" 
d="M260 600h-131v131h131v-131zM472 600h-131v131h131v-131z" />
    <glyph glyph-name="dotaccent" unicode="&#x2d9;" 
d="M383 600h-166v166h166v-166z" />
    <glyph glyph-name="grave" unicode="`" 
d="M445 716l-36 -116l-254 79l36 116z" />
    <glyph glyph-name="hungarumlaut" unicode="&#x2dd;" 
d="M301 751l-175 -151l-79 92l175 150zM553 752l-159 -150l-83 88l159 151z" />
    <glyph glyph-name="macron" unicode="&#xaf;" 
d="M450 600h-300v121h300v-121z" />
    <glyph glyph-name="ogonek" unicode="&#x2db;" 
d="M356 -158l81 -73c-29 -42 -76 -64 -123 -64c-29 0 -59 9 -85 27c-66 46 -106 171 -12 268c0 1 201 0 201 0c-110 -46 -127 -94 -127 -95l-1 -2c-14 -29 -9 -56 12 -70c18 -13 42 -8 54 9z" />
    <glyph glyph-name="ring" unicode="&#x2da;" 
d="M300 840c66 0 120 -53 120 -120c0 -66 -54 -120 -120 -120c-67 0 -120 54 -120 120c0 67 53 120 120 120zM300 756c-20 0 -37 -16 -37 -36s17 -36 37 -36s36 16 36 36s-16 36 -36 36z" />
    <glyph glyph-name="tilde" unicode="&#x2dc;" 
d="M168 614l-108 55c26 51 72 87 128 98c52 11 106 -1 149 -33c14 -11 33 -15 51 -11c19 4 35 16 44 34l108 -55c-25 -51 -72 -87 -128 -98c-12 -3 -25 -4 -37 -4c-40 0 -79 13 -111 37c-15 11 -33 15 -51 11c-20 -4 -36 -16 -45 -34z" />
    <glyph glyph-name="newGlyph" 
 />
    </font>
</defs>
</svg>
