<?xml version="1.0" standalone="no"?>
<!DOCTYPE svg PUBLIC "-//W3C//DTD SVG 1.1//EN" "http://www.w3.org/Graphics/SVG/1.1/DTD/svg11.dtd" >
<svg xmlns="http://www.w3.org/2000/svg" xmlns:xlink="http://www.w3.org/1999/xlink" version="1.1">
<metadata>
Created by FontForge 20161116 at Fri Oct 17 01:07:30 2014
 By Jimmy Wärting
Created by Jean Baptiste Morizot, certains droits reserves (c) 2014
</metadata>
<defs>
<font id="BluuNext-Bold" horiz-adv-x="355" >
  <font-face 
    font-family="Bluu Next"
    font-weight="700"
    font-stretch="normal"
    units-per-em="1000"
    panose-1="2 0 8 0 0 0 0 0 0 0"
    ascent="740"
    descent="-260"
    x-height="490"
    cap-height="685"
    bbox="-12 -232 1098 927"
    underline-thickness="50"
    underline-position="-100"
    stemh="20"
    stemv="120"
    unicode-range="U+000D-FB02"
  />
<missing-glyph horiz-adv-x="500" 
d="M450 493v-493h-401v493h401zM400 443h-301v-393h301v393zM192 110h-2l49 117h-71l139 159h2l-49 -117h71z" />
    <glyph glyph-name="f_f" unicode="ff" horiz-adv-x="678" 
d="M526 436v-351l94 -85h-288l74 86v350h-197v-359l76 -77h-270l74 86v341l-70 63h75c0 40 55 205 213 205h83v-136h-7c-19 41 -55 101 -115 101c-59 0 -77 -37 -77 -81c0 -30 8 -63 18 -89h202c0 40 55 205 213 205h83v-136h-7c-19 41 -55 101 -115 101
c-59 0 -77 -37 -77 -81c0 -30 8 -63 18 -89h192l-22 -54h-170z" />
    <glyph glyph-name="f_f_l" unicode="ffl" horiz-adv-x="933" 
d="M719 86v350h-193v-352l64 -84h-248l64 86v350h-197v-351l72 -85h-266l74 85v342l-70 63h75c0 40 55 205 213 205h83v-136h-7c-19 41 -55 101 -115 101c-59 0 -77 -37 -77 -81c0 -30 8 -63 18 -89h202c0 40 55 205 213 205h183l32 15v-624l74 -86h-264zM719 488v100
c-31 37 -76 72 -134 72c-59 0 -77 -37 -77 -81c0 -30 8 -63 18 -89h192z" />
    <glyph glyph-name="uni0066006C" unicode="fl" horiz-adv-x="616" 
d="M522 86l74 -86h-264l70 86v350h-193v-352l64 -84h-258l74 86v341l-70 63h75c0 40 55 205 213 205h183l32 15v-624zM402 488v100c-31 37 -76 72 -134 72c-59 0 -77 -37 -77 -81c0 -30 8 -63 18 -89h192z" />
    <glyph glyph-name=".notdef" horiz-adv-x="500" 
d="M450 493v-493h-401v493h401zM400 443h-301v-393h301v393zM192 110h-2l49 117h-71l139 159h2l-49 -117h71z" />
    <glyph glyph-name="A" unicode="A" horiz-adv-x="727" 
d="M414 0l92 69l-61 145h-260l-54 -136l95 -78h-221l71 79l254 616h47l270 -628l75 -67h-308zM313 533l-110 -274h224z" />
    <glyph glyph-name="Aacute" unicode="&#xc1;" horiz-adv-x="730" 
d="M361 740h-15l13 129h131zM192 214l-54 -136l95 -78h-221l71 79l254 616h47l270 -628l75 -67h-308l92 69l-61 145h-260zM436 254l-116 279l-112 -279h228z" />
    <glyph glyph-name="Acircumflex" unicode="&#xc2;" horiz-adv-x="730" 
d="M258 740l62 129h83l63 -129h-15l-89 70l-89 -70h-15zM192 214l-54 -136l95 -78h-221l71 79l254 616h47l270 -628l75 -67h-308l92 69l-61 145h-260zM436 254l-116 279l-112 -279h228z" />
    <glyph glyph-name="Adieresis" unicode="&#xc4;" horiz-adv-x="730" 
d="M159 830l77 87l77 -87l-77 -88zM392 830l78 87l76 -87l-76 -88zM192 214l-54 -136l95 -78h-221l71 79l254 616h47l270 -628l75 -67h-308l92 69l-61 145h-260zM436 254l-116 279l-112 -279h228z" />
    <glyph glyph-name="Agrave" unicode="&#xc0;" horiz-adv-x="730" 
d="M353 740l-129 129h131l13 -129h-15zM192 214l-54 -136l95 -78h-221l71 79l254 616h47l270 -628l75 -67h-308l92 69l-61 145h-260zM436 254l-116 279l-112 -279h228z" />
    <glyph glyph-name="Aring" unicode="&#xc5;" horiz-adv-x="730" 
d="M262 829c0 54 44 98 98 98s98 -44 98 -98s-44 -98 -98 -98s-98 44 -98 98zM296 829c0 -35 29 -64 64 -64s64 29 64 64s-29 64 -64 64s-64 -29 -64 -64zM192 214l-54 -136l95 -78h-221l71 79l254 616h47l270 -628l75 -67h-308l92 69l-61 145h-260zM436 254l-116 279
l-112 -279h228z" />
    <glyph glyph-name="Atilde" unicode="&#xc3;" horiz-adv-x="727" 
d="M490 868l-59 -101c-49 4 -105 11 -154 11c-13 0 -27 -21 -40 -43l-14 9l63 107c46 -4 99 -11 145 -11c15 0 29 15 44 34zM414 0l92 69l-61 145h-260l-54 -136l95 -78h-221l71 79l254 616h47l270 -628l75 -67h-308zM313 533l-110 -274h224z" />
    <glyph glyph-name="AE" unicode="&#xc6;" horiz-adv-x="910" 
d="M874 0h-501l60 106v108h-226l-81 -138l83 -76h-209l75 85l322 540l-77 61h198l-1 -1h338v-210h-6l-122 174h-164v-277h273v-40h-273v-296h173l144 183l5 -2zM433 598l-4 3l-13 -26l-186 -321h203v344z" />
    <glyph glyph-name="B" unicode="B" horiz-adv-x="630" 
d="M40 685h229c168 0 282 -32 282 -151c0 -90 -84 -134 -158 -162c125 -28 202 -87 202 -189c0 -144 -193 -183 -335 -183h-220l60 106v475zM230 653v-275c128 0 192 58 192 136c0 120 -89 139 -158 139h-34zM230 39h31c102 0 187 51 187 147c0 132 -90 167 -218 167v-314z
" />
    <glyph glyph-name="C" unicode="C" horiz-adv-x="651" 
d="M565 482h-13c-33 84 -101 162 -205 162c-117 0 -167 -106 -167 -238c0 -169 68 -301 208 -301c121 0 181 65 213 116l15 -10c-44 -104 -136 -223 -289 -223c-180 0 -292 135 -292 331c0 178 133 366 374 366h156v-203z" />
    <glyph glyph-name="Cacute" unicode="&#x106;" horiz-adv-x="651" 
d="M341 740h-15l13 129h131zM565 482h-13c-33 84 -101 162 -205 162c-117 0 -167 -106 -167 -238c0 -169 68 -301 208 -301c121 0 181 65 213 116l15 -10c-44 -104 -136 -223 -289 -223c-180 0 -292 135 -292 331c0 178 133 366 374 366h156v-203z" />
    <glyph glyph-name="Ccaron" unicode="&#x10c;" horiz-adv-x="651" 
d="M361 799l89 70h15l-63 -129h-83l-62 129h15zM565 482h-13c-33 84 -101 162 -205 162c-117 0 -167 -106 -167 -238c0 -169 68 -301 208 -301c121 0 181 65 213 116l15 -10c-44 -104 -136 -223 -289 -223c-180 0 -292 135 -292 331c0 178 133 366 374 366h156v-203z" />
    <glyph glyph-name="Ccedilla" unicode="&#xc7;" horiz-adv-x="651" 
d="M565 482h-13c-33 84 -101 162 -205 162c-117 0 -167 -106 -167 -238c0 -169 68 -301 208 -301c121 0 181 65 213 116l15 -10c-44 -104 -136 -223 -289 -223c-180 0 -292 135 -292 331c0 178 133 366 374 366h156v-203zM341 -12l-12 -22c29 -11 90 -29 90 -62
c0 -49 -48 -75 -98 -75c-34 0 -56 11 -82 34l11 18c20 -19 44 -28 73 -28c27 0 51 9 51 23c0 32 -69 35 -109 45v3l45 64h31z" />
    <glyph glyph-name="Ccircumflex" unicode="&#x108;" horiz-adv-x="651" 
d="M264 740l62 129h83l63 -129h-15l-89 70l-89 -70h-15zM565 482h-13c-33 84 -101 162 -205 162c-117 0 -167 -106 -167 -238c0 -169 68 -301 208 -301c121 0 181 65 213 116l15 -10c-44 -104 -136 -223 -289 -223c-180 0 -292 135 -292 331c0 178 133 366 374 366h156v-203
z" />
    <glyph glyph-name="D" unicode="D" horiz-adv-x="735" 
d="M40 685h266c302 0 394 -171 394 -313c0 -231 -165 -372 -411 -372h-249l74 106v473zM244 38h63c212 0 255 184 255 306c0 200 -90 309 -248 309h-70v-615z" />
    <glyph glyph-name="Eth" unicode="&#xd0;" horiz-adv-x="708" 
d="M25 685h266c302 0 382 -161 382 -303c0 -242 -153 -382 -399 -382h-249l74 106v222h-74v50h74v201zM229 38h63c212 0 241 184 241 306c0 200 -76 309 -234 309h-70v-275h146v-50h-146v-290z" />
    <glyph glyph-name="Dcaron" unicode="&#x10e;" horiz-adv-x="735" 
d="M348 799l89 70h15l-63 -129h-83l-62 129h15zM40 685h266c302 0 394 -171 394 -313c0 -231 -165 -372 -411 -372h-249l74 106v473zM244 38h63c212 0 255 184 255 306c0 200 -90 309 -248 309h-70v-615z" />
    <glyph glyph-name="E" unicode="E" horiz-adv-x="592" 
d="M552 217l-11 -217h-501l60 106v475l-60 104h482v-210h-12l-110 174h-170v-277h273v-45h-273v-291h179l132 183z" />
    <glyph glyph-name="Eacute" unicode="&#xc9;" horiz-adv-x="592" 
d="M258 740l13 129h131l-129 -129h-15zM541 0h-501l60 106v475l-60 104h482v-210h-12l-110 174h-170v-277h273v-45h-273v-291h179l132 183l11 -2z" />
    <glyph glyph-name="Ecaron" unicode="&#x11a;" horiz-adv-x="592" 
d="M308 799l89 70h15l-63 -129h-83l-62 129h15zM541 0h-501l60 106v475l-60 104h482v-210h-12l-110 174h-170v-277h273v-45h-273v-291h179l132 183l11 -2z" />
    <glyph glyph-name="Ecircumflex" unicode="&#xca;" horiz-adv-x="592" 
d="M199 740l62 129h83l63 -129h-15l-89 70l-89 -70h-15zM541 0h-501l60 106v475l-60 104h482v-210h-12l-110 174h-170v-277h273v-45h-273v-291h179l132 183l11 -2z" />
    <glyph glyph-name="Edieresis" unicode="&#xcb;" horiz-adv-x="592" 
d="M110 829l78 87l76 -87l-76 -88zM344 829l78 87l76 -87l-76 -88zM541 0h-501l60 106v475l-60 104h482v-210h-12l-110 174h-170v-277h273v-45h-273v-291h179l132 183l11 -2z" />
    <glyph glyph-name="Edotaccent" unicode="&#x116;" horiz-adv-x="592" 
d="M231 820l71 80l70 -80l-70 -81zM541 0h-501l60 106v475l-60 104h482v-210h-12l-110 174h-170v-277h273v-45h-273v-291h179l132 183l11 -2z" />
    <glyph glyph-name="Egrave" unicode="&#xc8;" horiz-adv-x="592" 
d="M327 740l-129 129h131l13 -129h-15zM541 0h-501l60 106v475l-60 104h482v-210h-12l-110 174h-170v-277h273v-45h-273v-291h179l132 183l11 -2z" />
    <glyph glyph-name="F" unicode="F" horiz-adv-x="562" 
d="M40 6l60 100v475l-60 104h482v-204h-10l-112 168h-170v-280h265v-46h-265v-217l107 -106h-297v6z" />
    <glyph glyph-name="G" unicode="G" horiz-adv-x="687" 
d="M663 309v-10l-53 -37v-268h-15l-95 53c-48 -33 -107 -60 -173 -60c-180 0 -292 135 -292 331c0 178 133 366 374 366h156v-203h-13c-46 80 -99 162 -212 162c-101 0 -156 -81 -156 -238c0 -154 37 -345 215 -345c20 0 56 6 83 19v166l-105 53v11h286z" />
    <glyph glyph-name="H" unicode="H" horiz-adv-x="780" 
d="M665 106l74 -106h-278l74 106v227h-301v-227l74 -106h-278l74 106v474l-73 105h278l-75 -106v-201h301v202l-73 105h278l-75 -106v-473z" />
    <glyph glyph-name="I" unicode="I" horiz-adv-x="358" 
d="M318 0h-278l74 106v473l-74 106h278l-74 -106v-473z" />
    <glyph glyph-name="IJ" unicode="&#x132;" horiz-adv-x="691" 
d="M318 0h-278l74 106v473l-74 106h278l-74 -106v-473zM651 685l-74 -106v-575c0 -77 -89 -146 -145 -180l-7 4c12 25 22 66 22 99v652l-74 106h278z" />
    <glyph glyph-name="Iacute" unicode="&#xcd;" horiz-adv-x="358" 
d="M156 740h-15l13 129h131zM318 0h-278l74 106v473l-74 106h278l-74 -106v-473z" />
    <glyph glyph-name="Icircumflex" unicode="&#xce;" horiz-adv-x="358" 
d="M78 740l62 129h83l63 -129h-15l-89 70l-89 -70h-15zM318 0h-278l74 106v473l-74 106h278l-74 -106v-473z" />
    <glyph glyph-name="Idieresis" unicode="&#xcf;" horiz-adv-x="446" 
d="M30 830l76 87l78 -87l-78 -88zM262 830l78 87l76 -87l-76 -88zM362 0h-278l74 106v473l-74 106h278l-74 -106v-473z" />
    <glyph glyph-name="Igrave" unicode="&#xcc;" horiz-adv-x="358" 
d="M203 740l-129 129h131l13 -129h-15zM318 0h-278l74 106v473l-74 106h278l-74 -106v-473z" />
    <glyph glyph-name="J" unicode="J" horiz-adv-x="338" 
d="M308 685l-74 -106v-575c0 -77 -89 -146 -145 -180l-7 4c12 25 22 66 22 99v652l-74 106h278z" />
    <glyph glyph-name="K" unicode="K" horiz-adv-x="769" 
d="M428 0l46 63l-188 261l-42 -42v-176l74 -106h-278l74 106v474l-74 106h278l-74 -106v-235l148 150l110 116l-32 75h232l-145 -90l-175 -175l257 -345l118 -76h-329z" />
    <glyph glyph-name="L" unicode="L" horiz-adv-x="610" 
d="M580 216l-11 -216h-529l60 106v475l-60 104h266l-76 -105v-535h208l132 171h10z" />
    <glyph glyph-name="Lacute" unicode="&#x139;" horiz-adv-x="610" 
d="M163 740h-15l13 129h131zM580 216l-11 -216h-529l60 106v475l-60 104h266l-76 -105v-535h208l132 171h10z" />
    <glyph glyph-name="Lcaron" unicode="&#x13d;" horiz-adv-x="614" 
d="M413 429l-14 10c34 28 65 66 65 104c0 26 -16 38 -29 52l-39 31l83 85c33 -20 81 -63 81 -97c0 -98 -125 -171 -147 -185zM580 216l-11 -216h-529l60 106v475l-60 104h266l-76 -105v-535h208l132 171h10z" />
    <glyph glyph-name="Ldot" unicode="&#x13f;" horiz-adv-x="614" 
d="M580 216l-11 -216h-529l60 106v475l-60 104h266l-76 -105v-535h208l132 171h10zM457 287l-86 92l86 93l85 -93z" />
    <glyph glyph-name="Lslash" unicode="&#x141;" horiz-adv-x="624" 
d="M578 0h-529l60 106v183l-99 -29v62l99 29v230l-60 104h266l-76 -105v-191l131 39v-64l-131 -38v-290h201l139 179h10z" />
    <glyph glyph-name="M" unicode="M" horiz-adv-x="916" 
d="M153 96l81 -96h-205l77 96v485l-86 104h198l238 -500l215 500h209l-74 -82v-498l75 -105h-289l84 104v483l-259 -599h-7l-257 520v-412z" />
    <glyph glyph-name="N" unicode="N" horiz-adv-x="756" 
d="M647 58l43 -58h-155l-367 489v-403l85 -86h-206l74 93v465l-97 127h165l410 -571v485l-86 86h208l-74 -93v-534z" />
    <glyph glyph-name="Nacute" unicode="&#x143;" horiz-adv-x="756" 
d="M361 740h-15l13 129h131zM164 487v-401l86 -86h-214l74 93v465l-97 127h165l415 -555v469l-86 86h214l-74 -93v-534l43 -58h-155z" />
    <glyph glyph-name="Ncaron" unicode="&#x147;" horiz-adv-x="756" 
d="M380 799l89 70h15l-63 -129h-83l-62 129h15zM164 487v-401l86 -86h-214l74 93v465l-97 127h165l415 -555v469l-86 86h214l-74 -93v-534l43 -58h-155z" />
    <glyph glyph-name="Ntilde" unicode="&#xd1;" horiz-adv-x="756" 
d="M511 836l-59 -101c-49 4 -105 11 -154 11c-13 0 -27 -21 -40 -43l-14 9l63 107c46 -4 99 -11 145 -11c15 0 29 15 44 34zM647 58l43 -58h-155l-367 489v-403l85 -86h-206l74 93v465l-97 127h165l410 -571v485l-86 86h208l-74 -93v-534z" />
    <glyph glyph-name="O" unicode="O" horiz-adv-x="738" 
d="M703 373c0 -201 -128 -385 -372 -385c-184 0 -296 162 -296 325c0 201 128 385 372 385c184 0 296 -162 296 -325zM336 655c-135 0 -159 -142 -159 -221c0 -206 83 -404 225 -404c120 0 161 143 161 222c0 206 -85 403 -227 403z" />
    <glyph glyph-name="Oacute" unicode="&#xd3;" horiz-adv-x="738" 
d="M346 740h-15l13 129h131zM703 373c0 -201 -128 -385 -372 -385c-184 0 -296 162 -296 325c0 201 128 385 372 385c184 0 296 -162 296 -325zM336 655c-135 0 -159 -142 -159 -221c0 -206 83 -404 225 -404c120 0 161 143 161 222c0 206 -85 403 -227 403z" />
    <glyph glyph-name="Ocircumflex" unicode="&#xd4;" horiz-adv-x="738" 
d="M263 740l62 129h83l63 -129h-15l-89 70l-89 -70h-15zM703 373c0 -201 -128 -385 -372 -385c-184 0 -296 162 -296 325c0 201 128 385 372 385c184 0 296 -162 296 -325zM336 655c-135 0 -159 -142 -159 -221c0 -206 83 -404 225 -404c120 0 161 143 161 222
c0 206 -85 403 -227 403z" />
    <glyph glyph-name="Odieresis" unicode="&#xd6;" horiz-adv-x="738" 
d="M171 828l78 87l76 -87l-76 -88zM405 828l78 87l76 -87l-76 -88zM703 373c0 -201 -128 -385 -372 -385c-184 0 -296 162 -296 325c0 201 128 385 372 385c184 0 296 -162 296 -325zM336 655c-135 0 -159 -142 -159 -221c0 -206 83 -404 225 -404c120 0 161 143 161 222
c0 206 -85 403 -227 403z" />
    <glyph glyph-name="Ograve" unicode="&#xd2;" horiz-adv-x="738" 
d="M337 740l-129 129h131l13 -129h-15zM703 373c0 -201 -128 -385 -372 -385c-184 0 -296 162 -296 325c0 201 128 385 372 385c184 0 296 -162 296 -325zM336 655c-135 0 -159 -142 -159 -221c0 -206 83 -404 225 -404c120 0 161 143 161 222c0 206 -85 403 -227 403z" />
    <glyph glyph-name="Oslash" unicode="&#xd8;" horiz-adv-x="752" 
d="M722 690l-86 -96c50 -60 77 -141 77 -221c0 -201 -128 -385 -372 -385c-75 0 -139 27 -187 70l-57 -63h-67l90 100c-49 60 -75 139 -75 218c0 201 128 385 372 385c74 0 136 -26 184 -68l54 60h67zM223 209l289 322c-39 75 -95 124 -166 124c-135 0 -159 -142 -159 -221
c0 -80 12 -158 36 -225zM534 481l-290 -322c39 -78 96 -129 168 -129c120 0 161 143 161 222c0 82 -13 162 -39 229z" />
    <glyph glyph-name="Otilde" unicode="&#xd5;" horiz-adv-x="738" 
d="M222 739l63 107c46 -4 99 -11 145 -11c15 0 29 15 44 34l15 -6l-59 -101c-49 4 -105 11 -154 11c-13 0 -27 -21 -40 -43zM703 373c0 -201 -128 -385 -372 -385c-184 0 -296 162 -296 325c0 201 128 385 372 385c184 0 296 -162 296 -325zM336 655
c-135 0 -159 -142 -159 -221c0 -206 83 -404 225 -404c120 0 161 143 161 222c0 206 -85 403 -227 403z" />
    <glyph glyph-name="OE" unicode="&#x152;" horiz-adv-x="994" 
d="M905 372v-40h-273v-296h179l132 177l11 -2l-11 -211h-612c-184 0 -296 150 -296 313c0 201 128 372 372 372h517v-204h-12l-110 168h-170v-277h273zM501 648h-123c-170 0 -201 -177 -201 -252c0 -196 83 -360 225 -360h99v612z" />
    <glyph glyph-name="P" unicode="P" horiz-adv-x="588" 
d="M40 0l74 106v473l-74 106h240c97 0 278 -17 278 -183c0 -123 -117 -192 -222 -205c-32 -5 -69 -7 -92 -7v-184l90 -106h-294zM244 655v-331c109 0 172 54 172 166s-65 165 -172 165z" />
    <glyph glyph-name="Thorn" unicode="&#xde;" horiz-adv-x="605" 
d="M244 558h36c71 0 278 -17 278 -183c0 -123 -117 -192 -222 -205c-32 -5 -69 -7 -92 -7v-57l90 -106h-294l74 106v473l-74 106h278l-74 -106v-21zM244 528v-331c109 0 172 54 172 166s-65 165 -172 165z" />
    <glyph glyph-name="Q" unicode="Q" horiz-adv-x="738" 
d="M586 -119l-4 -6c-72 26 -142 69 -211 120c-13 -1 -26 -2 -40 -2c-184 0 -296 157 -296 320c0 201 128 380 372 380c184 0 296 -157 296 -320c0 -129 -53 -249 -155 -319zM336 650c-135 0 -159 -137 -159 -216c0 -206 83 -399 225 -399c120 0 161 138 161 217
c0 206 -85 398 -227 398z" />
    <glyph glyph-name="R" unicode="R" horiz-adv-x="696" 
d="M686 0h-202c-68 116 -135 233 -192 312l-48 -4v-202l74 -106h-278l74 106v473l-74 106h253c90 0 287 -11 287 -177c0 -82 -74 -139 -155 -169l155 -241zM244 655v-314c96 2 189 53 189 155c0 120 -82 159 -189 159z" />
    <glyph glyph-name="Racute" unicode="&#x154;" horiz-adv-x="696" 
d="M301 740h-15l13 129h131zM686 0h-202c-68 116 -135 233 -192 312l-48 -4v-202l74 -106h-278l74 106v473l-74 106h253c90 0 287 -11 287 -177c0 -82 -74 -139 -155 -169l155 -241zM244 655v-314c96 2 189 53 189 155c0 120 -82 159 -189 159z" />
    <glyph glyph-name="Rcaron" unicode="&#x158;" horiz-adv-x="696" 
d="M310 799l89 70h15l-63 -129h-83l-62 129h15zM686 0h-202c-68 116 -135 233 -192 312l-48 -4v-202l74 -106h-278l74 106v473l-74 106h253c90 0 287 -11 287 -177c0 -82 -74 -139 -155 -169l155 -241zM244 655v-314c96 2 189 53 189 155c0 120 -82 159 -189 159z" />
    <glyph glyph-name="S" unicode="S" horiz-adv-x="533" 
d="M35 268h12c33 -130 125 -238 232 -238c45 0 104 27 104 100c0 190 -345 138 -345 370c0 95 69 185 217 185h143l48 15v-216l-12 1c-33 106 -112 168 -203 168c-55 0 -95 -33 -95 -91c0 -167 357 -146 357 -358c0 -149 -115 -212 -247 -212c-65 0 -150 14 -199 36z" />
    <glyph glyph-name="Sacute" unicode="&#x15a;" horiz-adv-x="533" 
d="M253 740h-15l13 129h131zM35 268h12c33 -130 125 -238 232 -238c57 0 104 40 104 100c0 190 -345 138 -345 370c0 95 69 185 217 185h143l48 15v-216l-12 1c-33 106 -112 168 -203 168c-55 0 -95 -33 -95 -91c0 -167 357 -146 357 -358c0 -149 -115 -212 -247 -212
c-65 0 -150 14 -199 36z" />
    <glyph glyph-name="Scaron" unicode="&#x160;" horiz-adv-x="533" 
d="M279 799l89 70h15l-63 -129h-83l-62 129h15zM35 268h12c33 -130 125 -238 232 -238c57 0 104 40 104 100c0 190 -345 138 -345 370c0 95 69 185 217 185h143l48 15v-216l-12 1c-33 106 -112 168 -203 168c-55 0 -95 -33 -95 -91c0 -167 357 -146 357 -358
c0 -149 -115 -212 -247 -212c-65 0 -150 14 -199 36z" />
    <glyph glyph-name="T" unicode="T" horiz-adv-x="660" 
d="M19 466v219h603v-219l-8 -1l-129 185h-100v-544l74 -106h-278l74 106v543h-100l-128 -184z" />
    <glyph glyph-name="Tcaron" unicode="&#x164;" horiz-adv-x="660" 
d="M314 799l89 70h15l-63 -129h-83l-62 129h15zM19 466v219h603v-219l-8 -1l-129 185h-100v-544l74 -106h-278l74 106v543h-100l-128 -184z" />
    <glyph glyph-name="U" unicode="U" horiz-adv-x="781" 
d="M655 595l-1 -3v-315c0 -91 -13 -129 -41 -181c-36 -66 -113 -111 -216 -111c-61 0 -284 0 -284 236v359l-73 105h278l-74 -106v-343c0 -185 93 -203 190 -203c80 0 172 44 172 268v294l-85 90h225z" />
    <glyph glyph-name="Uacute" unicode="&#xda;" horiz-adv-x="763" 
d="M398 740h-15l13 129h131zM244 579v-343c0 -185 93 -203 190 -203c80 0 172 44 172 268v294l-77 90h199l-74 -90v-318c0 -91 -13 -129 -41 -181c-36 -66 -113 -111 -216 -111c-61 0 -284 0 -284 236v359l-73 105h278z" />
    <glyph glyph-name="Ucircumflex" unicode="&#xdb;" horiz-adv-x="763" 
d="M309 740l62 129h83l63 -129h-15l-89 70l-89 -70h-15zM244 579v-343c0 -185 93 -203 190 -203c80 0 172 44 172 268v294l-77 90h199l-74 -90v-318c0 -91 -13 -129 -41 -181c-36 -66 -113 -111 -216 -111c-61 0 -284 0 -284 236v359l-73 105h278z" />
    <glyph glyph-name="Udieresis" unicode="&#xdc;" horiz-adv-x="763" 
d="M222 828l81 91l81 -91l-81 -92zM467 828l82 91l80 -91l-80 -92zM244 579v-343c0 -185 93 -203 190 -203c80 0 172 44 172 268v294l-77 90h199l-74 -90v-318c0 -91 -13 -129 -41 -181c-36 -66 -113 -111 -216 -111c-61 0 -284 0 -284 236v359l-73 105h278z" />
    <glyph glyph-name="Ugrave" unicode="&#xd9;" horiz-adv-x="763" 
d="M438 740l-129 129h131l13 -129h-15zM244 579v-343c0 -185 93 -203 190 -203c80 0 172 44 172 268v294l-77 90h199l-74 -90v-318c0 -91 -13 -129 -41 -181c-36 -66 -113 -111 -216 -111c-61 0 -284 0 -284 236v359l-73 105h278z" />
    <glyph glyph-name="Uring" unicode="&#x16e;" horiz-adv-x="763" 
d="M315 808c0 54 44 98 98 98s98 -44 98 -98s-44 -98 -98 -98s-98 44 -98 98zM349 808c0 -35 29 -64 64 -64s64 29 64 64s-29 64 -64 64s-64 -29 -64 -64zM244 579v-343c0 -185 93 -203 190 -203c80 0 172 44 172 268v294l-77 90h199l-74 -90v-318c0 -91 -13 -129 -41 -181
c-36 -66 -113 -111 -216 -111c-61 0 -284 0 -284 236v359l-73 105h278z" />
    <glyph glyph-name="V" unicode="V" horiz-adv-x="681" 
d="M383 138l169 461l-85 86h209l-70 -89l-239 -616h-48l-264 646l-52 59h273l-80 -61l174 -439z" />
    <glyph glyph-name="W" unicode="W" horiz-adv-x="1005" 
d="M731 141l150 457l-86 87h209l-68 -86l-214 -611h-61l-145 389l-142 -389h-61l-248 638l-52 59h273l-80 -61l164 -439l10 -37l114 288l-72 192l-50 57h273l-81 -61l155 -439z" />
    <glyph glyph-name="Wacute" unicode="&#x1e82;" horiz-adv-x="1005" 
d="M509 740h-15l13 129h131zM731 141l150 457l-86 87h209l-68 -86l-214 -611h-61l-145 389l-142 -389h-61l-248 638l-52 59h273l-80 -61l164 -439l10 -37l114 288l-72 192l-50 57h273l-81 -61l155 -439z" />
    <glyph glyph-name="Wcircumflex" unicode="&#x174;" horiz-adv-x="1005" 
d="M408 740l62 129h83l63 -129h-15l-89 70l-89 -70h-15zM731 141l150 457l-86 87h209l-68 -86l-214 -611h-61l-145 389l-142 -389h-61l-248 638l-52 59h273l-80 -61l164 -439l10 -37l114 288l-72 192l-50 57h273l-81 -61l155 -439z" />
    <glyph glyph-name="Wdieresis" unicode="&#x1e84;" horiz-adv-x="1005" 
d="M313 829l78 87l76 -87l-76 -88zM547 829l78 87l76 -87l-76 -88zM731 141l150 457l-86 87h209l-68 -86l-214 -611h-61l-145 389l-142 -389h-61l-248 638l-52 59h273l-80 -61l164 -439l10 -37l114 288l-72 192l-50 57h273l-81 -61l155 -439z" />
    <glyph glyph-name="Wgrave" unicode="&#x1e80;" horiz-adv-x="1005" 
d="M512 740l-129 129h131l13 -129h-15zM731 141l150 457l-86 87h209l-68 -86l-214 -611h-61l-145 389l-142 -389h-61l-248 638l-52 59h273l-80 -61l164 -439l10 -37l114 288l-72 192l-50 57h273l-81 -61l155 -439z" />
    <glyph glyph-name="X" unicode="X" horiz-adv-x="722" 
d="M471 99l-144 195l-144 -200l80 -94h-259l105 104l183 237l-175 238l-103 106h316l-80 -97l134 -175l124 171l-73 101h260l-118 -103l-159 -211l197 -265l107 -106h-340z" />
    <glyph glyph-name="Y" unicode="Y" horiz-adv-x="689" 
d="M409 106l74 -106h-278l74 106v175l-178 298l-91 106h321l-85 -106h-1l118 -189l16 -33l131 224l-85 104h254l-103 -94l-167 -273v-212z" />
    <glyph glyph-name="Yacute" unicode="&#xdd;" horiz-adv-x="689" 
d="M350 740l13 129h131l-129 -129h-15zM493 0h-298l84 101v180l-178 298l-91 106h321l-85 -106h-1l118 -189l16 -33l131 224l-85 104h254l-103 -94l-167 -273v-217z" />
    <glyph glyph-name="Ycircumflex" unicode="&#x176;" horiz-adv-x="689" 
d="M272 740l62 129h83l63 -129h-15l-89 70l-89 -70h-15zM409 101l84 -101h-298l84 101v180l-178 298l-91 106h321l-85 -106h-1l118 -189l16 -33l131 224l-85 104h254l-103 -94l-167 -273v-217z" />
    <glyph glyph-name="Ydieresis" unicode="&#x178;" horiz-adv-x="689" 
d="M173 830l77 87l77 -87l-77 -88zM406 830l78 87l76 -87l-76 -88zM409 101l84 -101h-298l84 101v180l-178 298l-91 106h321l-85 -106h-1l118 -189l16 -33l131 224l-85 104h254l-103 -94l-167 -273v-217z" />
    <glyph glyph-name="Ygrave" unicode="&#x1ef2;" horiz-adv-x="689" 
d="M375 740l-129 129h131l13 -129h-15zM409 101l84 -101h-298l84 101v180l-178 298l-91 106h321l-85 -106h-1l118 -189l16 -33l131 224l-85 104h254l-103 -94l-167 -273v-217z" />
    <glyph glyph-name="Z" unicode="Z" horiz-adv-x="668" 
d="M623 216l-11 -217h-575l-7 12l418 627h-238l-132 -173h-4l6 229l106 -10h429l7 -14l-424 -626h283l138 172h4z" />
    <glyph glyph-name="Zacute" unicode="&#x179;" horiz-adv-x="668" 
d="M302 740h-15l18 129h126zM192 36h284l139 179h8l-11 -215h-575l-7 12l425 637h-239l-134 -181h-8l6 227l106 -10h429l7 -14z" />
    <glyph glyph-name="Zcaron" unicode="&#x17d;" horiz-adv-x="668" 
d="M342 799l89 70h15l-63 -129h-83l-62 129h15zM192 36h284l139 179h8l-11 -215h-575l-7 12l425 637h-239l-134 -181h-8l6 227l106 -10h429l7 -14z" />
    <glyph glyph-name="Zdotaccent" unicode="&#x17b;" horiz-adv-x="668" 
d="M261 820l71 80l70 -80l-70 -81zM192 36h284l139 179h8l-11 -215h-575l-7 12l425 637h-239l-134 -181h-8l6 227l106 -10h429l7 -14z" />
    <glyph glyph-name="a" unicode="a" horiz-adv-x="534" 
d="M319 0v84c-38 -37 -108 -94 -174 -94c-69 0 -120 34 -120 115c0 102 121 154 294 215c0 80 -2 142 -84 142c-80 0 -128 -56 -179 -132h-7v160h412l-22 -86v-339h1l74 -65h-195zM319 111v181c-157 -63 -162 -106 -162 -154s33 -69 75 -69c31 0 62 16 87 42z" />
    <glyph glyph-name="aacute" unicode="&#xe1;" horiz-adv-x="534" 
d="M227 552h-15l18 129h126zM319 0v84c-38 -37 -108 -94 -174 -94c-69 0 -120 34 -120 115c0 102 121 154 294 205c0 90 -2 145 -93 145c-84 0 -133 -51 -170 -125h-7v160h438l-48 -65v-360h1l74 -65h-195zM319 111v172c-122 -38 -162 -97 -162 -145s33 -69 75 -69
c31 0 62 16 87 42z" />
    <glyph glyph-name="acircumflex" unicode="&#xe2;" horiz-adv-x="534" 
d="M156 552l57 129h83l58 -129h-16l-83 73l-85 -73h-14zM319 0v84c-38 -37 -108 -94 -174 -94c-69 0 -120 34 -120 115c0 102 121 154 294 205c0 90 -2 145 -93 145c-84 0 -133 -51 -170 -125h-7v160h438l-48 -65v-360h1l74 -65h-195zM319 111v172
c-122 -38 -162 -97 -162 -145s33 -69 75 -69c31 0 62 16 87 42z" />
    <glyph glyph-name="adieresis" unicode="&#xe4;" horiz-adv-x="534" 
d="M92 622l68 76l67 -76l-67 -77zM297 622l68 76l67 -76l-67 -77zM319 0v84c-38 -37 -108 -94 -174 -94c-69 0 -120 34 -120 115c0 102 121 154 294 205c0 90 -2 145 -93 145c-84 0 -133 -51 -170 -125h-7v160h438l-48 -65v-360h1l74 -65h-195zM319 111v172
c-122 -38 -162 -97 -162 -145s33 -69 75 -69c31 0 62 16 87 42z" />
    <glyph glyph-name="agrave" unicode="&#xe0;" horiz-adv-x="534" 
d="M306 552l-129 129h126l18 -129h-15zM319 0v84c-38 -37 -108 -94 -174 -94c-69 0 -120 34 -120 115c0 102 121 154 294 205c0 90 -2 145 -93 145c-84 0 -133 -51 -170 -125h-7v160h438l-48 -65v-360h1l74 -65h-195zM319 111v172c-122 -38 -162 -97 -162 -145
s33 -69 75 -69c31 0 62 16 87 42z" />
    <glyph glyph-name="aring" unicode="&#xe5;" horiz-adv-x="534" 
d="M174 635c0 49 40 89 89 89s89 -40 89 -89s-40 -89 -89 -89s-89 40 -89 89zM202 635c0 -34 27 -61 61 -61s61 27 61 61s-27 61 -61 61s-61 -27 -61 -61zM319 0v84c-38 -37 -108 -94 -174 -94c-69 0 -120 34 -120 115c0 102 121 154 294 205c0 90 -2 145 -93 145
c-84 0 -133 -51 -170 -125h-7v160h438l-48 -65v-360h1l74 -65h-195zM319 111v172c-122 -38 -162 -97 -162 -145s33 -69 75 -69c31 0 62 16 87 42z" />
    <glyph glyph-name="atilde" unicode="&#xe3;" horiz-adv-x="534" 
d="M133 571l63 109c46 -4 93 -13 139 -13c15 0 29 15 44 34l15 -6l-59 -103c-49 4 -99 13 -148 13c-13 0 -27 -21 -40 -43zM319 0v84c-38 -37 -108 -94 -174 -94c-69 0 -120 34 -120 115c0 102 121 154 294 205c0 90 -2 145 -93 145c-84 0 -133 -51 -170 -125h-7v160h438
l-48 -65v-360h1l74 -65h-195zM319 111v172c-122 -38 -162 -97 -162 -145s33 -69 75 -69c31 0 62 16 87 42z" />
    <glyph glyph-name="ae" unicode="&#xe6;" horiz-adv-x="775" 
d="M745 284h-321c11 -129 80 -183 158 -183c68 0 128 34 143 76l15 -6c-36 -91 -107 -183 -226 -183c-82 0 -141 46 -175 109c-62 -69 -133 -107 -194 -107c-69 0 -120 34 -120 115c0 102 121 154 294 205c10 90 -3 148 -93 148c-76 0 -137 -47 -171 -114h-6v146h427
c23 8 48 12 76 12c120 0 193 -81 193 -218zM422 310h193c1 4 1 9 1 13c0 107 -43 149 -87 149c-76 0 -107 -91 -107 -151v-11zM232 69c29 0 68 14 96 52c-12 32 -19 68 -19 104c0 19 2 38 5 56c-118 -38 -157 -96 -157 -143c0 -48 33 -69 75 -69z" />
    <glyph glyph-name="b" unicode="b" horiz-adv-x="598" 
d="M208 710v-285c36 42 80 75 153 75c130 0 200 -115 200 -235c0 -111 -69 -274 -260 -274c-30 0 -91 9 -141 23l-72 -25v587l-68 77zM208 398v-295c29 -33 77 -68 132 -68c88 0 103 69 103 139c0 156 -61 252 -152 252c-27 0 -53 -9 -83 -28z" />
    <glyph glyph-name="c" unicode="c" horiz-adv-x="468" 
d="M414 330h-7c-35 71 -80 125 -157 125s-105 -71 -105 -139c0 -156 70 -209 149 -209c69 0 121 55 133 90l11 -4c-21 -81 -89 -205 -213 -205c-131 0 -195 117 -195 237c0 119 73 265 264 265h120v-160z" />
    <glyph glyph-name="cacute" unicode="&#x107;" horiz-adv-x="468" 
d="M256 552h-15l18 129h126zM414 354h-5c-29 44 -80 101 -154 101c-84 0 -110 -69 -110 -139c0 -156 70 -209 149 -209c69 0 121 55 133 90l11 -4c-21 -81 -89 -205 -213 -205c-131 0 -195 117 -195 237c0 119 73 265 264 265h120v-136z" />
    <glyph glyph-name="ccaron" unicode="&#x10d;" horiz-adv-x="468" 
d="M259 608l83 73h16l-58 -129h-83l-57 129h14zM414 354h-5c-29 44 -80 101 -154 101c-84 0 -110 -69 -110 -139c0 -156 70 -209 149 -209c69 0 121 55 133 90l11 -4c-21 -81 -89 -205 -213 -205c-131 0 -195 117 -195 237c0 119 73 265 264 265h120v-136z" />
    <glyph glyph-name="ccedilla" unicode="&#xe7;" horiz-adv-x="468" 
d="M414 354h-5c-29 44 -80 101 -154 101c-84 0 -110 -69 -110 -139c0 -156 70 -209 149 -209c69 0 121 55 133 90l11 -4c-20 -78 -84 -196 -200 -205l-12 -22c29 -11 86 -29 86 -62c0 -36 -44 -66 -94 -66c-29 0 -52 9 -75 29l7 14c20 -17 43 -26 70 -26s47 7 47 17
c0 39 -102 41 -102 56l42 61c-119 10 -177 122 -177 236c0 119 73 265 264 265h120v-136z" />
    <glyph glyph-name="ccircumflex" unicode="&#x109;" horiz-adv-x="468" 
d="M156 552l57 129h83l58 -129h-16l-83 73l-85 -73h-14zM414 354h-5c-29 44 -80 101 -154 101c-84 0 -110 -69 -110 -139c0 -156 70 -209 149 -209c69 0 121 55 133 90l11 -4c-21 -81 -89 -205 -213 -205c-131 0 -195 117 -195 237c0 119 73 265 264 265h120v-136z" />
    <glyph glyph-name="cdotaccent" unicode="&#x10b;" horiz-adv-x="468" 
d="M184 627l71 80l70 -80l-70 -81zM414 354h-5c-29 44 -80 101 -154 101c-84 0 -110 -69 -110 -139c0 -156 70 -209 149 -209c69 0 121 55 133 90l11 -4c-21 -81 -89 -205 -213 -205c-131 0 -195 117 -195 237c0 119 73 265 264 265h120v-136z" />
    <glyph glyph-name="d" unicode="d" horiz-adv-x="597" 
d="M383 -9v98c-30 -52 -76 -99 -153 -99c-131 0 -195 115 -195 235c0 129 82 265 264 265h84v86l-68 77l188 57v-640l74 -70zM383 125v269c-30 32 -71 61 -123 61c-88 0 -106 -79 -106 -139c0 -156 69 -216 154 -216c35 0 56 10 75 25z" />
    <glyph glyph-name="eth" unicode="&#xf0;" horiz-adv-x="540" 
d="M426 669l-88 -43c85 -97 172 -225 172 -359c0 -129 -82 -279 -268 -279c-142 0 -212 115 -212 235c0 129 82 279 268 279h2c-15 27 -33 53 -52 80l-117 -57v34l93 54c-26 33 -55 67 -89 104h116c17 -17 36 -36 56 -57l117 67zM244 464c-83 0 -87 -90 -87 -150
c0 -156 52 -288 140 -288c74 0 88 98 88 150c0 156 -53 288 -141 288z" />
    <glyph glyph-name="dcaron" unicode="&#x10f;" horiz-adv-x="758" 
d="M586 459l-14 10c34 19 68 36 68 74c0 26 -19 38 -32 52l-39 31l83 85c33 -20 81 -63 81 -97c0 -98 -125 -150 -147 -155zM383 -9v98c-30 -52 -76 -99 -153 -99c-131 0 -195 115 -195 235c0 129 82 265 264 265h84v86l-68 77l188 57v-640l74 -70zM383 125v269
c-30 32 -71 61 -123 61c-88 0 -106 -79 -106 -139c0 -156 69 -216 154 -216c35 0 56 10 75 25z" />
    <glyph glyph-name="e" unicode="e" horiz-adv-x="492" 
d="M461 283v-1h-321c11 -129 80 -183 158 -183c68 0 128 34 143 76l15 -6c-36 -91 -107 -183 -226 -183c-131 0 -205 117 -205 237c0 129 80 277 243 277c119 0 192 -80 193 -215l1 -2h-1zM332 312v9c0 107 -43 149 -87 149c-76 0 -107 -91 -107 -151v-7h194z" />
    <glyph glyph-name="eacute" unicode="&#xe9;" horiz-adv-x="497" 
d="M241 550h-15l18 129h126zM466 283v-1h-321c11 -129 80 -183 158 -183c68 0 128 34 143 76l15 -6c-36 -91 -107 -183 -226 -183c-131 0 -205 117 -205 237c0 129 80 277 243 277c119 0 192 -80 193 -215l1 -2h-1zM337 312v9c0 107 -43 149 -87 149
c-76 0 -107 -91 -107 -151v-7h194z" />
    <glyph glyph-name="ecaron" unicode="&#x11b;" horiz-adv-x="496" 
d="M259 608l83 73h16l-58 -129h-83l-57 129h14zM466 284h-321c11 -129 80 -183 158 -183c68 0 128 34 143 76l15 -6c-36 -91 -107 -183 -226 -183c-131 0 -205 117 -205 237c0 129 80 277 243 277c120 0 193 -81 193 -218zM143 310h193c1 4 1 9 1 13c0 107 -43 149 -87 149
c-76 0 -107 -91 -107 -151v-11z" />
    <glyph glyph-name="ecircumflex" unicode="&#xea;" horiz-adv-x="497" 
d="M175 550h-14l57 129h83l58 -129h-16l-83 73zM466 283v-1h-321c11 -129 80 -183 158 -183c68 0 128 34 143 76l15 -6c-36 -91 -107 -183 -226 -183c-131 0 -205 117 -205 237c0 129 80 277 243 277c119 0 192 -80 193 -215l1 -2h-1zM337 312v9c0 107 -43 149 -87 149
c-76 0 -107 -91 -107 -151v-7h194z" />
    <glyph glyph-name="edieresis" unicode="&#xeb;" horiz-adv-x="497" 
d="M160 543l-68 77l68 76l67 -76zM365 543l-68 77l68 76l67 -76zM466 283v-1h-321c11 -129 80 -183 158 -183c68 0 128 34 143 76l15 -6c-36 -91 -107 -183 -226 -183c-131 0 -205 117 -205 237c0 129 80 277 243 277c119 0 192 -80 193 -215l1 -2h-1zM337 312v9
c0 107 -43 149 -87 149c-76 0 -107 -91 -107 -151v-7h194z" />
    <glyph glyph-name="edotaccent" unicode="&#x117;" horiz-adv-x="496" 
d="M194 627l71 80l70 -80l-70 -81zM466 284h-321c11 -129 80 -183 158 -183c68 0 128 34 143 76l15 -6c-36 -91 -107 -183 -226 -183c-131 0 -205 117 -205 237c0 129 80 277 243 277c120 0 193 -81 193 -218zM143 310h193c1 4 1 9 1 13c0 107 -43 149 -87 149
c-76 0 -107 -91 -107 -151v-11z" />
    <glyph glyph-name="egrave" unicode="&#xe8;" horiz-adv-x="497" 
d="M267 550l-129 129h126l18 -129h-15zM466 283v-1h-321c11 -129 80 -183 158 -183c68 0 128 34 143 76l15 -6c-36 -91 -107 -183 -226 -183c-131 0 -205 117 -205 237c0 129 80 277 243 277c119 0 192 -80 193 -215l1 -2h-1zM337 312v9c0 107 -43 149 -87 149
c-76 0 -107 -91 -107 -151v-7h194z" />
    <glyph glyph-name="f" unicode="f" horiz-adv-x="387" 
d="M427 694v-150h-7c-29 44 -78 116 -152 116c-59 0 -77 -37 -77 -81c0 -30 8 -63 18 -89h192l-22 -54h-170v-351l91 -86h-285l74 86v342l-70 62l5 -2l-5 3h71c11 96 73 204 217 204h120z" />
    <glyph glyph-name="g" unicode="g" horiz-adv-x="506" 
d="M447 589l4 -1c-5 -61 -15 -96 -37 -142c23 -27 35 -61 35 -97c0 -86 -71 -193 -226 -193c-22 0 -42 3 -60 8c-14 -13 -37 -31 -37 -45c0 -30 20 -44 55 -48h269c11 -18 23 -48 23 -82c0 -116 -89 -221 -253 -221c-135 0 -200 43 -200 113c0 49 52 77 85 91
c-29 12 -60 44 -60 81c0 61 54 95 93 119c-62 26 -93 82 -93 141c0 86 69 189 224 189c19 0 36 -2 51 -5zM226 473c-49 0 -53 -59 -53 -99c0 -103 35 -190 92 -190c49 0 55 65 55 105c0 103 -37 184 -94 184zM384 -42h-255c-22 -17 -33 -40 -33 -68c0 -66 48 -99 138 -99
c112 0 164 62 164 110c0 25 -4 44 -14 57z" />
    <glyph glyph-name="h" unicode="h" horiz-adv-x="624" 
d="M214 710v-299c40 62 105 93 165 93c102 0 150 -66 150 -160v-258h1l74 -86h-268l73 85v225c0 77 -11 126 -88 126c-37 0 -75 -16 -107 -59v-291l74 -86h-268l74 86v480l-68 77z" />
    <glyph glyph-name="i" unicode="i" horiz-adv-x="318" 
d="M70 639l86 92l85 -92l-85 -93zM31 433l188 67v-414l74 -86h-268l74 86v270z" />
    <glyph glyph-name="dotlessi" unicode="&#x131;" horiz-adv-x="318" 
d="M31 433l188 67v-414l74 -86h-268l74 86v270z" />
    <glyph glyph-name="iacute" unicode="&#xed;" horiz-adv-x="318" 
d="M113 552h-15l18 129h126zM31 433l188 67v-414l74 -86h-268l74 86v270z" />
    <glyph glyph-name="icircumflex" unicode="&#xee;" horiz-adv-x="318" 
d="M51 552l57 129h83l58 -129h-16l-83 73l-85 -73h-14zM31 433l188 67v-414l74 -86h-268l74 86v270z" />
    <glyph glyph-name="idieresis" unicode="&#xef;" horiz-adv-x="390" 
d="M25 622l68 76l67 -76l-67 -77zM230 622l68 76l67 -76l-67 -77zM77 433l188 67v-414l74 -86h-268l74 86v270z" />
    <glyph glyph-name="igrave" unicode="&#xec;" horiz-adv-x="318" 
d="M180 552h-15l-129 129h126zM31 433l188 67v-414l74 -86h-268l74 86v270z" />
    <glyph glyph-name="ij" unicode="&#x133;" horiz-adv-x="575" 
d="M70 639l86 92l85 -92l-85 -93zM374 639l86 92l85 -92l-85 -93zM31 433l188 67v-414l74 -86h-268l74 86v270zM523 500v-427h1v-138c0 -77 -97 -124 -131 -160l-7 3c15 24 17 75 17 75v503l-68 77z" />
    <glyph glyph-name="j" unicode="j" horiz-adv-x="260" 
d="M59 639l86 92l85 -92l-85 -93zM208 500v-427h1v-138c0 -77 -97 -124 -131 -160l-7 3c15 24 17 75 17 75v503l-68 77z" />
    <glyph glyph-name="k" unicode="k" horiz-adv-x="579" 
d="M214 710v-468l166 169l-43 79h215v-7l-104 -61l-144 -130l194 -220l81 -63v-9h-177l-28 44l-160 189v-147l74 -86h-268l74 86v490l-68 77z" />
    <glyph glyph-name="l" unicode="l" horiz-adv-x="308" 
d="M94 86v354l-68 77l68 21v38l-68 77l188 57v-624l74 -86h-268z" />
    <glyph glyph-name="lacute" unicode="&#x13a;" horiz-adv-x="308" 
d="M122 740h-15l18 129h126zM94 86v354l-68 77l68 21v38l-68 77l188 57v-624l74 -86h-268z" />
    <glyph glyph-name="lcaron" unicode="&#x13e;" horiz-adv-x="464" 
d="M292 459l-14 10c34 19 68 36 68 74c0 26 -19 38 -32 52l-39 31l83 85c33 -20 81 -63 81 -97c0 -98 -125 -150 -147 -155zM94 86v354l-68 77l68 21v38l-68 77l188 57v-624l74 -86h-268z" />
    <glyph glyph-name="ldot" unicode="&#x140;" horiz-adv-x="437" 
d="M94 86v354l-68 77l68 21v38l-68 77l188 57v-624l74 -86h-268zM285 304l86 93l85 -93l-85 -92z" />
    <glyph glyph-name="lslash" unicode="&#x142;" horiz-adv-x="311" 
d="M208 86l74 -86h-268l74 86v221l-93 -39v62l93 39v71l-68 77l68 21v38l-68 77l188 57v-290l108 45v-64l-108 -45v-270z" />
    <glyph glyph-name="m" unicode="m" horiz-adv-x="914" 
d="M214 500v-73c39 45 88 75 152 75c73 0 119 -34 138 -88c35 48 99 88 165 88c102 0 150 -66 150 -160v-256h1l74 -86h-268l73 85v223c0 77 -11 126 -88 126c-37 0 -67 -16 -98 -51c2 -13 3 -27 3 -41v-256h1l74 -86h-268l73 85v223c0 77 -11 126 -88 126
c-35 0 -64 -14 -94 -46v-302l74 -86h-268l74 86v270l-68 77z" />
    <glyph glyph-name="n" unicode="n" horiz-adv-x="627" 
d="M607 0h-268l72 86v222c0 77 -11 126 -88 126c-37 0 -75 -16 -107 -59v-289l72 -86h-268l76 86v270l-68 77l188 67v-91c40 62 105 93 165 93c102 0 150 -66 150 -160v-256z" />
    <glyph glyph-name="nacute" unicode="&#x144;" horiz-adv-x="624" 
d="M305 552h-15l18 129h126zM214 500v-91c40 62 105 93 165 93c102 0 150 -66 150 -160v-256l75 -86h-268l73 85v223c0 77 -11 126 -88 126c-37 0 -75 -16 -107 -59v-289l74 -86h-268l74 86v270l-68 77z" />
    <glyph glyph-name="ncaron" unicode="&#x148;" horiz-adv-x="624" 
d="M315 608l83 73h16l-58 -129h-83l-57 129h14zM214 500v-91c40 62 105 93 165 93c102 0 150 -66 150 -160v-256h1l74 -86h-268l73 85v223c0 77 -11 126 -88 126c-37 0 -75 -16 -107 -59v-289l74 -86h-268l74 86v270l-68 77z" />
    <glyph glyph-name="ntilde" unicode="&#xf1;" horiz-adv-x="624" 
d="M182 571l63 109c46 -4 93 -13 139 -13c15 0 29 15 44 34l15 -6l-59 -103c-49 4 -99 13 -148 13c-13 0 -27 -21 -40 -43zM214 500v-91c40 62 105 93 165 93c102 0 150 -66 150 -160v-256h1l74 -86h-268l73 85v223c0 77 -11 126 -88 126c-37 0 -75 -16 -107 -59v-289
l74 -86h-268l74 86v270l-68 77z" />
    <glyph glyph-name="o" unicode="o" horiz-adv-x="557" 
d="M520 267c0 -129 -87 -279 -273 -279c-142 0 -217 115 -217 235c0 129 87 279 273 279c142 0 217 -115 217 -235zM249 464c-83 0 -92 -90 -92 -150c0 -156 57 -288 145 -288c74 0 93 98 93 150c0 156 -58 288 -146 288z" />
    <glyph glyph-name="oacute" unicode="&#xf3;" horiz-adv-x="557" 
d="M242 552h-15l18 129h126zM520 267c0 -129 -87 -279 -273 -279c-142 0 -217 115 -217 235c0 129 87 279 273 279c142 0 217 -115 217 -235zM249 464c-83 0 -92 -90 -92 -150c0 -156 57 -288 145 -288c74 0 93 98 93 150c0 156 -58 288 -146 288z" />
    <glyph glyph-name="ocircumflex" unicode="&#xf4;" horiz-adv-x="557" 
d="M176 552l57 129h83l58 -129h-16l-83 73l-85 -73h-14zM520 267c0 -129 -87 -279 -273 -279c-142 0 -217 115 -217 235c0 129 87 279 273 279c142 0 217 -115 217 -235zM249 464c-83 0 -92 -90 -92 -150c0 -156 57 -288 145 -288c74 0 93 98 93 150c0 156 -58 288 -146 288
z" />
    <glyph glyph-name="odieresis" unicode="&#xf6;" horiz-adv-x="557" 
d="M101 625l68 76l67 -76l-67 -77zM306 625l68 76l67 -76l-67 -77zM520 267c0 -129 -87 -279 -273 -279c-142 0 -217 115 -217 235c0 129 87 279 273 279c142 0 217 -115 217 -235zM249 464c-83 0 -92 -90 -92 -150c0 -156 57 -288 145 -288c74 0 93 98 93 150
c0 156 -58 288 -146 288z" />
    <glyph glyph-name="ograve" unicode="&#xf2;" horiz-adv-x="557" 
d="M291 552l-129 129h126l18 -129h-15zM520 267c0 -129 -87 -279 -273 -279c-142 0 -217 115 -217 235c0 129 87 279 273 279c142 0 217 -115 217 -235zM249 464c-83 0 -92 -90 -92 -150c0 -156 57 -288 145 -288c74 0 93 98 93 150c0 156 -58 288 -146 288z" />
    <glyph glyph-name="oslash" unicode="&#xf8;" horiz-adv-x="563" 
d="M533 564l-79 -114c50 -45 75 -113 75 -183c0 -129 -87 -279 -273 -279c-40 0 -74 9 -103 24l-51 -74h-67l74 107c-46 45 -70 111 -70 178c0 129 87 279 273 279c37 0 69 -8 97 -21l57 83h67zM187 159l166 240c-25 41 -57 65 -95 65c-83 0 -92 -90 -92 -150
c0 -57 7 -110 21 -155zM379 341l-167 -243c25 -44 59 -72 99 -72c74 0 93 98 93 150c0 61 -9 118 -25 165z" />
    <glyph glyph-name="otilde" unicode="&#xf5;" horiz-adv-x="557" 
d="M337 635l44 34l15 -6l-59 -103l-148 13l-40 -43l-14 9l63 109zM520 267c0 -129 -87 -279 -273 -279c-142 0 -217 115 -217 235c0 129 87 279 273 279c142 0 217 -115 217 -235zM249 464c-83 0 -92 -90 -92 -150c0 -156 57 -288 145 -288c74 0 93 98 93 150
c0 156 -58 288 -146 288z" />
    <glyph glyph-name="oe" unicode="&#x153;" horiz-adv-x="837" 
d="M789 177l14 -6c-34 -91 -107 -183 -220 -183c-65 0 -116 33 -149 81c-43 -48 -105 -81 -188 -81c-140 0 -211 115 -211 235c0 129 84 279 264 279c70 0 123 -31 157 -77c38 46 93 77 164 77c114 0 188 -81 188 -218h-303c0 -6 1 -11 1 -17c0 -5 -1 -10 -1 -15
c16 -108 74 -151 143 -151c65 0 127 34 141 76zM502 310h178c3 116 -39 162 -82 162c-71 0 -96 -92 -97 -152zM248 464c-79 0 -87 -90 -87 -150c0 -156 54 -288 137 -288c71 0 89 98 89 150c0 156 -55 288 -139 288z" />
    <glyph glyph-name="p" unicode="p" horiz-adv-x="604" 
d="M214 511v-86c36 42 80 75 153 75c130 0 200 -115 200 -235c0 -111 -69 -274 -260 -274c-21 0 -56 4 -93 12v-132l93 -86h-287l74 86v506l-68 77zM214 398v-295c29 -33 77 -68 132 -68c88 0 103 69 103 139c0 156 -66 252 -152 252c-27 0 -53 -9 -83 -28z" />
    <glyph glyph-name="thorn" unicode="&#xfe;" horiz-adv-x="604" 
d="M214 710v-285c36 42 80 75 153 75c130 0 200 -115 200 -235c0 -111 -69 -274 -260 -274c-21 0 -56 4 -93 12v-132l93 -86h-287l74 86v705l-68 77zM214 398v-295c29 -33 77 -68 132 -68c88 0 103 69 103 139c0 156 -66 252 -152 252c-27 0 -53 -9 -83 -28z" />
    <glyph glyph-name="q" unicode="q" horiz-adv-x="557" 
d="M285 -215l93 86v220c-36 -56 -90 -101 -153 -101c-131 0 -195 115 -195 235c0 129 82 265 264 265c49 0 77 -4 113 -12l91 22v-629l74 -86h-287zM378 124v270c-30 32 -71 61 -123 61c-88 0 -106 -79 -106 -139c0 -156 69 -216 154 -216c36 0 55 9 75 24z" />
    <glyph glyph-name="r" unicode="r" horiz-adv-x="460" 
d="M445 313h-8c-44 105 -103 140 -149 140c-69 0 -69 -50 -69 -152v-215l93 -86h-287l74 86v327l-68 77h414v-177z" />
    <glyph glyph-name="racute" unicode="&#x155;" horiz-adv-x="460" 
d="M215 552l18 129h126l-129 -129h-15zM445 313h-8c-44 105 -103 140 -149 140c-69 0 -69 -50 -69 -152v-215l93 -86h-287l74 86v327l-68 77h414v-177z" />
    <glyph glyph-name="rcaron" unicode="&#x159;" horiz-adv-x="460" 
d="M159 681h14l85 -73l83 73h16l-58 -129h-83zM445 313h-8c-44 105 -103 140 -149 140c-69 0 -69 -50 -69 -152v-215l93 -86h-287l74 86v327l-68 77h414v-177z" />
    <glyph glyph-name="s" unicode="s" horiz-adv-x="411" 
d="M25 189h8c26 -86 105 -161 187 -161c41 0 75 20 75 65c0 118 -265 60 -265 258c0 74 65 139 167 139h110l37 21v-166l-6 1c-36 65 -96 113 -160 112c-42 -1 -66 -27 -66 -66c0 -103 274 -58 274 -241c0 -116 -117 -161 -196 -161c-50 0 -118 7 -156 23z" />
    <glyph glyph-name="sacute" unicode="&#x15b;" horiz-adv-x="411" 
d="M201 552h-15l18 129h126zM25 189h8c26 -86 105 -161 187 -161c41 0 75 20 75 65c0 118 -265 60 -265 258c0 74 65 139 167 139h110l37 21v-166l-6 1c-36 65 -106 112 -160 112c-42 0 -66 -27 -66 -66c0 -103 274 -58 274 -241c0 -116 -117 -161 -196 -161
c-50 0 -118 7 -156 23z" />
    <glyph glyph-name="scaron" unicode="&#x161;" horiz-adv-x="411" 
d="M215 608l83 73h16l-58 -129h-83l-57 129h14zM25 189h8c26 -86 105 -161 187 -161c41 0 75 20 75 65c0 118 -265 60 -265 258c0 74 65 139 167 139h110l37 21v-166l-6 1c-36 65 -106 112 -160 112c-42 0 -66 -27 -66 -66c0 -103 274 -58 274 -241
c0 -116 -117 -161 -196 -161c-50 0 -118 7 -156 23z" />
    <glyph glyph-name="germandbls" unicode="&#xdf;" horiz-adv-x="584" 
d="M24 490h70c0 40 60 205 218 205c71 0 167 -18 167 -132c0 -67 -80 -148 -108 -172c63 -42 188 -98 188 -223c0 -105 -56 -172 -178 -172c-4 0 -64 0 -117 4l7 165h11c42 -116 99 -135 129 -135c41 0 68 23 68 81c0 88 -173 190 -214 204c76 93 107 150 107 234
c0 78 -48 112 -95 112c-59 0 -116 -53 -77 -140l14 -31v-490h-194l74 86v341z" />
    <glyph glyph-name="t" unicode="t" horiz-adv-x="420" 
d="M196 632v-142h192l-22 -54h-170v-246c0 -96 22 -122 81 -122c30 0 76 15 98 58l12 -16c-48 -81 -102 -122 -183 -122c-69 0 -128 40 -128 154v285l-66 63z" />
    <glyph glyph-name="tcaron" unicode="&#x165;" horiz-adv-x="540" 
d="M363 559l-14 10c34 19 68 36 68 74c0 26 -19 38 -32 52l-39 31l83 85c33 -20 81 -63 81 -97c0 -98 -125 -150 -147 -155zM76 427v-285c0 -114 59 -154 128 -154c81 0 135 41 183 122l-12 16c-22 -43 -68 -58 -98 -58c-59 0 -81 26 -81 122v246h170l22 54h-192v142
l-186 -142z" />
    <glyph glyph-name="u" unicode="u" horiz-adv-x="591" 
d="M200 491v-307c0 -77 11 -126 88 -126c34 0 69 17 95 47v299l-74 87h194v-409l68 -82l-188 -6v80c-36 -50 -82 -84 -153 -84c-102 0 -150 66 -150 160v254l-75 87h195z" />
    <glyph glyph-name="uacute" unicode="&#xfa;" horiz-adv-x="591" 
d="M270 552h-15l18 129h126zM200 491v-307c0 -77 11 -126 88 -126c34 0 69 17 95 47v299l-74 87h194v-409l68 -82l-188 -6v80c-36 -50 -82 -84 -153 -84c-102 0 -150 66 -150 160v254l-75 87h195z" />
    <glyph glyph-name="ucircumflex" unicode="&#xfb;" horiz-adv-x="591" 
d="M169 552l57 129h83l58 -129h-16l-83 73l-85 -73h-14zM200 491v-307c0 -77 11 -126 88 -126c34 0 69 17 95 47v299l-74 87h194v-409l68 -82l-188 -6v80c-36 -50 -82 -84 -153 -84c-102 0 -150 66 -150 160v254l-75 87h195z" />
    <glyph glyph-name="udieresis" unicode="&#xfc;" horiz-adv-x="591" 
d="M106 625l68 76l67 -76l-67 -77zM311 625l68 76l67 -76l-67 -77zM200 491v-307c0 -77 11 -126 88 -126c34 0 69 17 95 47v299l-74 87h194v-409l68 -82l-188 -6v80c-36 -50 -82 -84 -153 -84c-102 0 -150 66 -150 160v254l-75 87h195z" />
    <glyph glyph-name="ugrave" unicode="&#xf9;" horiz-adv-x="591" 
d="M280 552l-129 129h126l18 -129h-15zM200 491v-307c0 -77 11 -126 88 -126c34 0 69 17 95 47v299l-74 87h194v-409l68 -82l-188 -6v80c-36 -50 -82 -84 -153 -84c-102 0 -150 66 -150 160v254l-75 87h195z" />
    <glyph glyph-name="uring" unicode="&#x16f;" horiz-adv-x="591" 
d="M191 635c0 49 40 89 89 89s89 -40 89 -89s-40 -89 -89 -89s-89 40 -89 89zM219 635c0 -34 27 -61 61 -61s61 27 61 61s-27 61 -61 61s-61 -27 -61 -61zM200 491v-307c0 -77 11 -126 88 -126c34 0 69 17 95 47v299l-74 87h194v-409l68 -82l-188 -6v80
c-36 -50 -82 -84 -153 -84c-102 0 -150 66 -150 160v254l-75 87h195z" />
    <glyph glyph-name="v" unicode="v" horiz-adv-x="543" 
d="M361 490h177l-56 -63l-197 -441l-4 -8h-20l-200 449l-56 63h264l-73 -64l105 -258l12 -34l121 292z" />
    <glyph glyph-name="w" unicode="w" horiz-adv-x="823" 
d="M66 409l-66 81h265l-73 -64l105 -258l12 -34l89 215l-26 60l-66 81h264l-72 -64l104 -258l12 -22l108 280l-72 64h178l-59 -62l-185 -450h-22l-142 322l-142 -322h-22z" />
    <glyph glyph-name="wacute" unicode="&#x1e83;" horiz-adv-x="823" 
d="M415 552h-15l18 129h126zM66 409l-66 81h265l-73 -64l105 -258l12 -34l89 215l-26 60l-66 81h264l-72 -64l104 -258l12 -22l108 280l-72 64h178l-59 -62l-185 -450h-22l-142 322l-142 -322h-22z" />
    <glyph glyph-name="wcircumflex" unicode="&#x175;" horiz-adv-x="823" 
d="M329 552l52 129h83l53 -129h-16l-78 73l-80 -73h-14zM66 409l-66 81h265l-73 -64l105 -258l12 -34l89 215l-26 60l-66 81h264l-72 -64l104 -258l12 -22l108 280l-72 64h178l-59 -62l-185 -450h-22l-142 322l-142 -322h-22z" />
    <glyph glyph-name="wdieresis" unicode="&#x1e85;" horiz-adv-x="823" 
d="M271 622l68 76l67 -76l-67 -77zM476 622l68 76l67 -76l-67 -77zM66 409l-66 81h265l-73 -64l105 -258l12 -34l89 215l-26 60l-66 81h264l-72 -64l104 -258l12 -22l108 280l-72 64h178l-59 -62l-185 -450h-22l-142 322l-142 -322h-22z" />
    <glyph glyph-name="wgrave" unicode="&#x1e81;" horiz-adv-x="823" 
d="M461 552l-129 129h126l18 -129h-15zM66 409l-66 81h265l-73 -64l105 -258l12 -34l89 215l-26 60l-66 81h264l-72 -64l104 -258l12 -22l108 280l-72 64h178l-59 -62l-185 -450h-22l-142 322l-142 -322h-22z" />
    <glyph glyph-name="x" unicode="x" horiz-adv-x="584" 
d="M584 0h-285l64 66l-98 129l-106 -131l55 -64h-209l89 63l141 172l-146 192l-73 63h273l-64 -64l87 -114l89 114l-55 64h210l-89 -63l-127 -152l160 -210z" />
    <glyph glyph-name="y" unicode="y" horiz-adv-x="535" 
d="M0 490h265l-73 -64l105 -258l12 -34l121 292l-73 64h178l-59 -62l-233 -557l72 -86h-215l88 90l59 135l-181 399z" />
    <glyph glyph-name="yacute" unicode="&#xfd;" horiz-adv-x="535" 
d="M294 552h-15l18 129h126zM0 490h265l-73 -64l105 -258l12 -34l121 292l-73 64h178l-59 -62l-232 -557l72 -86h-216l88 90l59 135l-181 399z" />
    <glyph glyph-name="ycircumflex" unicode="&#x177;" horiz-adv-x="535" 
d="M206 552l57 129h83l58 -129h-16l-83 73l-85 -73h-14zM0 490h265l-73 -64l105 -258l12 -34l121 292l-73 64h178l-59 -62l-233 -557l72 -86h-215l88 90l59 135l-181 399z" />
    <glyph glyph-name="ydieresis" unicode="&#xff;" horiz-adv-x="535" 
d="M122 622l68 76l67 -76l-67 -77zM327 622l68 76l67 -76l-67 -77zM0 490h265l-73 -64l105 -258l12 -34l121 292l-73 64h178l-59 -62l-232 -557l72 -86h-216l88 90l59 135l-181 399z" />
    <glyph glyph-name="ygrave" unicode="&#x1ef3;" horiz-adv-x="535" 
d="M320 552h-15l-129 129h126zM0 490h265l-73 -64l105 -258l12 -34l121 292l-73 64h178l-59 -62l-233 -557l72 -86h-215l88 90l59 135l-181 399z" />
    <glyph glyph-name="z" unicode="z" horiz-adv-x="506" 
d="M469 15v-15h-449l301 454h-155l-99 -150h-6v204l86 -18h336l-301 -454h181l117 173l6 -2z" />
    <glyph glyph-name="zacute" unicode="&#x17a;" horiz-adv-x="507" 
d="M254 552h-15l18 129h126zM182 36h181l124 180l-18 -201v-15h-449l301 454h-155l-105 -158v212l86 -18h336z" />
    <glyph glyph-name="zcaron" unicode="&#x17e;" horiz-adv-x="507" 
d="M271 608l83 73h16l-58 -129h-83l-57 129h14zM182 36h181l124 180l-18 -201v-15h-449l301 454h-155l-105 -158v212l86 -18h336z" />
    <glyph glyph-name="zdotaccent" unicode="&#x17c;" horiz-adv-x="507" 
d="M199 625l71 80l70 -80l-70 -81zM182 36h181l124 180l-18 -201v-15h-449l301 454h-155l-105 -158v212l86 -18h336z" />
    <glyph glyph-name="r.ss01" horiz-adv-x="415" 
d="M214 500v-86c40 34 93 74 186 87v-173h-7c-27 53 -71 82 -111 82c-28 0 -53 -15 -68 -40v-290l86 -80h-280l74 80v276l-68 77z" />
    <glyph glyph-name="racute.ss01" horiz-adv-x="421" 
d="M200 552l18 129h126l-129 -129h-15zM214 500v-94c40 42 91 82 184 95v-173h-7c-25 48 -63 82 -99 82c-35 0 -66 -21 -78 -48v-282l86 -80h-280l74 80v276l-68 77z" />
    <glyph glyph-name="rcaron.ss01" horiz-adv-x="421" 
d="M132 681h14l85 -73l83 73h16l-58 -129h-83zM214 500v-94c40 42 91 82 184 95v-173h-7c-25 48 -63 82 -99 82c-35 0 -66 -21 -78 -48v-282l86 -80h-280l74 80v276l-68 77z" />
    <glyph glyph-name="Lambda" unicode="&#x39b;" horiz-adv-x="683" 
d="M298 547l-169 -461l85 -86h-209l70 89l239 616h48l264 -646l52 -59h-273l80 61l-174 439z" />
    <glyph glyph-name="mu" unicode="&#x3bc;" horiz-adv-x="591" 
d="M383 -6v80c-36 -50 -82 -84 -153 -84c-11 0 -21 1 -36 7l6 -28v-183h-194l74 86v532l-75 87h195v-307c0 -77 11 -126 88 -126c34 0 69 17 95 47v299l-74 87h194v-409l68 -82z" />
    <glyph glyph-name="pi" unicode="&#x3c0;" horiz-adv-x="639" 
d="M588 84l10 -12c-40 -53 -72 -83 -137 -83c-63 0 -104 34 -104 125v264h-129v-378h-176l84 53l9 325h-9c-49 0 -75 -15 -104 -70h-7l6 30c27 129 48 152 138 152h402v-112h-94v-244c0 -62 20 -80 46 -80c31 0 50 13 65 30z" />
    <glyph glyph-name="zero" unicode="0" horiz-adv-x="561" 
d="M521 320c0 -155 -89 -334 -268 -334c-137 0 -213 138 -213 282c0 155 89 334 268 334c138 0 213 -138 213 -282zM256 557c-78 0 -91 -108 -91 -180c0 -187 58 -346 141 -346c69 0 92 118 92 180c0 187 -59 346 -142 346z" />
    <glyph glyph-name="one" unicode="1" horiz-adv-x="382" 
d="M36 384l-1 2l218 221v-541l94 -66h-303l89 66v354z" />
    <glyph glyph-name="two" unicode="2" horiz-adv-x="528" 
d="M43 0l-8 33c84 66 274 244 274 425c0 64 -41 110 -110 110c-71 0 -111 -56 -146 -146h-5v173h136c134 0 261 -49 261 -155c0 -141 -200 -224 -286 -324l2 -5l62 5l203 3l58 121h4l-21 -240h-424z" />
    <glyph glyph-name="three" unicode="3" horiz-adv-x="502" 
d="M43 -16l-8 25c101 0 264 37 264 143c0 88 -76 121 -169 139c-10 -2 -20 -5 -31 -7l-2 17l33 12c65 23 182 62 182 148c0 64 -48 106 -122 106s-107 -70 -136 -142h-5v170h154c132 0 245 -30 245 -120c0 -67 -73 -113 -232 -156c107 -9 241 -37 241 -133
c0 -144 -307 -202 -414 -202z" />
    <glyph glyph-name="four" unicode="4" horiz-adv-x="568" 
d="M400 193h128v-45h-128v-82l94 -66h-303l88 66v83h-244l241 446h146l-284 -401h140v80l122 178v-259z" />
    <glyph glyph-name="five" unicode="5" horiz-adv-x="481" 
d="M99 354l39 21c35 15 69 22 100 22c96 0 198 -70 198 -184c0 -142 -108 -212 -276 -212h-120s3 105 4 172h7s61 -144 165 -144c62 0 98 28 98 144c0 76 -10 184 -112 184c-27 0 -67 -15 -108 -37h-4l-5 -27h-35l42 293l1 10h284l59 51l-11 -51l-26 -120h-280z" />
    <glyph glyph-name="six" unicode="6" horiz-adv-x="508" 
d="M431 603l6 -19c-129 -58 -224 -135 -260 -265c29 19 72 42 109 42c95 0 177 -62 177 -177c0 -90 -83 -196 -224 -196c-112 0 -199 75 -199 185c0 204 177 347 391 430zM171 294c-7 -31 -10 -65 -10 -102c0 -110 33 -174 98 -174c66 0 86 99 86 145
c0 103 -60 157 -108 157c-29 0 -44 -6 -66 -26z" />
    <glyph glyph-name="seven" unicode="7" horiz-adv-x="483" 
d="M38 402h-3v193h428l-344 -635l-34 16l258 499h-255z" />
    <glyph glyph-name="eight" unicode="8" horiz-adv-x="495" 
d="M262 610c69 0 157 -36 157 -120c0 -64 -44 -102 -94 -133c66 -44 132 -88 132 -184c0 -141 -150 -188 -232 -188c-108 0 -189 59 -189 146c0 93 73 132 123 163c-51 44 -99 78 -99 159c0 111 109 157 202 157zM302 368c45 29 64 64 64 110c0 78 -50 107 -113 107
c-52 0 -104 -31 -104 -98c0 -61 79 -84 153 -119zM187 281c-46 -26 -98 -78 -98 -146c0 -62 39 -125 137 -125c76 0 134 38 134 115c0 99 -89 121 -173 156z" />
    <glyph glyph-name="nine" unicode="9" horiz-adv-x="503" 
d="M66 10c129 57 224 134 260 265c-32 -24 -72 -42 -109 -42c-95 0 -177 62 -177 177c0 90 83 196 224 196c112 0 199 -66 199 -176c0 -204 -178 -356 -391 -440c0 0 -4 12 -6 20zM332 299c6 31 10 65 10 102c0 111 -33 175 -98 175c-66 0 -86 -100 -86 -146
c0 -102 60 -156 108 -156c29 0 44 5 66 25z" />
    <glyph glyph-name="zero.osf" horiz-adv-x="597" 
d="M558 288c0 -138 -96 -300 -289 -300c-148 0 -230 126 -230 254c0 138 96 300 289 300c149 0 230 -126 230 -254zM270 502c-91 0 -106 -99 -106 -163c0 -166 67 -311 164 -311c81 0 108 108 108 163c0 166 -69 311 -166 311z" />
    <glyph glyph-name="one.osf" horiz-adv-x="382" 
d="M36 323l-1 2l218 223v-482l94 -66h-303l89 66v265z" />
    <glyph glyph-name="two.osf" horiz-adv-x="523" 
d="M43 0l-8 33c84 66 274 185 274 366c0 64 -41 110 -110 110c-71 0 -111 -56 -146 -146h-5v173h136c134 0 261 -49 261 -155c0 -101 -184 -203 -285 -267l1 -3l62 5l270 3l-12 -119h-438z" />
    <glyph glyph-name="three.osf" horiz-adv-x="507" 
d="M43 -75l-8 25c101 0 264 37 264 143c0 88 -76 121 -169 139c-10 -2 -20 -5 -31 -7l-2 17l33 12c65 23 182 62 182 148c0 64 -48 106 -122 106s-107 -70 -136 -142h-5v170h154c132 0 245 -30 245 -120c0 -67 -73 -114 -214 -156c89 -9 223 -37 223 -133
c0 -144 -307 -202 -414 -202z" />
    <glyph glyph-name="four.osf" horiz-adv-x="568" 
d="M400 45h128v-46h-128v-74h-120v74h-245l241 537h146l-289 -491h148v112l119 146v-258z" />
    <glyph glyph-name="five.osf" horiz-adv-x="481" 
d="M114 416l-18 -120l36 19c35 15 69 21 101 21c95 0 198 -70 198 -183c0 -142 -109 -212 -276 -212h-120s2 105 4 172h7s61 -144 165 -144c62 0 98 27 98 143c0 76 -11 184 -113 184c-26 0 -64 -13 -105 -34l-3 -22l-36 4l36 292h332l-26 -120h-280z" />
    <glyph glyph-name="six.osf" horiz-adv-x="503" 
d="M431 603l6 -19c-129 -58 -224 -135 -260 -265c31 24 72 42 109 42c95 0 177 -62 177 -177c0 -90 -83 -196 -224 -196c-112 0 -199 75 -199 185c0 204 177 347 391 430zM171 294c-7 -31 -10 -65 -10 -102c0 -110 33 -174 98 -174c66 0 86 99 86 145
c0 103 -60 157 -108 157c-29 0 -44 -6 -66 -26z" />
    <glyph glyph-name="seven.osf" horiz-adv-x="483" 
d="M35 343v193h428l-344 -635l-34 16l258 499h-255z" />
    <glyph glyph-name="eight.osf" horiz-adv-x="495" 
d="M262 610c69 0 157 -36 157 -120c0 -64 -44 -102 -94 -133c66 -44 132 -88 132 -184c0 -141 -150 -188 -232 -188c-108 0 -189 59 -189 146c0 93 73 132 123 163c-51 44 -99 78 -99 159c0 111 109 157 202 157zM302 368c45 29 64 64 64 110c0 78 -50 107 -113 107
c-52 0 -104 -31 -104 -98c0 -61 79 -84 153 -119zM187 281c-46 -26 -98 -78 -98 -146c0 -62 39 -125 137 -125c76 0 134 38 134 115c0 99 -89 121 -173 156z" />
    <glyph glyph-name="nine.osf" horiz-adv-x="497" 
d="M72 -75l-6 19c129 58 224 135 260 265c-32 -23 -72 -41 -109 -41c-95 0 -177 61 -177 177c0 90 83 196 224 196c112 0 199 -66 199 -176c0 -204 -178 -356 -391 -440zM332 234c6 31 10 65 10 102c0 110 -33 175 -98 175c-66 0 -86 -100 -86 -146c0 -102 60 -157 108 -157
c29 0 44 6 66 26z" />
    <glyph glyph-name="zero.osf.zero" horiz-adv-x="597" 
d="M328 542c149 0 230 -126 230 -254c0 -138 -96 -300 -289 -300c-148 0 -230 126 -230 254c0 138 96 300 289 300zM198 144l186 274c-29 52 -69 84 -115 84c-91 0 -106 -99 -106 -163c0 -72 13 -141 35 -195zM399 387l-186 -274c29 -52 68 -85 114 -85
c81 0 108 108 108 163c0 73 -13 141 -36 196z" />
    <glyph glyph-name="zero.zero" horiz-adv-x="555" 
d="M304 602c138 0 213 -138 213 -282c0 -155 -89 -334 -268 -334c-137 0 -213 138 -213 282c0 155 89 334 268 334zM194 147l149 330c-24 50 -56 80 -92 80c-78 0 -91 -108 -91 -180c0 -87 13 -168 34 -230zM358 441l-149 -330c24 -50 56 -80 92 -80c69 0 92 118 92 180
c0 87 -13 168 -35 230z" />
    <glyph glyph-name="fraction" unicode="&#x2044;" horiz-adv-x="470" 
d="M503 719l-452 -752h-47l451 752h48z" />
    <glyph glyph-name="onehalf" unicode="&#xbd;" horiz-adv-x="844" 
d="M611 719l-452 -752h-47l451 752h48zM63 544l-1 1l153 142v-348l67 -42h-213l62 42v228zM469 0l-6 21c59 42 193 155 193 271c0 40 -29 66 -77 66c-51 0 -79 -33 -103 -90h-3v110h95c94 0 184 -31 184 -98c0 -90 -132 -142 -193 -206l2 -3l34 3l143 2l41 77h3l-15 -153
h-298z" />
    <glyph glyph-name="onequarter" unicode="&#xbc;" horiz-adv-x="745" 
d="M652 719l-452 -752h-47l451 752h48zM63 544l-1 1l153 142v-348l67 -42h-213l62 42v228zM641 123h91v-29h-91v-52l67 -42h-213l62 42v53h-172l170 284h102l-200 -255h99v51l85 113v-165z" />
    <glyph glyph-name="threequarters" unicode="&#xbe;" horiz-adv-x="807" 
d="M687 719l-452 -752h-47l451 752h48zM48 296l-5 19c71 0 185 21 185 88c0 56 -53 77 -118 88c-7 -1 -14 -3 -22 -4l-2 11l24 7c45 15 128 40 128 94c0 41 -34 66 -86 66s-75 -43 -96 -88h-4v108h110c92 0 172 -19 172 -77c0 -42 -52 -71 -158 -99c70 -5 164 -23 164 -84
c0 -92 -217 -129 -292 -129zM676 123h91v-29h-91v-52l67 -42h-213l62 42v53h-172l170 284h102l-200 -255h99v51l85 113v-165z" />
    <glyph glyph-name="oneeighth" unicode="&#x215b;" horiz-adv-x="766" 
d="M662 719l-452 -752h-47l451 752h48zM63 544l-1 1l153 142v-348l67 -42h-213l62 42v228zM629 388c-65 0 -139 -31 -139 -100c0 -51 34 -73 70 -101c-35 -20 -87 -45 -87 -104c0 -55 57 -93 136 -93c55 0 161 30 161 120c0 61 -47 89 -93 117c35 20 66 44 66 85
c0 51 -65 76 -114 76zM661 234c-52 22 -108 37 -108 76c0 40 34 60 70 60c34 0 73 -18 73 -66c0 -29 -8 -52 -35 -70zM580 179c59 -23 121 -37 121 -100c0 -48 -40 -71 -91 -71c-63 0 -90 38 -90 78c0 43 31 76 60 93z" />
    <glyph glyph-name="threeeighths" unicode="&#x215c;" horiz-adv-x="788" 
d="M657 719l-452 -752h-47l451 752h48zM48 296l-5 19c71 0 185 21 185 88c0 56 -53 77 -118 88c-7 -1 -14 -3 -22 -4l-2 11l24 7c45 15 128 40 128 94c0 41 -34 66 -86 66s-75 -43 -96 -88h-4v108h110c92 0 172 -19 172 -77c0 -42 -52 -71 -158 -99c70 -5 164 -23 164 -84
c0 -92 -217 -129 -292 -129zM623 388c-65 0 -139 -31 -139 -100c0 -51 34 -73 70 -101c-35 -20 -87 -45 -87 -104c0 -55 57 -93 136 -93c55 0 161 30 161 120c0 61 -47 89 -93 117c35 20 66 44 66 85c0 51 -65 76 -114 76zM655 234c-52 22 -108 37 -108 76c0 40 34 60 70 60
c34 0 73 -18 73 -66c0 -29 -8 -52 -35 -70zM574 179c59 -23 121 -37 121 -100c0 -48 -40 -71 -91 -71c-63 0 -90 38 -90 78c0 43 31 76 60 93z" />
    <glyph glyph-name="fiveeighths" unicode="&#x215d;" horiz-adv-x="767" 
d="M645 719l-452 -752h-47l451 752h48zM80 533l28 11c25 10 49 14 70 14c68 0 139 -44 139 -117c0 -90 -76 -134 -193 -134h-85s2 66 2 109h5s44 -89 117 -89c43 0 69 15 69 89c0 48 -7 117 -80 117c-24 0 -52 -9 -80 -30l-2 -11h-24l28 180l2 13h200l41 32l-7 -32l-19 -76
h-196zM639 227c46 -28 93 -56 93 -117c0 -90 -106 -120 -161 -120c-79 0 -136 38 -136 93c0 59 52 84 87 104c-36 28 -70 50 -70 101c0 69 74 100 139 100c49 0 114 -25 114 -76c0 -41 -31 -65 -66 -85zM515 310c0 -39 56 -54 108 -76c27 18 35 41 35 70c0 48 -39 66 -73 66
c-36 0 -70 -20 -70 -60zM572 8c51 0 91 23 91 71c0 63 -62 77 -121 100c-29 -17 -60 -50 -60 -93c0 -40 27 -78 90 -78z" />
    <glyph glyph-name="seveneighths" unicode="&#x215e;" horiz-adv-x="770" 
d="M614 719l-452 -752h-47l451 752h48zM37 563h-2v122h292l-227 -388l-28 10l168 302h-169zM584 388c-65 0 -139 -31 -139 -100c0 -51 34 -73 70 -101c-35 -20 -87 -45 -87 -104c0 -55 57 -93 136 -93c55 0 161 30 161 120c0 61 -47 89 -93 117c35 20 66 44 66 85
c0 51 -65 76 -114 76zM616 234c-52 22 -108 37 -108 76c0 40 34 60 70 60c34 0 73 -18 73 -66c0 -29 -8 -52 -35 -70zM535 179c59 -23 121 -37 121 -100c0 -48 -40 -71 -91 -71c-63 0 -90 38 -90 78c0 43 31 76 60 93z" />
    <glyph glyph-name="zero.dnom" horiz-adv-x="371" 
d="M343 207c0 -99 -62 -215 -184 -215c-94 0 -145 90 -145 181c0 99 61 215 183 215c95 0 146 -90 146 -181zM162 359c-54 0 -62 -70 -62 -116c0 -119 40 -222 97 -222c47 0 62 77 62 116c0 119 -41 222 -97 222z" />
    <glyph glyph-name="one.dnom" horiz-adv-x="329" 
d="M63 247l-1 1l153 142v-348l67 -42h-213l62 42v228z" />
    <glyph glyph-name="two.dnom" 
d="M39 0l-6 21c59 42 193 155 193 271c0 40 -29 66 -77 66c-51 0 -79 -33 -103 -90h-3v110h95c94 0 184 -31 184 -98c0 -90 -132 -142 -193 -206l2 -3l34 3l143 2l41 77h3l-15 -153h-298z" />
    <glyph glyph-name="three.dnom" 
d="M48 -11l-5 19c71 0 185 21 185 88c0 56 -53 77 -118 88c-7 -1 -14 -3 -22 -4l-2 11l24 7c45 15 128 40 128 94c0 41 -34 66 -86 66s-75 -43 -96 -88h-4v108h110c92 0 172 -19 172 -77c0 -42 -52 -71 -158 -99c70 -5 164 -23 164 -84c0 -92 -217 -129 -292 -129z" />
    <glyph glyph-name="four.dnom" horiz-adv-x="387" 
d="M276 123h91v-29h-91v-52l67 -42h-213l62 42v53h-172l170 284h102l-200 -255h99v51l85 113v-165z" />
    <glyph glyph-name="five.dnom" horiz-adv-x="340" 
d="M80 226l28 11c25 10 49 14 70 14c68 0 139 -44 139 -117c0 -90 -76 -134 -193 -134h-85s2 66 2 109h5s44 -89 117 -89c43 0 69 15 69 89c0 48 -7 117 -80 117c-24 0 -52 -9 -80 -30l-2 -11h-24l28 180l2 13h200l41 32l-7 -32l-19 -76h-196z" />
    <glyph glyph-name="six.dnom" horiz-adv-x="327" 
d="M290 388l4 -16c-91 -33 -158 -87 -182 -167c19 10 50 24 76 24c67 0 124 -39 124 -112c0 -58 -58 -125 -157 -125c-80 0 -140 48 -140 127c0 120 124 216 275 269zM106 183c-5 -20 -6 -38 -6 -61c0 -70 29 -109 69 -109c47 0 60 61 60 90c0 66 -42 100 -75 100
c-21 0 -37 -12 -48 -20z" />
    <glyph glyph-name="seven.dnom" horiz-adv-x="362" 
d="M37 256h-2v122h292l-227 -388l-28 10l168 302h-169z" />
    <glyph glyph-name="eight.dnom" horiz-adv-x="364" 
d="M189 388c49 0 114 -25 114 -76c0 -41 -31 -65 -66 -85c46 -28 93 -56 93 -117c0 -90 -106 -120 -161 -120c-79 0 -136 38 -136 93c0 59 52 84 87 104c-36 28 -70 50 -70 101c0 69 74 100 139 100zM221 234c27 18 35 41 35 70c0 48 -39 66 -73 66c-36 0 -70 -20 -70 -60
c0 -39 56 -54 108 -76zM140 179c-29 -17 -60 -50 -60 -93c0 -40 27 -78 90 -78c51 0 91 23 91 71c0 63 -62 77 -121 100z" />
    <glyph glyph-name="nine.dnom" 
d="M62 -9l-4 16c94 33 163 87 188 167c-20 -10 -52 -24 -79 -24c-69 0 -127 39 -127 112c0 58 59 125 161 125c83 0 145 -48 145 -127c0 -120 -128 -216 -284 -269zM252 196c5 20 6 38 6 61c0 70 -30 109 -71 109c-48 0 -62 -61 -62 -90c0 -66 43 -100 77 -100
c22 0 38 12 50 20z" />
    <glyph glyph-name="zero.numr" horiz-adv-x="371" 
d="M343 508c0 -99 -62 -215 -184 -215c-94 0 -145 90 -145 181c0 99 61 215 183 215c95 0 146 -90 146 -181zM162 660c-54 0 -62 -70 -62 -116c0 -119 40 -222 97 -222c47 0 62 77 62 116c0 119 -41 222 -97 222z" />
    <glyph glyph-name="one.numr" horiz-adv-x="329" 
d="M63 544l-1 1l153 142v-348l67 -42h-213l62 42v228z" />
    <glyph glyph-name="two.numr" 
d="M31 307l-6 21c59 42 193 155 193 271c0 40 -29 66 -77 66c-51 0 -79 -33 -103 -90h-3v110h95c94 0 184 -31 184 -98c0 -90 -132 -142 -193 -206l2 -3l34 3l143 2l41 77h3l-15 -153h-298z" />
    <glyph glyph-name="three.numr" 
d="M48 296l-5 19c71 0 185 21 185 88c0 56 -53 77 -118 88c-7 -1 -14 -3 -22 -4l-2 11l24 7c45 15 128 40 128 94c0 41 -34 66 -86 66s-75 -43 -96 -88h-4v108h110c92 0 172 -19 172 -77c0 -42 -52 -71 -158 -99c70 -5 164 -23 164 -84c0 -92 -217 -129 -292 -129z" />
    <glyph glyph-name="four.numr" horiz-adv-x="387" 
d="M276 429h91v-29h-91v-52l67 -42h-213l62 42v53h-172l170 284h102l-200 -255h99v51l85 113v-165z" />
    <glyph glyph-name="five.numr" horiz-adv-x="340" 
d="M80 533l28 11c25 10 49 14 70 14c68 0 139 -44 139 -117c0 -90 -76 -134 -193 -134h-85s2 66 2 109h5s44 -89 117 -89c43 0 69 15 69 89c0 48 -7 117 -80 117c-24 0 -52 -9 -80 -30l-2 -11h-24l28 180l2 13h200l41 32l-7 -32l-19 -76h-196z" />
    <glyph glyph-name="six.numr" horiz-adv-x="327" 
d="M271 701l4 -16c-91 -33 -158 -87 -182 -167c19 10 50 24 76 24c67 0 124 -39 124 -112c0 -58 -58 -125 -157 -125c-80 0 -140 48 -140 127c0 120 124 216 275 269zM87 496c-5 -20 -6 -38 -6 -61c0 -70 29 -109 69 -109c47 0 60 61 60 90c0 66 -42 100 -75 100
c-21 0 -37 -12 -48 -20z" />
    <glyph glyph-name="seven.numr" horiz-adv-x="362" 
d="M37 563h-2v122h292l-227 -388l-28 10l168 302h-169z" />
    <glyph glyph-name="eight.numr" horiz-adv-x="364" 
d="M189 695c49 0 114 -25 114 -76c0 -41 -31 -65 -66 -85c46 -28 93 -56 93 -117c0 -90 -106 -120 -161 -120c-79 0 -136 38 -136 93c0 59 52 84 87 104c-36 28 -70 50 -70 101c0 69 74 100 139 100zM221 541c27 18 35 41 35 70c0 48 -39 66 -73 66c-36 0 -70 -20 -70 -60
c0 -39 56 -54 108 -76zM140 486c-29 -17 -60 -50 -60 -93c0 -40 27 -78 90 -78c51 0 91 23 91 71c0 63 -62 77 -121 100z" />
    <glyph glyph-name="nine.numr" 
d="M85 297l-4 16c94 33 163 87 188 167c-20 -10 -52 -24 -79 -24c-69 0 -127 39 -127 112c0 58 59 125 161 125c83 0 145 -48 145 -127c0 -120 -128 -216 -284 -269zM275 502c5 20 6 38 6 61c0 70 -30 109 -71 109c-48 0 -62 -61 -62 -90c0 -66 43 -100 77 -100
c22 0 38 12 50 20z" />
    <glyph glyph-name="zerosuperior" unicode="&#x2070;" horiz-adv-x="409" 
d="M369 603c0 -99 -62 -215 -184 -215c-94 0 -145 90 -145 181c0 99 61 215 183 215c95 0 146 -90 146 -181zM188 755c-54 0 -62 -70 -62 -116c0 -119 40 -222 97 -222c47 0 62 77 62 116c0 119 -41 222 -97 222z" />
    <glyph glyph-name="onesuperior" unicode="&#xb9;" horiz-adv-x="329" 
d="M63 673l-1 1l153 142v-348l67 -42h-213l62 42v228z" />
    <glyph glyph-name="twosuperior" unicode="&#xb2;" 
d="M31 432l-6 21c59 42 193 155 193 271c0 40 -29 66 -77 66c-51 0 -79 -33 -103 -90h-3v110h95c94 0 184 -31 184 -98c0 -90 -132 -142 -193 -206l2 -3l34 3l143 2l41 77h3l-15 -153h-298z" />
    <glyph glyph-name="threesuperior" unicode="&#xb3;" 
d="M48 416l-5 19c71 0 185 21 185 88c0 56 -53 77 -118 88c-7 -1 -14 -3 -22 -4l-2 11l24 7c45 15 128 40 128 94c0 41 -34 66 -86 66s-75 -43 -96 -88h-4v108h110c92 0 172 -19 172 -77c0 -42 -52 -71 -158 -99c70 -5 164 -23 164 -84c0 -92 -217 -129 -292 -129z" />
    <glyph glyph-name="foursuperior" unicode="&#x2074;" horiz-adv-x="387" 
d="M276 549h91v-29h-91v-52l67 -42h-213l62 42v53h-172l170 284h102l-200 -255h99v51l85 113v-165z" />
    <glyph glyph-name="fivesuperior" unicode="&#x2075;" horiz-adv-x="340" 
d="M80 652l28 11c25 10 49 14 70 14c68 0 139 -44 139 -117c0 -90 -76 -134 -193 -134h-85s2 66 2 109h5s44 -89 117 -89c43 0 69 15 69 89c0 48 -7 117 -80 117c-24 0 -52 -9 -80 -30l-2 -11h-24l28 180l2 13h200l41 32l-7 -32l-19 -76h-196z" />
    <glyph glyph-name="sixsuperior" unicode="&#x2076;" horiz-adv-x="327" 
d="M271 817l4 -16c-91 -33 -158 -87 -182 -167c19 10 50 24 76 24c67 0 124 -39 124 -112c0 -58 -58 -125 -157 -125c-80 0 -140 48 -140 127c0 120 124 216 275 269zM87 612c-5 -20 -6 -38 -6 -61c0 -70 29 -109 69 -109c47 0 60 61 60 90c0 66 -42 100 -75 100
c-21 0 -37 -12 -48 -20z" />
    <glyph glyph-name="sevensuperior" unicode="&#x2077;" horiz-adv-x="362" 
d="M37 680h-2v122h292l-227 -388l-28 10l168 302h-169z" />
    <glyph glyph-name="eightsuperior" unicode="&#x2078;" horiz-adv-x="364" 
d="M189 819c49 0 114 -25 114 -76c0 -41 -31 -65 -66 -85c46 -28 93 -56 93 -117c0 -90 -106 -120 -161 -120c-79 0 -136 38 -136 93c0 59 52 84 87 104c-36 28 -70 50 -70 101c0 69 74 100 139 100zM221 665c27 18 35 41 35 70c0 48 -39 66 -73 66c-36 0 -70 -20 -70 -60
c0 -39 56 -54 108 -76zM140 610c-29 -17 -60 -50 -60 -93c0 -40 27 -78 90 -78c51 0 91 23 91 71c0 63 -62 77 -121 100z" />
    <glyph glyph-name="ninesuperior" unicode="&#x2079;" 
d="M85 419l-4 16c94 33 163 87 188 167c-20 -10 -52 -24 -79 -24c-69 0 -127 39 -127 112c0 58 59 125 161 125c83 0 145 -48 145 -127c0 -120 -128 -216 -284 -269zM275 624c5 20 6 38 6 61c0 70 -30 109 -71 109c-48 0 -62 -61 -62 -90c0 -66 43 -100 77 -100
c22 0 38 12 50 20z" />
    <glyph glyph-name="asterisk" unicode="*" horiz-adv-x="335" 
d="M178 537h-18l-28 117l36 42l37 -40zM138 515l9 16l-88 82l-54 -10l16 -52zM198 515l-9 16l87 82l55 -10l-17 -52zM138 499l9 -16l-88 -83l-54 11l16 52zM198 499l-9 -16l87 -83l55 11l-17 52zM160 479h18l28 -117l-36 -42l-37 40z" />
    <glyph glyph-name="backslash" unicode="\" horiz-adv-x="432" 
d="M105 695l312 -695h-77l-312 695h77z" />
    <glyph glyph-name="bullet" unicode="&#x2022;" horiz-adv-x="347" 
d="M45 263l129 139l128 -139l-128 -138z" />
    <glyph glyph-name="colon" unicode=":" horiz-adv-x="181" 
d="M5 335l86 93l85 -93l-85 -92zM5 66l86 93l85 -93l-85 -92z" />
    <glyph glyph-name="comma" unicode="," horiz-adv-x="227" 
d="M47 -123l-14 10c34 28 65 66 65 104c0 26 -16 38 -29 52l-39 31l83 85c33 -20 81 -63 81 -97c0 -98 -125 -171 -147 -185z" />
    <glyph glyph-name="ellipsis" unicode="&#x2026;" horiz-adv-x="763" 
d="M25 66l86 92l85 -92l-85 -92zM296 66l86 92l85 -92l-85 -92zM567 66l86 92l85 -92l-85 -92z" />
    <glyph glyph-name="exclam" unicode="!" horiz-adv-x="217" 
d="M166 657l-48 -437h-36l-49 437l67 46zM19 66l86 93l85 -93l-85 -92z" />
    <glyph glyph-name="exclamdown" unicode="&#xa1;" horiz-adv-x="217" 
d="M194 411l-86 -93l-85 93l85 92zM47 -180l48 437h36l49 -437l-67 -46z" />
    <glyph glyph-name="numbersign" unicode="#" horiz-adv-x="584" 
d="M254 429h118l47 179h74l-47 -179h108v-50h-121l-37 -152h130v-51h-143l-47 -176h-74l47 176h-118l-48 -176h-74l48 176h-87v51h100l37 152h-109v50h122l46 179h74zM204 227h118l37 152h-118z" />
    <glyph glyph-name="period" unicode="." horiz-adv-x="181" 
d="M5 66l86 93l85 -93l-85 -92z" />
    <glyph glyph-name="periodcentered" unicode="&#xb7;" horiz-adv-x="181" 
d="M5 263l86 93l85 -93l-85 -92z" />
    <glyph glyph-name="question" unicode="?" horiz-adv-x="504" 
d="M66 695h86c144 0 308 -18 308 -155c0 -130 -182 -178 -248 -212l-12 -108h-24l-18 122c92 32 150 107 150 176c0 110 -38 140 -78 140c-76 0 -110 -59 -132 -133l-8 -1zM104 66l86 93l85 -93l-85 -92z" />
    <glyph glyph-name="questiondown" unicode="&#xbf;" horiz-adv-x="504" 
d="M336 501l86 -92l-86 -93l-85 93zM460 -220h-86c-144 0 -308 18 -308 155c0 130 182 178 248 212l12 108h24l18 -122c-92 -32 -150 -107 -150 -176c0 -110 38 -140 78 -140c76 0 110 59 132 133l8 1z" />
    <glyph glyph-name="quotedbl" unicode="&#x22;" horiz-adv-x="246" 
d="M80 475h-40l-16 220h74zM197 475h-40l-16 220h74z" />
    <glyph glyph-name="quotesingle" unicode="'" horiz-adv-x="134" 
d="M82 475h-40l-16 220h74z" />
    <glyph glyph-name="semicolon" unicode=";" horiz-adv-x="243" 
d="M41 351l86 93l85 -93l-85 -92zM60 -123l-14 10c34 28 65 66 65 104c0 26 -16 38 -29 52l-39 31l83 85c33 -20 81 -63 81 -97c0 -98 -125 -171 -147 -185z" />
    <glyph glyph-name="slash" unicode="/" horiz-adv-x="445" 
d="M105 0h-77l312 695h77z" />
    <glyph glyph-name="underscore" unicode="_" horiz-adv-x="556" 
d="M556 -60h-556v60h556v-60z" />
    <glyph glyph-name="exclamdown.case" horiz-adv-x="217" 
d="M194 607l-86 -93l-85 93l85 92zM47 16l48 437h36l49 -437l-67 -46z" />
    <glyph glyph-name="questiondown.case" horiz-adv-x="504" 
d="M336 581l86 -92l-86 -93l-85 93zM460 -140h-86c-144 0 -308 18 -308 155c0 130 182 178 248 212l12 108h24l18 -122c-92 -32 -150 -107 -150 -176c0 -110 38 -140 78 -140c76 0 110 59 132 133l8 1z" />
    <glyph glyph-name="braceleft" unicode="{" horiz-adv-x="296" 
d="M51 284v-4c19 -13 129 -45 129 -165c0 -51 -9 -64 -9 -131c0 -80 18 -115 74 -115l-2 -31c-100 0 -160 41 -160 158c0 42 12 96 12 144c0 59 -23 93 -42 108c-13 10 -21 13 -42 19v30c21 6 29 9 42 19c19 15 42 49 42 108c0 48 -12 102 -12 144c0 117 60 158 160 158
l2 -31c-56 0 -74 -35 -74 -115c0 -67 9 -80 9 -131c0 -120 -110 -152 -129 -165z" />
    <glyph glyph-name="braceright" unicode="}" horiz-adv-x="296" 
d="M213 280v4c-19 13 -129 45 -129 165c0 51 9 64 9 131c0 80 -18 115 -74 115l2 31c100 0 160 -41 160 -158c0 -42 -12 -96 -12 -144c0 -59 23 -93 42 -108c13 -10 21 -13 42 -19v-30c-21 -6 -29 -9 -42 -19c-19 -15 -42 -49 -42 -108c0 -48 12 -102 12 -144
c0 -117 -60 -158 -160 -158l-2 31c56 0 74 35 74 115c0 67 -9 80 -9 131c0 120 110 152 129 165z" />
    <glyph glyph-name="bracketleft" unicode="[" horiz-adv-x="214" 
d="M5 711h191v-56h-123v-759h123v-56h-191v871z" />
    <glyph glyph-name="bracketright" unicode="]" horiz-adv-x="214" 
d="M8 -104h123v759h-123v56h191v-871h-191v56z" />
    <glyph glyph-name="parenleft" unicode="(" horiz-adv-x="291" 
d="M266 726l15 -15c-121 -123 -152 -253 -152 -435s31 -313 152 -435l-15 -15c-99 86 -235 200 -235 450s136 354 235 450z" />
    <glyph glyph-name="parenright" unicode=")" horiz-adv-x="290" 
d="M10 711l15 15c98 -96 234 -200 234 -450s-136 -364 -234 -450l-15 15c121 122 152 253 152 435s-31 312 -152 435z" />
    <glyph glyph-name="braceleft.case" horiz-adv-x="314" 
d="M60 345v-4c19 -13 129 -45 129 -165c0 -51 -9 -64 -9 -131c0 -80 18 -115 74 -115l-2 -31c-100 0 -160 41 -160 158c0 42 12 96 12 144c0 59 -23 93 -42 108c-13 10 -21 13 -42 19v30c21 6 29 9 42 19c19 15 42 49 42 108c0 48 -12 102 -12 144c0 117 60 158 160 158
l2 -31c-56 0 -74 -35 -74 -115c0 -67 9 -80 9 -131c0 -120 -110 -152 -129 -165z" />
    <glyph glyph-name="braceright.case" horiz-adv-x="314" 
d="M254 341v4c-19 13 -129 45 -129 165c0 51 9 64 9 131c0 80 -18 115 -74 115l2 31c100 0 160 -41 160 -158c0 -42 -12 -96 -12 -144c0 -59 23 -93 42 -108c13 -10 21 -13 42 -19v-30c-21 -6 -29 -9 -42 -19c-19 -15 -42 -49 -42 -108c0 -48 12 -102 12 -144
c0 -117 -60 -158 -160 -158l-2 31c56 0 74 35 74 115c0 67 -9 80 -9 131c0 120 110 152 129 165z" />
    <glyph glyph-name="bracketleft.case" horiz-adv-x="237" 
d="M11 778h191v-56h-123v-759h123v-56h-191v871z" />
    <glyph glyph-name="bracketright.case" horiz-adv-x="237" 
d="M35 -93v56h123v759h-123v56h191v-871h-191z" />
    <glyph glyph-name="parenleft.case" horiz-adv-x="300" 
d="M275 793l15 -15c-121 -123 -152 -253 -152 -435s31 -313 152 -435l-15 -15c-99 86 -235 200 -235 450s136 354 235 450z" />
    <glyph glyph-name="parenright.case" horiz-adv-x="300" 
d="M10 778l15 15c99 -96 235 -200 235 -450s-136 -364 -235 -450l-15 15c121 122 152 253 152 435s-31 312 -152 435z" />
    <glyph glyph-name="emdash" unicode="&#x2014;" horiz-adv-x="900" 
d="M900 241h-900v70h900v-70z" />
    <glyph glyph-name="endash" unicode="&#x2013;" horiz-adv-x="500" 
d="M500 241h-500v70h500v-70z" />
    <glyph glyph-name="hyphen" unicode="-" horiz-adv-x="294" 
d="M275 242h-245v80h245v-80z" />
    <glyph glyph-name="softhyphen" unicode="&#xad;" horiz-adv-x="446" 
d="M440 241h-434v70h434v-70z" />
    <glyph glyph-name="emdash.case" horiz-adv-x="900" 
d="M900 308h-900v70h900v-70z" />
    <glyph glyph-name="endash.case" horiz-adv-x="500" 
d="M500 308h-500v70h500v-70z" />
    <glyph glyph-name="hyphen.case" horiz-adv-x="294" 
d="M275 303h-245v80h245v-80z" />
    <glyph glyph-name="softhyphen.case" horiz-adv-x="446" 
d="M440 308h-434v70h434v-70z" />
    <glyph glyph-name="guillemotleft" unicode="&#xab;" horiz-adv-x="512" 
d="M68 246h110l112 -218l-10 -10l-268 228l268 228l10 -17zM289 246h110l112 -218l-10 -10l-268 228l268 228l10 -17z" />
    <glyph glyph-name="guillemotright" unicode="&#xbb;" horiz-adv-x="512" 
d="M229 246h-110l-112 218l10 10l268 -228l-268 -228l-10 17zM450 246h-110l-112 218l10 10l268 -228l-268 -228l-10 17z" />
    <glyph glyph-name="guilsinglleft" unicode="&#x2039;" horiz-adv-x="296" 
d="M68 246h110l112 -218l-10 -10l-268 228l268 228l10 -10z" />
    <glyph glyph-name="guilsinglright" unicode="&#x203a;" horiz-adv-x="296" 
d="M228 246h-110l-112 218l10 10l268 -228l-268 -228l-10 10z" />
    <glyph glyph-name="quotedblbase" unicode="&#x201e;" horiz-adv-x="427" 
d="M47 -122l-14 10c34 28 65 66 65 104c0 26 -16 38 -29 52l-39 31l83 85c33 -20 81 -63 81 -97c0 -98 -125 -171 -147 -185zM247 -122l-14 10c34 28 65 66 65 104c0 26 -16 38 -29 52l-39 31l83 85c33 -20 81 -63 81 -97c0 -98 -125 -171 -147 -185z" />
    <glyph glyph-name="quotedblleft" unicode="&#x201c;" horiz-adv-x="425" 
d="M177 711l14 -10c-34 -28 -65 -66 -65 -104c0 -26 16 -38 29 -52l39 -31l-83 -85c-33 20 -81 63 -81 97c0 98 125 171 147 185zM377 711l14 -10c-34 -28 -65 -66 -65 -104c0 -26 16 -38 29 -52l39 -31l-83 -85c-33 20 -81 63 -81 97c0 98 125 171 147 185z" />
    <glyph glyph-name="quotedblright" unicode="&#x201d;" horiz-adv-x="425" 
d="M47 429l-14 10c34 28 65 66 65 104c0 26 -16 38 -29 52l-39 31l83 85c33 -20 81 -63 81 -97c0 -98 -125 -171 -147 -185zM247 429l-14 10c34 28 65 66 65 104c0 26 -16 38 -29 52l-39 31l83 85c33 -20 81 -63 81 -97c0 -98 -125 -171 -147 -185z" />
    <glyph glyph-name="quoteleft" unicode="&#x2018;" horiz-adv-x="248" 
d="M177 711l14 -10c-34 -28 -65 -66 -65 -104c0 -26 16 -38 29 -52l39 -31l-83 -85c-33 20 -81 63 -81 97c0 98 125 171 147 185z" />
    <glyph glyph-name="quoteright" unicode="&#x2019;" horiz-adv-x="248" 
d="M47 429l-14 10c34 28 65 66 65 104c0 26 -16 38 -29 52l-39 31l83 85c33 -20 81 -63 81 -97c0 -98 -125 -171 -147 -185z" />
    <glyph glyph-name="quotesinglbase" unicode="&#x201a;" horiz-adv-x="227" 
d="M47 -123l-14 10c34 28 65 66 65 104c0 26 -16 38 -29 52l-39 31l83 85c33 -20 81 -63 81 -97c0 -98 -125 -171 -147 -185z" />
    <glyph glyph-name="guillemotleft.case" horiz-adv-x="512" 
d="M68 338h110l112 -218l-10 -10l-268 228l268 228l10 -17zM289 338h110l112 -218l-10 -10l-268 228l268 228l10 -17z" />
    <glyph glyph-name="guillemotright.case" horiz-adv-x="512" 
d="M234 338h-110l-112 218l10 10l268 -228l-268 -228l-10 17zM455 338h-110l-112 218l10 10l268 -228l-268 -228l-10 17z" />
    <glyph glyph-name="guilsinglleft.case" horiz-adv-x="296" 
d="M65 338h110l112 -218l-10 -10l-268 228l268 228l10 -17z" />
    <glyph glyph-name="guilsinglright.case" horiz-adv-x="296" 
d="M234 338h-110l-112 218l10 10l268 -228l-268 -228l-10 17z" />
    <glyph glyph-name="space" unicode=" " horiz-adv-x="215" 
 />
    <glyph glyph-name="uni00A0" unicode="&#xa0;" horiz-adv-x="215" 
 />
    <glyph glyph-name="uni2009" unicode="&#x2009;" horiz-adv-x="200" 
 />
    <glyph glyph-name="CR" unicode="&#xd;" horiz-adv-x="0" 
 />
    <glyph glyph-name="florin" unicode="&#x192;" horiz-adv-x="600" 
d="M511 783v-160h-7c-35 71 -80 125 -123 125c-47 0 -52 -55 -57 -139l-8 -119h163v-41l-165 -4l-24 -371c-8 -120 -55 -265 -182 -265h-120v160h7c35 -71 80 -125 123 -125c47 0 52 53 57 139l29 460l-89 -2v49h92l2 28c8 120 55 265 182 265h120z" />
    <glyph glyph-name="cent" unicode="&#xa2;" horiz-adv-x="448" 
d="M409 414h-5c-22 34 -57 75 -106 92l-43 -335c11 -3 22 -4 34 -4c69 0 121 55 133 90l11 -4c-20 -77 -82 -192 -194 -204l-14 -107h-36l10 107c-117 12 -174 123 -174 236c0 102 62 241 220 262l10 102h62l-13 -99h105v-136zM212 189l30 326c-78 -4 -102 -71 -102 -139
c0 -101 30 -159 72 -187z" />
    <glyph glyph-name="currency" unicode="&#xa4;" horiz-adv-x="466" 
d="M80 490l65 -62c25 18 55 29 88 29c32 0 62 -11 86 -28l64 61l30 -32l-62 -59c19 -25 30 -56 30 -90c0 -35 -12 -67 -31 -92l63 -60l-30 -32l-65 62c-24 -17 -53 -26 -85 -26s-62 10 -87 27l-66 -63l-30 32l65 62c-19 25 -30 56 -30 90c0 33 11 64 29 88l-64 61zM127 309
c0 -59 47 -106 106 -106s107 47 107 106s-48 106 -107 106s-106 -47 -106 -106z" />
    <glyph glyph-name="dollar" unicode="$" horiz-adv-x="465" 
d="M30 233h10c25 -94 83 -173 154 -199v209c-79 35 -161 75 -161 185c0 84 51 157 162 167v54h62l-2 -53h91l42 13v-188l-7 1c-25 70 -71 118 -127 137l-7 -189c88 -37 188 -74 188 -183c0 -132 -83 -188 -201 -194l-2 -51h-38v51c-53 3 -115 14 -153 31zM195 393v175
c-45 -2 -77 -31 -77 -79c0 -45 32 -73 77 -96zM235 26h7c46 0 98 24 98 78c0 60 -44 91 -98 117z" />
    <glyph glyph-name="Euro" unicode="&#x20ac;" horiz-adv-x="625" 
d="M583 193l12 -9c-38 -90 -117 -194 -249 -194c-140 0 -221 95 -235 240l-103 -3v48h101v1c0 22 2 45 6 67l-93 -3v49h105c37 112 133 206 289 206h125v-177h-6c-34 73 -82 141 -172 141s-128 -73 -136 -169h160v-39l-161 -5c0 -24 2 -48 5 -69h142v-39l-133 -4
c22 -85 73 -142 158 -142c105 0 157 57 185 101z" />
    <glyph glyph-name="sterling" unicode="&#xa3;" horiz-adv-x="557" 
d="M494 0h-486l41 44h3c25 2 81 14 81 236v30l-83 -2v48h83c5 86 66 239 218 239h120v-136h-4c-29 44 -81 101 -155 101c-59 0 -77 -37 -77 -81c0 -56 23 -97 34 -121h150v-43l-142 -3c-2 -157 -64 -204 -146 -262v-2l288 15l85 85h6z" />
    <glyph glyph-name="yen" unicode="&#xa5;" horiz-adv-x="729" 
d="M438 283h117v-50h-126v-50h126v-50h-126v-32l84 -101h-298l84 101v32h-131v49h131v51h-131v49h100l-147 207l-91 106h321l-85 -106h-1l118 -153l16 -23l131 178l-85 104h254l-103 -94z" />
    <glyph glyph-name="approxequal" unicode="&#x2248;" horiz-adv-x="451" 
d="M347 383l44 34l15 -6l-59 -100l-248 13l-40 -43l-14 9l63 106zM347 211l44 34l15 -6l-59 -100l-248 13l-40 -43l-14 9l63 106z" />
    <glyph glyph-name="asciitilde" unicode="~" horiz-adv-x="399" 
d="M320 552l44 34l15 -6l-59 -103l-219 13l-40 -43l-14 9l63 109z" />
    <glyph glyph-name="divide" unicode="&#xf7;" horiz-adv-x="446" 
d="M140 437l84 90l83 -90l-83 -91zM423 241h-400v70h400v-70zM140 116l84 90l83 -90l-83 -91z" />
    <glyph glyph-name="emptyset" unicode="&#x2205;" horiz-adv-x="610" 
d="M570 479l-71 -68c38 -45 61 -103 61 -166c0 -141 -114 -255 -255 -255c-67 0 -128 26 -173 68l-72 -69l-20 22l71 68c-38 45 -61 103 -61 166c0 141 114 255 255 255c67 0 128 -26 173 -68l72 69zM138 105l314 302c-39 35 -90 56 -147 56c-121 0 -218 -97 -218 -218
c0 -53 19 -102 51 -140zM472 385l-314 -302c39 -35 90 -56 147 -56c121 0 218 97 218 218c0 53 -19 102 -51 140z" />
    <glyph glyph-name="equal" unicode="=" horiz-adv-x="487" 
d="M426 405v-72h-381v72h381zM426 201v-72h-381v72h381z" />
    <glyph glyph-name="greater" unicode="&#x3e;" horiz-adv-x="559" 
d="M514 212l-468 -172v72l303 117l-303 163v72l468 -172v-80z" />
    <glyph glyph-name="greaterequal" unicode="&#x2265;" horiz-adv-x="528" 
d="M46 137v72l283 145l-283 115v72l431 -162v-72zM483 25h-438v70h438v-70z" />
    <glyph glyph-name="infinity" unicode="&#x221e;" horiz-adv-x="556" 
d="M516 297c0 -69 -37 -147 -120 -147c-61 0 -87 36 -120 74c-24 -37 -54 -80 -125 -80c-65 0 -111 60 -111 132c0 58 36 158 144 158c72 0 106 -36 139 -85c24 37 53 69 102 69c61 0 91 -68 91 -121zM332 332c26 -56 44 -115 91 -115s71 36 71 74c0 36 -21 78 -79 78
c-34 0 -62 -8 -83 -37zM266 246c-27 62 -44 115 -119 115c-58 0 -85 -29 -85 -84c0 -56 45 -84 93 -84c51 0 91 22 111 53z" />
    <glyph glyph-name="integral" unicode="&#x222b;" horiz-adv-x="440" 
d="M455 623h-7c-35 71 -80 125 -123 125c-47 0 -60 -55 -57 -139l22 -535c5 -120 -55 -265 -182 -265h-120v160h7c35 -71 80 -125 123 -125c47 0 61 53 57 139l-22 535c-5 120 55 265 182 265h120v-160z" />
    <glyph glyph-name="less" unicode="&#x3c;" horiz-adv-x="559" 
d="M46 292l468 172v-72l-303 -117l303 -163v-72l-468 172v80z" />
    <glyph glyph-name="lessequal" unicode="&#x2264;" horiz-adv-x="528" 
d="M51 379l431 162v-72l-283 -115l283 -145v-72l-431 170v72zM483 95v-70h-438v70h438z" />
    <glyph glyph-name="logicalnot" unicode="&#xac;" horiz-adv-x="558" 
d="M525 267v-212h-65v186h-427v70h491v-44h1z" />
    <glyph glyph-name="minus" unicode="&#x2212;" horiz-adv-x="446" 
d="M413 241h-380v70h380v-70z" />
    <glyph glyph-name="multiply" unicode="&#xd7;" horiz-adv-x="393" 
d="M247 254l124 -130l-51 -51l-123 129l-124 -130l-51 57l122 128l-113 119l51 51l112 -118l117 123l51 -57z" />
    <glyph glyph-name="notequal" unicode="&#x2260;" horiz-adv-x="454" 
d="M354 405h72v-72h-122l-92 -132h214v-72h-264l-73 -104h-44l73 104h-73v72h123l92 132h-215v72h265l72 103h44z" />
    <glyph glyph-name="partialdiff" unicode="&#x2202;" horiz-adv-x="518" 
d="M76 703h129c186 0 276 -207 276 -369c0 -229 -113 -348 -260 -348c-115 0 -191 80 -191 236c0 118 68 237 213 237c19 0 68 -3 125 -66c-11 198 -77 276 -152 276c-44 0 -91 -24 -133 -79h-7v113zM242 19c84 0 129 164 129 302c0 14 0 28 -1 41c-24 48 -83 68 -113 68
c-67 0 -99 -91 -99 -226c0 -89 24 -185 84 -185z" />
    <glyph glyph-name="percent" unicode="%" horiz-adv-x="781" 
d="M642 719l-452 -752h-47l451 752h48zM362 508c0 -99 -62 -215 -184 -215c-94 0 -145 90 -145 181c0 99 61 215 183 215c95 0 146 -90 146 -181zM181 660c-54 0 -62 -70 -62 -116c0 -119 40 -222 97 -222c47 0 62 77 62 116c0 119 -41 222 -97 222zM748 205
c0 -99 -62 -215 -184 -215c-94 0 -145 90 -145 181c0 99 61 215 183 215c95 0 146 -90 146 -181zM567 357c-54 0 -62 -70 -62 -116c0 -119 40 -222 97 -222c47 0 62 77 62 116c0 119 -41 222 -97 222z" />
    <glyph glyph-name="perthousand" unicode="&#x2030;" horiz-adv-x="1131" 
d="M642 719l-472 -752h-50l471 752h51zM356 516c0 -97 -61 -209 -181 -209c-92 0 -142 87 -142 175c0 97 60 209 180 209c93 0 143 -87 143 -175zM178 663c-53 0 -60 -68 -60 -113c0 -115 39 -215 95 -215c46 0 60 75 60 113c0 115 -40 215 -95 215zM726 199
c0 -97 -61 -209 -181 -209c-92 0 -142 87 -142 175c0 97 60 209 179 209c94 0 144 -87 144 -175zM1098 199c0 -97 -60 -209 -180 -209c-92 0 -142 87 -142 175c0 97 60 209 179 209c93 0 143 -87 143 -175zM548 346c-53 0 -61 -68 -61 -113c0 -115 40 -215 95 -215
c46 0 61 75 61 113c0 115 -40 215 -95 215zM921 346c-53 0 -61 -68 -61 -113c0 -115 39 -215 95 -215c46 0 61 75 61 113c0 115 -40 215 -95 215z" />
    <glyph glyph-name="plus" unicode="+" horiz-adv-x="525" 
d="M289 310h179v-72h-179v-183l-79 -30v213h-170v72h170v173l79 30v-203z" />
    <glyph glyph-name="plusminus" unicode="&#xb1;" horiz-adv-x="518" 
d="M478 95v-70h-438v70h175v143h-170v72h170v173l79 30v-203h179v-72h-179v-143h184z" />
    <glyph glyph-name="product" unicode="&#x220f;" horiz-adv-x="734" 
d="M620 -63l74 -106h-273l74 106v719h-256v-719l74 -106h-273l74 106v655l-74 106h654l-74 -106v-655z" />
    <glyph glyph-name="radical" unicode="&#x221a;" horiz-adv-x="527" 
d="M101 358l-101 69l170 95l162 -417l135 739h60l-218 -943h-14z" />
    <glyph glyph-name="summation" unicode="&#x2211;" horiz-adv-x="644" 
d="M594 -163h-551l258 379l-261 482h553v-210h-12l-110 174h-241l193 -357l-246 -368h339l78 159h15z" />
    <glyph glyph-name="lozenge" unicode="&#x25ca;" horiz-adv-x="628" 
d="M588 300l-274 -289l-274 289l274 289zM111 300l203 -219l204 219l-204 218z" />
    <glyph glyph-name="ampersand" unicode="&#x26;" horiz-adv-x="791" 
d="M618 368l-96 68h246l-118 -70l-98 -183l80 -108l93 -75h-192l-64 92c-58 -54 -130 -107 -232 -107c-133 0 -193 59 -193 146c0 103 117 179 247 207v45h-2c-119 0 -177 69 -177 142c0 78 68 170 223 170c119 0 179 -65 179 -138c0 -66 -50 -144 -158 -167l5 -40h69
l106 -144zM292 669c-59 0 -63 -53 -63 -89c0 -93 45 -172 102 -172c51 0 65 65 65 95c0 93 -47 166 -104 166zM454 114l-144 208c-72 -18 -128 -79 -128 -146c0 -79 43 -125 145 -125c45 0 98 26 127 63z" />
    <glyph glyph-name="asciicircum" unicode="^" horiz-adv-x="466" 
d="M273 694l188 -412h-72l-186 254l-126 -254h-72l188 412l-1 1h82z" />
    <glyph glyph-name="at" unicode="@" horiz-adv-x="821" 
d="M703 226l59 41c11 -52 14 -87 14 -124c0 -192 -188 -318 -373 -318c-199 0 -358 126 -358 338c0 171 94 334 334 334h272l-28 -81v-336l29 -80h-168v79c-45 -35 -111 -91 -186 -90c-64 1 -114 46 -114 108c0 113 114 154 300 219c0 68 -2 142 -130 142
c-193 0 -270 -146 -270 -292c0 -198 138 -308 319 -308c187 0 334 123 334 262c0 38 -11 74 -34 106zM484 106v184c-126 -55 -174 -110 -174 -158c0 -46 40 -67 88 -67c35 0 57 15 86 41z" />
    <glyph glyph-name="bar" unicode="|" horiz-adv-x="323" 
d="M188 -150h-89v850h89v-850z" />
    <glyph glyph-name="brokenbar" unicode="&#xa6;" horiz-adv-x="287" 
d="M99 700h89v-330h-89v330zM188 -150h-89v330h89v-330z" />
    <glyph glyph-name="copyright" unicode="&#xa9;" horiz-adv-x="730" 
d="M365 23c-176 0 -319 143 -319 319s143 319 319 319s319 -143 319 -319s-143 -319 -319 -319zM365 66c152 0 276 124 276 276s-124 276 -276 276s-276 -124 -276 -276s124 -276 276 -276zM498 422h-8c-21 54 -69 97 -136 97c-65 0 -93 -61 -93 -129
c0 -97 44 -182 134 -182c78 0 117 41 127 61l10 -6c-19 -54 -77 -131 -176 -131c-116 0 -188 87 -188 202c0 110 78 219 230 219h100v-131z" />
    <glyph glyph-name="dagger" unicode="&#x2020;" horiz-adv-x="390" 
d="M10 376v114h152l-27 210h120l-27 -210h66l86 74v-114h-125v-88l-53 -442h-14l-53 442v88h-39z" />
    <glyph glyph-name="daggerdbl" unicode="&#x2021;" horiz-adv-x="390" 
d="M294 180l86 74v-114h-152l27 -210h-120l27 210h-66l-86 -74v114h152v270h-66l-86 -74v114h152l-27 210h120l-27 -210h66l86 74v-114h-152v-270h66z" />
    <glyph glyph-name="degree" unicode="&#xb0;" horiz-adv-x="256" 
d="M25 703c0 57 46 103 103 103s103 -46 103 -103s-46 -103 -103 -103s-103 46 -103 103zM70 703c0 -31 27 -58 58 -58s58 27 58 58s-27 58 -58 58s-58 -27 -58 -58z" />
    <glyph glyph-name="heartsuitblack" unicode="&#x2665;" horiz-adv-x="836" 
d="M602 535c62 0 184 -35 184 -188c0 -171 -253 -250 -368 -426c-115 176 -368 255 -368 426c0 153 122 188 184 188c76 0 139 -59 184 -125c45 66 108 125 184 125zM418 228c18 0 36 18 36 52c0 27 -33 84 -36 96c-4 -12 -35 -69 -35 -96c0 -34 17 -52 35 -52z" />
    <glyph glyph-name="heartsuitwhite" unicode="&#x2661;" horiz-adv-x="837" 
d="M418 -76l-14 17c-120 162 -354 242 -354 406c0 160 122 188 184 188c69 0 128 -49 172 -100c7 -8 17 -8 24 0c44 51 103 100 172 100c62 0 184 -28 184 -188c0 -164 -234 -244 -354 -406zM418 377l-12 16c-49 64 -105 115 -175 115c-49 0 -151 -25 -151 -156
c0 -154 205 -225 331 -377c5 -5 9 -5 14 0c126 152 331 223 331 377c0 131 -102 156 -150 156c-71 0 -127 -51 -176 -115zM418 227c-15 0 -26 16 -26 40c0 26 23 65 26 75c3 -10 27 -49 27 -75c0 -24 -12 -40 -27 -40z" />
    <glyph glyph-name="uni2607" unicode="&#x2607;" horiz-adv-x="424" 
d="M92 -36h-4l103 251h-151l297 339h4l-103 -251h151z" />
    <glyph glyph-name="paragraph" unicode="&#xb6;" horiz-adv-x="583" 
d="M264 273l4 43c-16 -7 -38 -11 -55 -11c-100 0 -191 74 -191 187c0 142 100 194 242 193h265l-68 -77h-1v-608h-66v643h-64v-617c0 -73 -56 -121 -80 -126l-3 2c17 35 17 69 17 91v280z" />
    <glyph glyph-name="pointingindexupwhite" unicode="&#x261d;" horiz-adv-x="600" 
d="M129 154h27c1 10 1 17 3 27s8 46 13 42l26 -3c-10 35 -16 65 -35 102s-33 103 -36 123c-4 27 -17 117 -17 139c0 30 12 90 41 90c35 0 35 -52 31 -80c6 9 22 17 33 17c20 0 42 -14 48 -44c5 7 14 11 20 11c12 0 24 -10 24 -10c2 1 3 9 3 20c1 17 1 42 2 59
c2 27 15 72 36 72c35 0 61 -63 65 -132s3 -82 -1 -114l-8 -62c13 -10 52 -56 52 -83s-11 -66 -23 -84s-11 -18 -10 -32s0 -29 0 -30s6 -1 11 -5s7 -11 6 -18s-1 -12 -1 -12l17 -3c6 -1 16 -1 17 -5c3 -9 1 -21 1 -32c0 -9 1 -39 -17 -35s-273 12 -291 10
c-30 -3 -47 4 -49 23c-1 12 -1 49 12 49zM352 694c-13 0 -17 -40 -20 -62c-2 -17 -4 -34 -4 -53s-1 -37 -1 -49s2 -31 0 -45s-4 -40 -4 -40c17 -1 48 8 61 -13c13 54 9 62 10 113s-2 50 -8 80s-20 69 -34 69zM358 424l-32 -4c7 -15 -2 -52 -7 -63c11 -8 38 -19 40 -22
s-4 -16 -8 -17s-38 13 -41 17c-3 -7 -12 -10 -12 -11c0 -9 -5 -55 22 -67c-5 -8 -12 -17 -12 -17c-20 8 -41 51 -34 81c-11 5 -25 27 -25 41c-7 -11 -7 -8 -16 -7s-27 10 -33 17s-14 38 -15 45s-2 33 -2 33c-8 2 -21 24 -24 43s-1 51 -1 64c0 34 3 94 -7 94s-22 -32 -21 -51
s5 -59 7 -71s14 -88 18 -103s6 -57 21 -82s48 -102 48 -128c25 -6 174 -31 174 -31c-1 23 6 50 10 61s28 49 28 75s-5 27 -13 36l-51 55c-4 4 -7 13 -14 12zM216 588c-21 0 -38 -14 -38 -32c0 -16 1 -48 2 -54s6 -20 6 -20c3 6 19 7 20 -10s5 -52 3 -61s10 -33 18 -33
s19 19 16 56s4 62 4 89s-2 66 -31 65zM270 542l-3 -8c-2 -12 -2 -75 -2 -82v-35c3 -6 0 -73 21 -73s17 48 19 68s4 60 4 72v25c0 6 0 7 -4 21c-3 12 -5 27 -20 27c-8 0 -7 -4 -15 -15zM185 196c-1 -14 -4 -29 -3 -42c29 -3 203 -15 211 -15s14 5 18 7s11 15 6 14
s-219 36 -232 36z" />
    <glyph glyph-name="registered" unicode="&#xae;" horiz-adv-x="445" 
d="M222 414c-111 0 -202 90 -202 202s91 202 202 202c113 0 203 -90 203 -202s-90 -202 -203 -202zM222 441c97 0 175 79 175 175c0 97 -78 175 -175 175c-96 0 -175 -78 -175 -175c0 -96 79 -175 175 -175zM265 502l-57 106l-16 -2v-68l26 -36h-96l25 36v161l-25 37h82
c25 0 103 -5 103 -61c0 -28 -25 -48 -54 -58l45 -82l36 -33h-69zM192 725v-107c33 1 64 19 64 52c0 41 -27 55 -64 55z" />
    <glyph glyph-name="section" unicode="&#xa7;" horiz-adv-x="600" 
d="M264 271l4 43c-16 -7 -38 -11 -55 -11c-100 0 -191 74 -191 187c0 142 100 195 242 195l1 -1h39v1h138v-2h87l-68 -77h-1v-606h-66v641h-64v-641h-66v271z" />
    <glyph glyph-name="uni2620" unicode="&#x2620;" horiz-adv-x="605" 
d="M163 10v104c0 33 -48 0 -72 48c-24 32 -32 72 -40 112c-15 182 82 320 240 320c197 0 264 -134 264 -320c0 -143 -112 -94 -112 -184v-64l-40 -8v80c0 43 2 47 32 66c32 20 48 38 64 62l-8 8c-16 11 -31 23 -45 36c-12 -7 -26 -12 -43 -12c-42 0 -57 36 -64 88
c0 6 5 13 18 15c-49 59 -91 123 -130 185l-5 8c-6 0 -19 -10 -27 -16c-96 -69 -160 -304 -24 -376c38 -20 32 -16 32 -64v-48h24v-72l-24 -24l-16 24l4 38zM307 562h-32c41 -67 86 -137 138 -198c12 1 26 2 44 2c22 0 26 -14 26 -28c0 -10 -3 -24 -9 -37
c10 -9 22 -18 33 -27c29 118 -54 288 -200 288zM275 338c-18 -48 -45 -72 -96 -72c-38 0 -56 34 -56 80c0 11 7 16 16 16c40 0 80 -8 120 -8c16 0 16 -8 16 -16zM305 295c8 -6 16 -12 18 -21c0 -48 16 -82 16 -104c-14 -12 -26 -19 -45 -19c-17 0 -30 10 -30 24
c0 19 12 35 24 99c5 9 13 17 17 21zM387 42v-64l-16 -16l-24 16v64h40zM331 34v-64l-16 -16l-16 16v64h32zM283 26l-8 -80l-16 -24l-16 24v80h40z" />
    <glyph glyph-name="trademark" unicode="&#x2122;" horiz-adv-x="944" 
d="M45 681v123h336v-123h-4l-72 103h-55v-299l41 -59h-155l40 59v298h-54l-72 -102h-5zM494 480l44 -54h-113l42 54v266l-47 58h110l132 -275l120 275h116l-41 -45v-274l42 -59h-160l46 59v264l-144 -329h-5l-142 284v-224z" />
    <glyph glyph-name="at.case" horiz-adv-x="821" 
d="M703 391l59 41c11 -52 14 -87 14 -124c0 -192 -188 -318 -373 -318c-199 0 -358 126 -358 338c0 171 94 334 334 334h272l-28 -81v-336l29 -80h-168v79c-45 -35 -111 -91 -186 -90c-64 1 -114 46 -114 108c0 113 114 154 300 219c0 68 -2 142 -130 142
c-193 0 -270 -146 -270 -292c0 -198 138 -308 319 -308c187 0 334 123 334 262c0 38 -11 74 -34 106zM484 271v184c-126 -55 -174 -110 -174 -158c0 -46 40 -67 88 -67c35 0 57 15 86 41z" />
    <glyph glyph-name="uni2607.case" horiz-adv-x="409" 
d="M82 -6h-4l103 298h-151l297 400h4l-103 -298h151z" />
    <glyph glyph-name="acute" unicode="&#xb4;" horiz-adv-x="213" 
d="M54 552h-15l18 129h126z" />
    <glyph glyph-name="caron" unicode="&#x2c7;" horiz-adv-x="216" 
d="M108 608l83 73h16l-58 -129h-83l-57 129h14z" />
    <glyph glyph-name="cedilla" unicode="&#xb8;" horiz-adv-x="184" 
d="M106 18l-18 -34c29 -11 86 -29 86 -62c0 -49 -44 -75 -94 -75c-34 0 -56 9 -82 31l11 21c20 -17 44 -28 73 -28c27 0 47 9 47 23c0 27 -65 44 -102 52l50 72h29z" />
    <glyph glyph-name="circumflex" unicode="&#x2c6;" horiz-adv-x="213" 
d="M9 552l57 129h83l58 -129h-16l-83 73l-85 -73h-14z" />
    <glyph glyph-name="dieresis" unicode="&#xa8;" horiz-adv-x="410" 
d="M35 625l68 76l67 -76l-67 -77zM240 625l68 76l67 -76l-67 -77z" />
    <glyph glyph-name="dotaccent" unicode="&#x2d9;" horiz-adv-x="175" 
d="M17 625l71 80l70 -80l-70 -81z" />
    <glyph glyph-name="grave" unicode="`" horiz-adv-x="184" 
d="M164 552h-15l-129 129h126z" />
    <glyph glyph-name="macron" unicode="&#xaf;" horiz-adv-x="328" 
d="M280 534h-232v61h232v-61z" />
    <glyph glyph-name="ring" unicode="&#x2da;" horiz-adv-x="206" 
d="M5 635c0 54 44 98 98 98s98 -44 98 -98s-44 -98 -98 -98s-98 44 -98 98zM39 635c0 -35 29 -64 64 -64s64 29 64 64s-29 64 -64 64s-64 -29 -64 -64z" />
    <glyph glyph-name="tilde" unicode="&#x2dc;" horiz-adv-x="361" 
d="M50 553l63 109c46 -4 93 -13 139 -13c15 0 29 15 44 34l15 -6l-59 -103c-49 4 -99 13 -148 13c-13 0 -27 -21 -40 -43z" />
    <glyph glyph-name="acute.case" horiz-adv-x="194" 
d="M40 740h-15l13 129h131z" />
    <glyph glyph-name="caron.case" horiz-adv-x="216" 
d="M113 799l89 70h15l-63 -129h-83l-62 129h15z" />
    <glyph glyph-name="cedilla.case" horiz-adv-x="184" 
d="M106 18l-18 -34c29 -11 86 -29 86 -62c0 -49 -44 -75 -94 -75c-34 0 -56 9 -82 31l11 21c20 -17 44 -28 73 -28c27 0 47 9 47 23c0 35 -102 37 -102 52l50 72h29z" />
    <glyph glyph-name="circumflex.case" horiz-adv-x="213" 
d="M4 740l62 129h83l63 -129h-15l-89 70l-89 -70h-15z" />
    <glyph glyph-name="dieresis.case" horiz-adv-x="457" 
d="M35 830l77 87l77 -87l-77 -88zM268 830l78 87l76 -87l-76 -88z" />
    <glyph glyph-name="ring.case" horiz-adv-x="206" 
d="M16 829c0 54 44 98 98 98s98 -44 98 -98s-44 -98 -98 -98s-98 44 -98 98zM50 829c0 -35 29 -64 64 -64s64 29 64 64s-29 64 -64 64s-64 -29 -64 -64z" />
    <glyph glyph-name="tilde.case" horiz-adv-x="361" 
d="M58 767l63 107c46 -4 99 -11 145 -11c15 0 29 15 44 34l15 -6l-59 -101c-49 4 -105 11 -154 11c-13 0 -27 -21 -40 -43z" />
    </font>
</defs>
</svg>
